<?xml version="1.0" encoding="utf-8"?>
<!-- Generator: Adobe Illustrator 22.1.0, SVG Export Plug-In . SVG Version: 6.00 Build 0)  -->
<svg version="1.1" id="Layer_1" xmlns="http://www.w3.org/2000/svg" xmlns:xlink="http://www.w3.org/1999/xlink" x="0px" y="0px"
	 width="32px" height="32px" viewBox="0 0 32 32" style="enable-background:new 0 0 32 32;" xml:space="preserve">
<style type="text/css">
	.st0{fill:none;stroke:#246DDA;stroke-miterlimit:10;}
	.st1{opacity:0.85;fill:#246DDA;enable-background:new    ;}
</style>
<g id="Layer_1_1_">
	<g id="Layer_3">
		<circle class="st0" cx="16" cy="16" r="14.4"/>
	</g>
</g>
<g>
	<g>
		<path class="st1" d="M16.5,7.6c0,0.3-0.3,0.5-0.6,0.5c-0.3,0-0.5-0.3-0.5-0.6C15.5,7.2,15.7,7,16,7C16.3,7,16.5,7.3,16.5,7.6
			L16.5,7.6z"/>
		<path class="st1" d="M23.7,12.2c-0.3,0.1-0.6,0-0.7-0.2c-0.1-0.3,0-0.6,0.2-0.7c0,0,0,0,0,0c0.3-0.1,0.6,0,0.7,0.2
			C24.1,11.8,24,12.1,23.7,12.2z"/>
		<path class="st1" d="M23.2,20.7c-0.2-0.2-0.3-0.5-0.2-0.7c0,0,0,0,0,0c0.2-0.2,0.5-0.3,0.8-0.2c0.3,0.2,0.3,0.5,0.2,0.7
			C23.8,20.8,23.4,20.8,23.2,20.7L23.2,20.7z"/>
		<path class="st1" d="M15.4,24.4c0-0.3,0.3-0.5,0.6-0.5c0.3,0,0.5,0.3,0.5,0.6c0,0.3-0.3,0.5-0.6,0.5C15.6,25,15.4,24.7,15.4,24.4
			L15.4,24.4z"/>
		<path class="st1" d="M8.3,19.8c0.3-0.1,0.6,0,0.7,0.2c0.1,0.3,0,0.6-0.2,0.7c-0.3,0.1-0.6,0-0.7-0.2C7.9,20.2,8,19.9,8.3,19.8
			C8.3,19.8,8.3,19.8,8.3,19.8L8.3,19.8z"/>
		<path class="st1" d="M8.8,11.3c0.2,0.2,0.3,0.5,0.2,0.7c0,0,0,0,0,0c-0.2,0.3-0.5,0.3-0.8,0.2c-0.2-0.2-0.3-0.5-0.2-0.7
			c0,0,0,0,0,0C8.3,11.2,8.6,11.2,8.8,11.3L8.8,11.3z"/>
		<path class="st1" d="M16.8,10.7c0,0.4-0.4,0.8-0.8,0.7c-0.4,0-0.8-0.4-0.7-0.8c0-0.4,0.4-0.7,0.8-0.7C16.5,10,16.8,10.3,16.8,10.7
			z"/>
		<path class="st1" d="M21,14c-0.4,0.2-0.9,0-1.1-0.3c-0.2-0.4,0-0.8,0.3-1c0,0,0,0,0,0c0.4-0.2,0.9,0,1.1,0.3
			C21.5,13.4,21.4,13.8,21,14C21,14,21,14,21,14L21,14z"/>
		<path class="st1" d="M20.2,19.3c-0.4-0.2-0.5-0.7-0.2-1.1c0,0,0,0,0,0c0.2-0.4,0.7-0.5,1.1-0.2c0.4,0.2,0.5,0.7,0.2,1.1
			c0,0,0,0,0,0C21.1,19.4,20.6,19.5,20.2,19.3z"/>
		<path class="st1" d="M15.2,21.3c0-0.4,0.4-0.7,0.8-0.7c0.4,0,0.8,0.4,0.7,0.8c0,0.4-0.4,0.8-0.8,0.7C15.5,22,15.1,21.7,15.2,21.3
			L15.2,21.3z"/>
		<path class="st1" d="M11,18c0.4-0.2,0.9,0,1.1,0.3c0.2,0.4,0,0.8-0.3,1c0,0,0,0,0,0c-0.4,0.2-0.9,0-1.1-0.3
			C10.5,18.6,10.6,18.2,11,18C11,18,11,18,11,18z"/>
		<path class="st1" d="M11.8,12.7c0.4,0.2,0.5,0.7,0.2,1.1c0,0,0,0,0,0c-0.2,0.4-0.7,0.5-1.1,0.2c-0.4-0.2-0.5-0.7-0.2-1.1
			c0,0,0,0,0,0C10.9,12.6,11.4,12.5,11.8,12.7z"/>
		<path class="st1" d="M21.1,8.2c-0.1,0.2-0.4,0.3-0.6,0.1c-0.2-0.1-0.3-0.4-0.1-0.6c0,0,0,0,0,0c0.1-0.2,0.4-0.3,0.6-0.1
			C21.2,7.7,21.2,8,21.1,8.2C21.1,8.1,21.1,8.2,21.1,8.2L21.1,8.2z"/>
		<path class="st1" d="M25.4,16.4c-0.2,0-0.4-0.2-0.4-0.4c0,0,0,0,0,0c0-0.2,0.2-0.4,0.5-0.4c0.2,0,0.4,0.2,0.4,0.4c0,0,0,0,0,0
			C25.9,16.2,25.7,16.4,25.4,16.4L25.4,16.4z"/>
		<path class="st1" d="M20.4,24.2c-0.1-0.2,0-0.5,0.2-0.6c0,0,0,0,0,0c0.2-0.1,0.5,0,0.6,0.2c0.1,0.2,0,0.5-0.2,0.6c0,0,0,0,0,0
			C20.7,24.5,20.5,24.5,20.4,24.2z"/>
		<path class="st1" d="M10.9,23.8c0.1-0.2,0.4-0.3,0.6-0.1c0.2,0.1,0.3,0.4,0.1,0.6c-0.1,0.2-0.4,0.3-0.6,0.1
			C10.8,24.3,10.8,24,10.9,23.8C10.9,23.9,10.9,23.8,10.9,23.8z"/>
		<path class="st1" d="M6.6,15.6C6.8,15.6,7,15.8,7,16c0,0,0,0,0,0c0,0.2-0.2,0.4-0.5,0.4c-0.2,0-0.4-0.2-0.4-0.4c0,0,0,0,0,0
			C6.1,15.8,6.3,15.6,6.6,15.6z"/>
		<path class="st1" d="M11.6,7.8c0.1,0.2,0,0.5-0.2,0.6c-0.2,0.1-0.5,0-0.6-0.2c-0.1-0.2,0-0.5,0.2-0.6c0,0,0,0,0,0
			C11.3,7.5,11.5,7.5,11.6,7.8L11.6,7.8z"/>
		<path class="st1" d="M20,10.4c-0.2,0.3-0.6,0.4-0.9,0.2c-0.3-0.2-0.4-0.6-0.2-0.9c0,0,0,0,0,0c0.2-0.3,0.6-0.4,0.9-0.2
			C20.1,9.7,20.2,10.1,20,10.4C20,10.4,20,10.4,20,10.4L20,10.4z"/>
		<path class="st1" d="M23,16.6c-0.4,0-0.6-0.3-0.6-0.7c0-0.4,0.3-0.6,0.7-0.6c0.4,0,0.6,0.3,0.6,0.7C23.6,16.4,23.3,16.7,23,16.6z"
			/>
		<path class="st1" d="M18.9,22.2c-0.2-0.3,0-0.7,0.3-0.9c0,0,0,0,0,0c0.3-0.2,0.7,0,0.9,0.3c0.2,0.3,0,0.7-0.3,0.9c0,0,0,0,0,0
			C19.5,22.7,19.1,22.6,18.9,22.2z"/>
		<path class="st1" d="M12,21.6c0.2-0.3,0.6-0.4,0.9-0.2c0.3,0.2,0.4,0.6,0.2,0.9c0,0,0,0,0,0c-0.2,0.3-0.6,0.4-0.9,0.2
			C11.9,22.3,11.8,21.9,12,21.6C12,21.6,12,21.6,12,21.6L12,21.6z"/>
		<path class="st1" d="M9.1,15.4c0.4,0,0.6,0.3,0.6,0.7c0,0.4-0.3,0.6-0.7,0.6c-0.4,0-0.6-0.3-0.6-0.7C8.4,15.6,8.7,15.3,9.1,15.4z"
			/>
		<path class="st1" d="M13.1,9.8c0.2,0.3,0,0.7-0.3,0.9c0,0,0,0,0,0c-0.3,0.2-0.7,0-0.9-0.3c-0.2-0.3,0-0.7,0.3-0.9c0,0,0,0,0,0
			C12.5,9.3,12.9,9.4,13.1,9.8L13.1,9.8z"/>
		<path class="st1" d="M17.6,14.6c-0.3,0-0.5-0.1-0.7-0.2c-0.6-0.4-0.8-1.2-0.4-1.8c0.2-0.4,0.7-0.6,1.1-0.6c0.3,0,0.5,0.1,0.7,0.2
			c0.6,0.4,0.8,1.2,0.4,1.8C18.4,14.4,18,14.6,17.6,14.6z"/>
		<path class="st1" d="M19.1,17.3C19.1,17.3,19.1,17.3,19.1,17.3c-0.8,0-1.4-0.7-1.3-1.4c0-0.7,0.7-1.3,1.4-1.2
			c0.4,0,0.7,0.2,0.9,0.4c0.2,0.3,0.4,0.6,0.3,0.9C20.4,16.8,19.9,17.3,19.1,17.3z"/>
		<path class="st1" d="M17.6,20c-0.5,0-1-0.3-1.2-0.7c-0.2-0.3-0.2-0.7-0.1-1c0.1-0.3,0.4-0.6,0.7-0.8c0.2-0.1,0.4-0.1,0.6-0.1
			c0.5,0,1,0.3,1.2,0.7c0.3,0.6,0.1,1.4-0.6,1.8C18,19.9,17.8,20,17.6,20z"/>
		<path class="st1" d="M14.4,20c-0.3,0-0.5-0.1-0.7-0.2c-0.3-0.2-0.5-0.5-0.6-0.8c-0.1-0.3,0-0.7,0.2-1c0.2-0.4,0.7-0.6,1.1-0.6
			c0.3,0,0.5,0.1,0.7,0.2c0.3,0.2,0.5,0.5,0.6,0.8c0.1,0.3,0,0.7-0.2,1C15.3,19.8,14.9,20,14.4,20z"/>
		<path class="st1" d="M12.9,17.3C12.8,17.3,12.8,17.3,12.9,17.3c-0.8,0-1.4-0.7-1.3-1.4c0-0.7,0.7-1.3,1.4-1.2
			c0.7,0,1.3,0.7,1.3,1.4C14.1,16.8,13.6,17.3,12.9,17.3z"/>
		<path class="st1" d="M14.4,14.6c-0.5,0-1-0.3-1.2-0.7c-0.3-0.6-0.1-1.4,0.6-1.8c0.2-0.1,0.4-0.1,0.6-0.1c0.5,0,1,0.3,1.2,0.7
			c0.3,0.6,0.1,1.4-0.6,1.8C14.8,14.6,14.6,14.6,14.4,14.6z"/>
	</g>
</g>
</svg>
