<?xml version="1.0" encoding="utf-8"?>
<!-- Generator: Adobe Illustrator 21.0.2, SVG Export Plug-In . SVG Version: 6.00 Build 0)  -->
<svg version="1.1" xmlns="http://www.w3.org/2000/svg" xmlns:xlink="http://www.w3.org/1999/xlink" x="0px" y="0px"
	width="32px" height="32px" viewBox="0 0 32 32" style="enable-background:new 0 0 32 32;" xml:space="preserve">
<style type="text/css">
	.st0{fill:none;stroke:#F69033;stroke-miterlimit:10;}
	.st1{fill:#F69033;}
</style>
<g id="Layer_1">
	<g id="Layer_3">
		<circle class="st0" cx="16" cy="16" r="14.4"/>
	</g>
</g>
<g id="Layer_2">
	<path class="st1" d="M16,9.4c-0.5,0-1.1,0.1-1.7,0.2v0c-3.5,0.9-5.7,4.5-4.8,8c0.9,3.5,4.5,5.7,8.1,4.8c3.5-0.9,5.7-4.5,4.8-8
		C21.7,11.4,19,9.4,16,9.4z M5.3,9.4v13.2h6.1c-2.1-1.5-3.4-3.9-3.4-6.6c0-2.7,1.4-5.2,3.4-6.6C11.4,9.4,5.3,9.4,5.3,9.4z M20.6,9.4
		c2.1,1.5,3.4,3.9,3.4,6.6c0,2.7-1.4,5.2-3.4,6.6h6.1V9.4H20.6z M15.8,11.6l0.3,1.3c0.6-0.1,1.1-0.1,1.5,0.1c0.6,0.2,0.7,0.9,0.8,1
		c0,0.2,0,0.5,0,0.7c-0.1,0.2-0.4,0.5-0.4,0.5s0.4,0,0.7,0.1c0.3,0.1,0.6,0.4,0.7,1c0.1,0.5,0.1,1.1-0.2,1.5
		c-0.4,0.4-0.9,0.6-1.1,0.7l0,0c-0.1,0-0.3,0.1-0.5,0.2L18,20l-0.8,0.2l-0.3-1.3L16.2,19l0.3,1.3l-0.8,0.2l-0.3-1.3l-1.6,0.4l-0.1-1
		l0.5-0.1c0.2,0,0.2-0.1,0.3-0.2c0.1-0.1,0-0.2,0-0.3l-0.8-3.3c-0.1-0.2-0.1-0.3-0.2-0.3c-0.1-0.1-0.3,0-0.5,0l-0.5,0.1l-0.2-0.8
		l1.6-0.4l-0.3-1.3l0.8-0.2l0.3,1.3l0.6-0.2L15,11.8L15.8,11.6L15.8,11.6z M16.2,13.9c-0.3,0-0.5,0-0.7,0.1C15.2,14,15,14.1,15,14.1
		l0.4,1.5c0,0,0.4-0.1,0.7-0.2c0.3-0.1,0.6-0.2,0.8-0.4c0.2-0.2,0.3-0.4,0.2-0.7c-0.1-0.3-0.3-0.5-0.7-0.5
		C16.3,13.9,16.2,13.9,16.2,13.9z M17,16.1c-0.2,0-0.4,0-0.5,0.1c-0.4,0.1-0.9,0.2-0.9,0.2l0.4,1.7c0,0,0.5-0.1,0.9-0.2
		c0.3-0.1,0.7-0.3,0.8-0.4c0.2-0.1,0.3-0.4,0.2-0.7c-0.1-0.4-0.4-0.5-0.6-0.5C17.3,16.1,17.2,16.1,17,16.1z"/>
</g>
</svg>
