<?xml version="1.0" encoding="utf-8"?>
<!-- Generator: Adobe Illustrator 19.2.1, SVG Export Plug-In . SVG Version: 6.00 Build 0)  -->
<svg version="1.1" id="Layer_1" xmlns="http://www.w3.org/2000/svg" xmlns:xlink="http://www.w3.org/1999/xlink" x="0px" y="0px"
	 width="32px" height="32px" viewBox="0 0 32 32" enable-background="new 0 0 32 32" xml:space="preserve">
<g id="Layer_3">
	<circle fill="none" stroke="#F9A01E" stroke-miterlimit="10" cx="16" cy="16" r="14.4"/>
</g>
<g id="Layer_2">
	<g>
		<path fill="#F99F1C" d="M22.7,16.6c-0.5-0.6-1.2-1.1-2.1-1.3c1.2-0.6,1.7-1.6,1.5-3.1c0-0.5-0.2-1-0.5-1.4c-0.3-0.4-0.6-0.7-1-1
			c-0.4-0.2-0.8-0.4-1.3-0.6c-0.5-0.1-1.1-0.2-1.6-0.3V6h-1.8v3c-0.3,0-0.8,0-1.5,0V6h-1.8v3c-0.3,0-0.7,0-1.2,0H8.9V11h1.4
			c0.6,0,1,0.3,1.1,0.8v-0.6c0.1,0,0.1,0,0.2,0h-0.4v8.9c-0.1,0.4-0.3,0.6-0.7,0.6H9.1l-0.4,2.2h2.4c0.2,0,0.4,0,0.7,0s0.5,0,0.7,0
			V26h1.8v-3c0.3,0,0.9,0,1.5,0v3h1.8v-3.1c0.7,0,1.3-0.1,1.7-0.2c0.5-0.1,1-0.2,1.5-0.4c0.5-0.2,0.9-0.4,1.2-0.7s0.6-0.7,0.8-1.1
			c0.2-0.4,0.3-1,0.4-1.5C23.4,18,23.2,17.2,22.7,16.6z M14.4,11.2c0.1,0,0.2,0,0.5,0s0.5,0,0.7,0c0.2,0,0.4,0,0.7,0
			c0.3,0,0.6,0.1,0.8,0.1s0.4,0.1,0.7,0.2c0.2,0.1,0.4,0.2,0.6,0.3c0.1,0.1,0.3,0.3,0.4,0.5c0.1,0.2,0.2,0.5,0.2,0.7s0,0.4-0.1,0.6
			c-0.1,0.2-0.2,0.4-0.3,0.5c-0.1,0.1-0.3,0.2-0.5,0.3c-0.2,0.1-0.4,0.2-0.6,0.2c-0.2,0.1-0.5,0.1-0.6,0.1c-0.2,0-0.4,0.1-0.7,0.1
			c-0.3,0-0.5,0-0.6,0c-0.1,0-0.3,0-0.6,0c-0.2,0-0.4,0-0.4,0L14.4,11.2L14.4,11.2L14.4,11.2z M19.5,19.4c-0.1,0.2-0.2,0.4-0.3,0.5
			c-0.1,0.1-0.3,0.3-0.5,0.4c-0.2,0.1-0.4,0.2-0.6,0.3c-0.2,0.1-0.4,0.1-0.7,0.2c-0.3,0-0.5,0.1-0.7,0.1s-0.4,0-0.7,0
			c-0.3,0-0.5,0-0.7,0s-0.4,0-0.6,0c-0.2,0-0.4,0-0.5,0v-4.1c0.1,0,0.3,0,0.6,0s0.6,0,0.8,0s0.5,0,0.9,0c0.4,0,0.7,0.1,0.9,0.1
			c0.2,0,0.5,0.1,0.8,0.2c0.3,0.1,0.5,0.2,0.7,0.4c0.2,0.1,0.3,0.3,0.5,0.6c0.1,0.2,0.2,0.5,0.2,0.8C19.6,19,19.5,19.3,19.5,19.4z"
			/>
	</g>
</g>
</svg>
