<?xml version="1.0" encoding="utf-8"?>
<!-- Generator: Adobe Illustrator 21.0.2, SVG Export Plug-In . SVG Version: 6.00 Build 0)  -->
<svg version="1.1" id="Layer_1" xmlns="http://www.w3.org/2000/svg" xmlns:xlink="http://www.w3.org/1999/xlink" x="0px" y="0px"
	width="32px" height="32px" viewBox="0 0 32 32" style="enable-background:new 0 0 32 32;" xml:space="preserve">
<style type="text/css">
	.st0{fill:none;stroke:#3CBAE8;stroke-miterlimit:10;}
	.st1{fill:#3CBAE8;}
</style>
<g id="Layer_3">
	<circle class="st0" cx="16" cy="16" r="14.4"/>
</g>
<path class="st1" d="M15.2,18.5L11,14.3v5h3.9C14.9,19,15,18.7,15.2,18.5z M14.8,20.2H11c0.1,1.4,0.6,2.6,1.5,3.6l2.7-2.8
	C15,20.7,14.9,20.4,14.8,20.2z M21,15.2c-1-0.8-2.2-1.4-3.6-1.5v3.9c0.3,0,0.6,0.2,0.8,0.3L21,15.2z M18.9,20.9l2.7,2.7
	c0.8-1,1.3-2.2,1.4-3.5h-3.9C19.1,20.4,19,20.7,18.9,20.9L18.9,20.9z M19.1,19.3H23c-0.1-1.4-0.6-2.6-1.5-3.6l-2.7,2.7
	C19,18.7,19.1,19,19.1,19.3L19.1,19.3z M13,24.3c1,0.8,2.2,1.4,3.6,1.5v-3.9c-0.3,0-0.6-0.2-0.8-0.3L13,24.3L13,24.3z M17.4,21.9
	v3.9c1.4-0.1,2.6-0.6,3.6-1.5l-2.7-2.7C18,21.7,17.7,21.8,17.4,21.9z M11,13c1,1,4.3,4.3,4.8,4.9c0.2-0.1,0.5-0.3,0.8-0.3v-6.3
	l-5.6-5C11,6.3,11,12.8,11,13z"/>
</svg>
