<?xml version="1.0" encoding="utf-8"?>
<!-- Generator: Adobe Illustrator 22.1.0, SVG Export Plug-In . SVG Version: 6.00 Build 0)  -->
<svg version="1.1" id="Layer_1" xmlns="http://www.w3.org/2000/svg" xmlns:xlink="http://www.w3.org/1999/xlink" x="0px" y="0px"
	 width="32px" height="32px" viewBox="0 0 32 32" style="enable-background:new 0 0 32 32;" xml:space="preserve">
<style type="text/css">
	.st0{fill:none;stroke:#75A871;stroke-miterlimit:10;}
	.st1{fill:url(#SVGID_1_);}
	.st2{fill:url(#SVGID_2_);}
</style>
<g id="Layer_1_1_">
	<g id="Layer_3">
		<circle class="st0" cx="16" cy="16" r="14.4"/>
	</g>
</g>
<g>
	
		<linearGradient id="SVGID_1_" gradientUnits="userSpaceOnUse" x1="12.7513" y1="482.2825" x2="25.5357" y2="482.2825" gradientTransform="matrix(1 0 0 1 0 -463.698)">
		<stop  offset="0" style="stop-color:#7CCCC1"/>
		<stop  offset="1" style="stop-color:#61995E"/>
	</linearGradient>
	<path class="st1" d="M25.5,14.4l-1.9-1.9c0,0-0.1-0.1-0.2-0.1h-8.5c-0.1,0-0.1,0-0.2,0.1l-1.9,1.9c0,0-0.1,0.1-0.1,0.2V15
		c0,0.1,0.1,0.3,0.3,0.3h1.5c0.1,0,0.1,0,0.2-0.1l0.8-0.9h7.3l0.8,0.8v7l-0.8,0.8h-7.3L14.7,22c-0.1-0.1-0.1-0.1-0.2-0.1H13
		c-0.1,0-0.3,0.1-0.3,0.3v0.4c0,0,0,0.1,0,0.1c0,0,0,0,0,0.1l1.9,1.9c0,0,0.1,0.1,0.2,0.1h8.6c0.1,0,0.1,0,0.2-0.1l1.9-1.9
		c0,0,0.1-0.1,0.1-0.2v-8.1C25.6,14.5,25.5,14.4,25.5,14.4z"/>
	
		<linearGradient id="SVGID_2_" gradientUnits="userSpaceOnUse" x1="7.55" y1="477.0768" x2="20.3854" y2="477.0768" gradientTransform="matrix(1 0 0 1 0 -463.698)">
		<stop  offset="0" style="stop-color:#7CCCC1"/>
		<stop  offset="1" style="stop-color:#61995E"/>
	</linearGradient>
	<path class="st2" d="M18.3,19.5c0.1,0,0.1,0,0.2-0.1l1.9-1.9c0,0,0.1-0.1,0.1-0.2v-0.4c0-0.1-0.1-0.3-0.3-0.3h-1.5
		c-0.1,0-0.1,0-0.2,0.1l-0.8,0.9h-7.3l-0.8-0.8l0-7l0.8-0.8h7.3l0.8,0.8c0,0,0.1,0.1,0.2,0.1h1.5c0.1,0,0.3-0.1,0.3-0.3V9.4
		c0,0,0-0.1,0-0.1c0,0,0,0,0-0.1l-1.9-1.9c-0.1,0-0.1,0-0.2,0H9.7c-0.1,0-0.1,0-0.2,0.1L7.7,9.2c0,0-0.1,0.1-0.1,0.1l0,8
		c0,0.1,0,0.1,0.1,0.2l1.9,1.9c0,0,0.1,0.1,0.2,0.1L18.3,19.5C18.2,19.5,18.2,19.5,18.3,19.5z"/>
</g>
</svg>
