<?xml version="1.0" encoding="utf-8"?>
<!-- Generator: Adobe Illustrator 22.1.0, SVG Export Plug-In . SVG Version: 6.00 Build 0)  -->
<svg version="1.1" id="Layer_1" xmlns="http://www.w3.org/2000/svg" xmlns:xlink="http://www.w3.org/1999/xlink" x="0px" y="0px"
	 width="32px" height="32px" viewBox="0 0 32 32" style="enable-background:new 0 0 32 32;" xml:space="preserve">
<style type="text/css">
	.st0{fill:none;stroke:#2972FF;stroke-miterlimit:10;}
	.st1{fill:#2ED7A2;}
	.st2{fill:#2972FF;}
</style>
<g id="Layer_1_1_">
	<g id="Layer_3">
		<circle class="st0" cx="16" cy="16" r="14.4"/>
	</g>
</g>
<path class="st1" d="M24.6,15.3c0-3.1-2.5-5.6-5.6-5.6h-4.5l3,2.6H19c1.7,0,3,1.3,3,3c0,1.7-1.3,3-3,3h-4.5l6.1,5.3h4l-3.5-3
	C23.2,19.7,24.6,17.7,24.6,15.3z"/>
<path class="st2" d="M12.3,21c-1.7,0-3-1.3-3-3c0-1.7,1.3-3,3-3h4.5l-6.1-5.3h-4l3.5,3c-2.1,0.8-3.5,2.9-3.5,5.2
	c0,3.1,2.5,5.6,5.6,5.6h4.5l-3-2.6L12.3,21L12.3,21z"/>
</svg>
