<?xml version="1.0" encoding="utf-8"?>
<!-- Generator: Adobe Illustrator 22.1.0, SVG Export Plug-In . SVG Version: 6.00 Build 0)  -->
<svg version="1.1" id="Layer_1" xmlns="http://www.w3.org/2000/svg" xmlns:xlink="http://www.w3.org/1999/xlink" x="0px" y="0px"
	 width="32px" height="32px" viewBox="0 0 32 32" style="enable-background:new 0 0 32 32;" xml:space="preserve">
<style type="text/css">
	.st0{fill:#002352;stroke:#0066CC;stroke-width:0.96;stroke-miterlimit:10;}
	.st1{fill:#FFFFFF;}
</style>
<circle class="st0" cx="16" cy="16" r="14.4"/>
<path class="st1" d="M8.9,12.1h10.2c0,0,3.5,0,1.1,4.5c0,0-1.8,3.5-6.2,3.5l2.4-6c0.1-0.2,0-0.5-0.3-0.6c-0.1,0-0.1,0-0.2,0
	l-3.1-0.1L8.9,23c0,0,1.3,0.1,2,0.1l-0.4,1h1.9c0.1,0,0.2-0.1,0.2-0.2l0.3-0.9l0.8-0.1L13.2,24H15c0.1,0,0.3-0.1,0.3-0.2l0.5-1.3
	c0,0,5.5-0.9,8-5.4c0,0,3.3-5.2-0.6-7c-0.8-0.4-1.6-0.6-2.4-0.7l0.5-1.1c0-0.1,0-0.2-0.1-0.3h-0.1h-1.7l-0.5,1.4h-0.7l0.4-1.1
	c0-0.1,0-0.2-0.1-0.3h-0.1h-1.7l-0.5,1.4h-5.3c-0.3,0-0.6,0.2-0.7,0.4L8.9,12.1z"/>
</svg>
