<?xml version="1.0" encoding="utf-8"?>
<!-- Generator: Adobe Illustrator 22.1.0, SVG Export Plug-In . SVG Version: 6.00 Build 0)  -->
<svg version="1.1" id="Layer_2" xmlns="http://www.w3.org/2000/svg" xmlns:xlink="http://www.w3.org/1999/xlink" x="0px" y="0px"
	 width="32px" height="32px" viewBox="0 0 32 32" style="enable-background:new 0 0 32 32;" xml:space="preserve">
<style type="text/css">
	.st0{fill:#988430;}
	.st1{fill:#7A6A2A;}
	.st2{fill:#BA9F33;}
	.st3{clip-path:url(#SVGID_2_);fill:#E2CC85;}
	.st4{clip-path:url(#SVGID_4_);fill:#F1D789;}
	.st5{clip-path:url(#SVGID_6_);fill:#F4ECB4;}
	.st6{clip-path:url(#SVGID_8_);fill:#F3E19D;}
	.st7{clip-path:url(#SVGID_10_);fill:#F2E8B0;}
	.st8{clip-path:url(#SVGID_12_);fill:#F5EEC0;}
	.st9{clip-path:url(#SVGID_14_);fill:#E6DB9D;}
	.st10{clip-path:url(#SVGID_16_);fill:#E5CB7A;}
	.st11{clip-path:url(#SVGID_18_);fill:#D8C173;}
	.st12{clip-path:url(#SVGID_20_);fill:#F1D789;}
	.st13{clip-path:url(#SVGID_22_);fill:#E0CD81;}
	.st14{clip-path:url(#SVGID_24_);fill:#DFC57C;}
	.st15{clip-path:url(#SVGID_26_);fill:#E5CC7C;}
	.st16{clip-path:url(#SVGID_28_);fill:#D2C281;}
	.st17{clip-path:url(#SVGID_30_);fill:#E2C270;}
	.st18{clip-path:url(#SVGID_32_);fill:#CCB360;}
	.st19{clip-path:url(#SVGID_34_);fill:#D5B457;}
	.st20{clip-path:url(#SVGID_36_);fill:#D2B257;}
	.st21{clip-path:url(#SVGID_38_);fill:#D2B159;}
	.st22{clip-path:url(#SVGID_40_);fill:#C2A44D;}
	.st23{clip-path:url(#SVGID_42_);fill:#CAA13E;}
	.st24{clip-path:url(#SVGID_44_);fill:#B59544;}
	.st25{clip-path:url(#SVGID_46_);fill:#C89D3A;}
	.st26{clip-path:url(#SVGID_48_);fill:#CEB052;}
	.st27{clip-path:url(#SVGID_50_);fill:#CCA847;}
	.st28{clip-path:url(#SVGID_52_);fill:#C39D3C;}
	.st29{clip-path:url(#SVGID_54_);fill:#D2BA6B;}
	.st30{clip-path:url(#SVGID_56_);fill:#C0993A;}
	.st31{clip-path:url(#SVGID_58_);fill:#A88F33;}
	.st32{clip-path:url(#SVGID_60_);fill:#E3C571;}
	.st33{clip-path:url(#SVGID_62_);fill:#D8B65B;}
	.st34{clip-path:url(#SVGID_64_);fill:#D3AE4D;}
	.st35{clip-path:url(#SVGID_66_);fill:#CAA13E;}
	.st36{clip-path:url(#SVGID_68_);fill:#F4EFC8;}
	.st37{clip-path:url(#SVGID_70_);fill:#EBCC73;}
	.st38{clip-path:url(#SVGID_72_);fill:#E5C66B;}
	.st39{clip-path:url(#SVGID_74_);fill:#E6BD62;}
	.st40{clip-path:url(#SVGID_76_);fill:#B6933F;}
	.st41{clip-path:url(#SVGID_78_);fill:#C49937;}
	.st42{clip-path:url(#SVGID_80_);fill:#DFC068;}
	.st43{clip-path:url(#SVGID_82_);fill:#A88F33;}
	.st44{clip-path:url(#SVGID_84_);fill:#C99E3D;}
	.st45{clip-path:url(#SVGID_86_);fill:#B58634;}
	.st46{clip-path:url(#SVGID_88_);fill:#A88F33;}
	.st47{clip-path:url(#SVGID_90_);fill:#E6C367;}
	.st48{clip-path:url(#SVGID_92_);fill:#DCBA5A;}
	.st49{clip-path:url(#SVGID_94_);fill:#E9CE77;}
	.st50{clip-path:url(#SVGID_96_);fill:#CDAE50;}
	.st51{clip-path:url(#SVGID_98_);fill:#D2A83E;}
	.st52{clip-path:url(#SVGID_100_);fill:#C29637;}
	.st53{clip-path:url(#SVGID_102_);fill:#AC8132;}
	.st54{clip-path:url(#SVGID_104_);fill:#A88F33;}
	.st55{clip-path:url(#SVGID_106_);fill:#A67A2E;}
	.st56{clip-path:url(#SVGID_108_);fill:#8C6228;}
	.st57{clip-path:url(#SVGID_110_);fill:#CBA94C;}
	.st58{clip-path:url(#SVGID_112_);fill:#A88F33;}
	.st59{clip-path:url(#SVGID_114_);fill:#BE9C44;}
	.st60{clip-path:url(#SVGID_116_);fill:#A17C34;}
	.st61{clip-path:url(#SVGID_118_);fill:#8C6228;}
	.st62{clip-path:url(#SVGID_120_);fill:#92723A;}
	.st63{clip-path:url(#SVGID_122_);fill:#B18E3E;}
	.st64{clip-path:url(#SVGID_124_);fill:#543E26;}
	.st65{clip-path:url(#SVGID_126_);fill:#806031;}
	.st66{clip-path:url(#SVGID_128_);fill:#B6903C;}
	.st67{clip-path:url(#SVGID_130_);fill:#685026;}
	.st68{clip-path:url(#SVGID_132_);fill:#D4B968;}
	.st69{clip-path:url(#SVGID_134_);fill:#CCA849;}
	.st70{clip-path:url(#SVGID_136_);fill:#585136;}
	.st71{clip-path:url(#SVGID_138_);fill:#252211;}
	.st72{clip-path:url(#SVGID_140_);fill:#C3B378;}
	.st73{clip-path:url(#SVGID_142_);fill:#E6D89C;}
	.st74{clip-path:url(#SVGID_144_);fill:#252211;}
	.st75{clip-path:url(#SVGID_146_);fill:#6F674D;}
	.st76{clip-path:url(#SVGID_148_);fill:#AC924C;}
	.st77{clip-path:url(#SVGID_150_);fill:#9F8E57;}
	.st78{clip-path:url(#SVGID_152_);fill:#EAC970;}
	.st79{clip-path:url(#SVGID_154_);fill:#D7BC6B;}
	.st80{clip-path:url(#SVGID_156_);fill:#585136;}
	.st81{clip-path:url(#SVGID_158_);fill:#453A25;}
	.st82{clip-path:url(#SVGID_160_);fill:#84754B;}
	.st83{clip-path:url(#SVGID_162_);fill:#252211;}
	.st84{clip-path:url(#SVGID_164_);fill:#F7F7E7;}
	.st85{clip-path:url(#SVGID_166_);fill:#F8F6DE;}
	.st86{clip-path:url(#SVGID_168_);fill:#D4C38B;}
	.st87{clip-path:url(#SVGID_170_);fill:#E2D59D;}
	.st88{clip-path:url(#SVGID_172_);fill:#CBAC5A;}
	.st89{clip-path:url(#SVGID_174_);fill:#D6BC6F;}
	.st90{clip-path:url(#SVGID_176_);fill:#DFC677;}
	.st91{clip-path:url(#SVGID_178_);fill:#C4A859;}
	.st92{clip-path:url(#SVGID_180_);fill:#927D49;}
	.st93{clip-path:url(#SVGID_182_);fill:#6E6342;}
	.st94{clip-path:url(#SVGID_184_);fill:#39331F;}
	.st95{clip-path:url(#SVGID_186_);fill:#292311;}
	.st96{clip-path:url(#SVGID_188_);fill:#252211;}
	.st97{clip-path:url(#SVGID_190_);fill:#3F3824;}
	.st98{clip-path:url(#SVGID_192_);fill:#2D2815;}
	.st99{clip-path:url(#SVGID_194_);fill:#82764F;}
	.st100{clip-path:url(#SVGID_196_);fill:#2D2816;}
	.st101{clip-path:url(#SVGID_198_);fill:#574F35;}
	.st102{clip-path:url(#SVGID_200_);fill:#82764F;}
	.st103{clip-path:url(#SVGID_202_);fill:#6E6342;}
	.st104{clip-path:url(#SVGID_204_);fill:#585136;}
	.st105{clip-path:url(#SVGID_206_);fill:#574F35;}
	.st106{clip-path:url(#SVGID_208_);fill:#82764F;}
	.st107{clip-path:url(#SVGID_210_);fill:#6E6342;}
	.st108{clip-path:url(#SVGID_212_);fill:#585136;}
	.st109{clip-path:url(#SVGID_214_);fill:#574F35;}
	.st110{clip-path:url(#SVGID_216_);fill:#252211;}
	.st111{clip-path:url(#SVGID_218_);fill:none;}
	.st112{clip-path:url(#SVGID_220_);fill:#CFB66C;}
	.st113{clip-path:url(#SVGID_222_);fill:#CFB66C;}
	.st114{clip-path:url(#SVGID_224_);fill:#CFB66C;}
	.st115{clip-path:url(#SVGID_226_);fill:#CFB66C;}
	.st116{clip-path:url(#SVGID_228_);fill:#CFB66C;}
	.st117{clip-path:url(#SVGID_230_);fill:#CFB66C;}
	.st118{clip-path:url(#SVGID_232_);fill:#CFB66C;}
	.st119{clip-path:url(#SVGID_234_);fill:#CFB66C;}
	.st120{clip-path:url(#SVGID_236_);fill:#DEC270;}
	.st121{clip-path:url(#SVGID_238_);fill:#CBAF59;}
	.st122{clip-path:url(#SVGID_240_);fill:#E3C677;}
	.st123{clip-path:url(#SVGID_242_);fill:#ECD592;}
	.st124{opacity:0.8;fill:#FFFFFF;enable-background:new    ;}
</style>
<circle class="st0" cx="16" cy="16" r="15"/>
<circle class="st1" cx="16" cy="16" r="14.5"/>
<circle class="st2" cx="16" cy="16" r="14.2"/>
<g>
	<defs>
		<circle id="SVGID_1_" cx="16" cy="16" r="14.2"/>
	</defs>
	<clipPath id="SVGID_2_">
		<use xlink:href="#SVGID_1_"  style="overflow:visible;"/>
	</clipPath>
	<path class="st3" d="M12.4,21.9L11.9,21l0.3-1.1l2-0.8l-0.8-1.7l0.4-1.7l0.8-1.6l2.4-0.4l1.8-1.7l3.8,0.3l0.8,4.1l-1.4,5.1L21,24.2
		l-3.3,0.1l-1.5-1.1l-1.8-0.8L12.4,21.9z"/>
</g>
<g>
	<defs>
		<circle id="SVGID_3_" cx="16" cy="16" r="14.2"/>
	</defs>
	<clipPath id="SVGID_4_">
		<use xlink:href="#SVGID_3_"  style="overflow:visible;"/>
	</clipPath>
	<path class="st4" d="M18.3,21.8c0,0-0.5,0.2-1.2,0.2c-0.2-0.3-1.8-0.4-1.8-0.4s-0.2-0.1-0.6,0.1c-0.4,0.1-0.7,0.1-1,0.2
		c-0.3,0.1-0.6-0.3-0.9-0.4c-0.2-0.1-0.6-0.3-0.6-0.3l-0.7-0.1l-1.3-0.6l-2.1-2.1l-0.6,0.9l-0.2,1.1l0.6,1.3l1.7,1.6l3.4,0.9l2-0.6
		l2.5-1.1L18.3,21.8L18.3,21.8z"/>
</g>
<g>
	<defs>
		<circle id="SVGID_5_" cx="16" cy="16" r="14.2"/>
	</defs>
	<clipPath id="SVGID_6_">
		<use xlink:href="#SVGID_5_"  style="overflow:visible;"/>
	</clipPath>
	<path class="st5" d="M6.2,14.3L6.6,13l0.5-0.8L8.8,12l-0.5,1.5l-1.4,2.5l0.6,2.2l-1,0.5l-0.3-0.5l-0.3-1.1l0-1.2L6.2,14.3z"/>
</g>
<g>
	<defs>
		<circle id="SVGID_7_" cx="16" cy="16" r="14.2"/>
	</defs>
	<clipPath id="SVGID_8_">
		<use xlink:href="#SVGID_7_"  style="overflow:visible;"/>
	</clipPath>
	<path class="st6" d="M8,21.8l-0.3-0.4c0,0-0.1-0.2,0-0.4c0-0.2,0-0.2,0-0.3s-0.2-0.3-0.2-0.5c0-0.2,0-0.3,0.1-0.4
		c0.2-0.2,0.1-0.4,0.1-0.4l0.2,0.1l0-0.1c0,0,0.1,0.1,0.1,0.2c0-0.1-0.1-0.7,0.1-0.9c0.2-0.1,0.4,0.6,0.4,0.6l-0.2-1.1L8,16.9
		l-0.8-1.1l0-1.2v-0.1c0,0-0.4,0.6-0.5,1c-0.1,0.3,0.1,0.7,0.1,1.1c0,0.4-0.1,0.4,0,0.6c0.1,0.2,0.4,0.5,0.3,0.8
		c-0.1,0.2-0.4,0.1-0.4,0.1s-0.1,0.2-0.1,0.2c0-0.1-0.1-0.2-0.1-0.2c0,0,0,0.1,0,0.1S6.3,18,6.3,17.8C6.2,17.6,6.1,17.2,6,17
		c0,0.1-0.1,0.5-0.1,0.5L6,18l0.2,0.7l0.2,0.5l0.2,0.6l0.2,0.4l0.1,0.3L7,21.2l0.6,0.6l0.3,0.1L8,21.8L8,21.8z"/>
</g>
<g>
	<defs>
		<circle id="SVGID_9_" cx="16" cy="16" r="14.2"/>
	</defs>
	<clipPath id="SVGID_10_">
		<use xlink:href="#SVGID_9_"  style="overflow:visible;"/>
	</clipPath>
	<path class="st7" d="M6.5,13.2c0,0-0.4,0.7-0.5,1.3c-0.1,0.7-0.2,1.4-0.1,2.3c0.1,0.9,0.2,1.5,0.3,1.9c0.2,0.7,0.7,1.6,0.7,1.6l0,0
		c0,0-0.1-0.2-0.2-0.5c-0.1-0.3-0.1-0.6-0.2-0.7c-0.1-0.1-0.1-0.3-0.2-0.4c0-0.2,0-0.4-0.2-0.6C6.1,18.1,6,17.9,6,17.7
		c0-0.3,0-0.6,0-0.9c-0.1-0.5-0.1-0.8,0-1c0-0.2,0.3-0.9,0.5-1.5c0.1-0.4,0-0.7,0.2-1c0.2-0.3,0.3-0.6,0.3-0.8
		C7,12.3,6.5,13.2,6.5,13.2L6.5,13.2z"/>
</g>
<g>
	<defs>
		<circle id="SVGID_11_" cx="16" cy="16" r="14.2"/>
	</defs>
	<clipPath id="SVGID_12_">
		<use xlink:href="#SVGID_11_"  style="overflow:visible;"/>
	</clipPath>
	<path class="st8" d="M8.3,13c0,0-0.2,0.1-0.3,0.2c-0.1,0.1-0.1,0.2-0.3,0.4c-0.1,0.2-0.1,0.3-0.2,0.5c-0.1,0.2-0.3,0.5-0.4,0.6
		c0,0.1-0.1,0.6-0.1,0.9c-0.1,0.3,0.1,0.6,0.1,0.6l0.1,0c0,0,0,0.2,0.1,0.3C7.5,16.5,7.5,16,7.5,16L8,14.2l0.8-0.5l0.1-0.4L8.3,13z"
		/>
</g>
<g>
	<defs>
		<circle id="SVGID_13_" cx="16" cy="16" r="14.2"/>
	</defs>
	<clipPath id="SVGID_14_">
		<use xlink:href="#SVGID_13_"  style="overflow:visible;"/>
	</clipPath>
	<path class="st9" d="M8.7,13.8c0,0-0.4,0-0.5,0.2C8.1,14,8.1,14,8,14.1c-0.1,0.1-0.3,0.2-0.4,0.4c-0.1,0.2-0.2,0.4-0.2,0.8
		c0,0.2,0,0.4,0,0.5c0,0.2-0.1,0.4,0,0.5c0,0.2,0.3,0.4,0.3,0.6l0.5-0.3l0.5-1.8l1-0.6L9,13.5L8.7,13.8L8.7,13.8z"/>
</g>
<g>
	<defs>
		<circle id="SVGID_15_" cx="16" cy="16" r="14.2"/>
	</defs>
	<clipPath id="SVGID_16_">
		<use xlink:href="#SVGID_15_"  style="overflow:visible;"/>
	</clipPath>
	<path class="st10" d="M8.8,30.2l-2.2,0.1l-1.2-0.1c0,0,0.1-0.9,0.1-1.1c0-0.1,0.2-0.5,0.2-0.6c0-0.1,0.1-0.3,0-0.6
		c0.1-0.1,0.2-0.1,0.4-1.8c0.1-0.6,0.1-1.1,0.1-1.4c0.1-0.4,0.1-0.6,0.1-0.7c0-0.3,0-0.4,0-0.6c0-0.3,0.3-0.6,0.3-0.8
		c0-0.2-0.1-0.3-0.2-0.4C6.4,22.1,6.3,22,6.3,22s0.5-0.3,0.5-1.7c0,0,0,0,0,0L7.1,21l0.2,0.2l0.6,1.2l0.8,0.8l1.2,0.8l0.8,0.8
		l0.1,2.2l-1,1.3L8.8,30.2L8.8,30.2z"/>
</g>
<g>
	<defs>
		<circle id="SVGID_17_" cx="16" cy="16" r="14.2"/>
	</defs>
	<clipPath id="SVGID_18_">
		<use xlink:href="#SVGID_17_"  style="overflow:visible;"/>
	</clipPath>
	<path class="st11" d="M9.2,28.3c0,0,0-0.3,0.2-0.5c0,0.1,0.1,0.1,0.1,0.2c0-0.1,0.3-0.5,1-0.7c0.7-0.1,0.8-0.6,0.8-0.6l1.4-1.3
		l1.6-1.5l1.9-0.7l0.9-0.2c0,0,0,0.1,0,0.2c0.2,0,0.5-0.1,0.9-0.2c0.2-0.1,0.3-0.1,0.4,0c0.1,0.1,0.1,0.4,0.1,0.5
		c0.2,0,0.4-0.2,0.6-0.2c0.3,0,0.5,0.4,0.8,0.4c0.4,0,0.5-0.2,0.8-0.4c0.2-0.1,0.4-0.2,0.5-0.3c0.3-0.2,3.5-1.2,3.5-1.2l1.1,0.1
		l0.2,1.2l-0.1,3.2l-5.1,2.7l-8.1,1.2l-3.3-0.8L9.2,28.3L9.2,28.3z"/>
</g>
<g>
	<defs>
		<circle id="SVGID_19_" cx="16" cy="16" r="14.2"/>
	</defs>
	<clipPath id="SVGID_20_">
		<use xlink:href="#SVGID_19_"  style="overflow:visible;"/>
	</clipPath>
	<path class="st12" d="M5.7,30.2c0,0,0.3-0.7,0.4-1.6c0.1-0.8,0-1,0-1.2c0-0.4,0.5-1.1,0.5-1.3c0,0.3,0.1,1.4,0.4,1.7
		c-0.1,0.1-0.2,0.4,0.2,0.7c-0.1,0.1-0.2,0.3-0.1,0.6c0.1,0.3,0.2,0.6,0.1,1c-0.1,0-0.3,0.1-0.4,0.2C6.9,30.4,5.7,30.2,5.7,30.2
		L5.7,30.2z"/>
</g>
<g>
	<defs>
		<circle id="SVGID_21_" cx="16" cy="16" r="14.2"/>
	</defs>
	<clipPath id="SVGID_22_">
		<use xlink:href="#SVGID_21_"  style="overflow:visible;"/>
	</clipPath>
	<path class="st13" d="M10.8,29.8l1.8-0.5l0.1,0c0,0,0,0,0,0.1c0.1-0.1,0.2-0.1,0.3-0.1c0,0.1,0.1,0.3,0.2,0.4
		c0.2,0,0.3-0.1,0.5-0.2c0.2-0.1,0.4-0.3,0.5-0.4c0,0,0.1,0.2,0.2,0.3c0.2-0.2,0.6-0.8,1.1-0.8c0-0.1,0.2-0.5,0.7-0.8
		c0.5-0.3,0.8-0.3,1.1-0.3c0.1-0.2,0.3-0.4,0.5-0.5c0.1,0,0.2,0.1,0.4,0c0.2-0.1,0.4-0.5,0.8-0.5c0.3,0,0.5,0.1,0.5,0.1
		s0.9-0.9,1.5-1.2c0-0.1-0.1-0.3,0.7-1c0,0,0,0.1,0,0.1c0,0,0.2-0.1,0.4-0.3c0.3-0.2,0.6-0.4,0.8-0.5c0.4-0.1,0.8,0.1,0.8,0.1
		s0,0,0.1-0.1c0.1,0,0.2,0,0.2,0c0,0.1,0.1,0.3,0,0.5c0,0,0.1,0.1,0.2,0.1c0,0.1-0.1,0.3-0.3,0.4c0.1,0.1,0.1,0.1,0.3,0.2
		c-0.1,0.1-0.2,0.3-0.2,0.4c-0.1,0.1-0.2,0.6-0.3,0.8c-0.1,0.2-0.2,0.5-0.3,0.6c-0.1,0.1-0.3,0.3-0.4,0.5c0.1-0.1,0.7-0.2,1-0.3
		c-0.2,0.2-1.5,2.3-1.5,2.3l-2.8,0.8l-1.4,0.2l-7.2,0L10.6,30L10.8,29.8z"/>
</g>
<g>
	<defs>
		<circle id="SVGID_23_" cx="16" cy="16" r="14.2"/>
	</defs>
	<clipPath id="SVGID_24_">
		<use xlink:href="#SVGID_23_"  style="overflow:visible;"/>
	</clipPath>
	<path class="st14" d="M8.8,13.7c0,0-0.2,0-0.3,0s0.2,0.1,0.3,0.1c0.1,0,0.2,0.2,0.3,0.3c0,0.1,1.5,0.7,1.5,0.7l1-0.1l0.4-0.5
		l-0.7-0.6l0.5-1.4l-0.6,0.1l-1.5,0.9l-0.8,0.3L8.8,13.7L8.8,13.7z"/>
</g>
<g>
	<defs>
		<circle id="SVGID_25_" cx="16" cy="16" r="14.2"/>
	</defs>
	<clipPath id="SVGID_26_">
		<use xlink:href="#SVGID_25_"  style="overflow:visible;"/>
	</clipPath>
	<path class="st15" d="M11.1,14.2c0,0,0,0.1,0.1,0.1c0.2,0,0.4,0.1,0.5,0.2c0.1,0.2,0.5,0.7,0.5,0.7l0.9,0.3l0.1-1.1l-1-0.7
		L11.1,14.2L11.1,14.2L11.1,14.2z"/>
</g>
<g>
	<defs>
		<circle id="SVGID_27_" cx="16" cy="16" r="14.2"/>
	</defs>
	<clipPath id="SVGID_28_">
		<use xlink:href="#SVGID_27_"  style="overflow:visible;"/>
	</clipPath>
	<path class="st16" d="M10.9,14.6c0,0,0.2,0,0.4-0.1s0.6-0.2,0.7-0.2c0.2,0.1,0.2,0.4,0.4,0.6c0.1,0.2,0.4,0.2,0.5,0.3
		c0.1,0.2,0.6,0.1,0.6,0.1l0.2,1l-0.8,1l-0.2,1.2h-1l-0.9-0.4L10.3,17l0.2-1.1L10.9,14.6z"/>
</g>
<g>
	<defs>
		<circle id="SVGID_29_" cx="16" cy="16" r="14.2"/>
	</defs>
	<clipPath id="SVGID_30_">
		<use xlink:href="#SVGID_29_"  style="overflow:visible;"/>
	</clipPath>
	<path class="st17" d="M12.8,14.6C12.8,14.6,12.9,14.6,12.8,14.6c0,0,0,0.1,0,0.2c0,0.1,0.1,0.3,0,0.4c0,0,0.1,0.1,0.1,0.2
		c0,0.1,0.1,0.2,0.3,0.2c-0.1,0-0.1,0.1-0.1,0.1s0.2,0.2,0.3,0.3c0.1,0,0.4-0.1,0.4-0.1l0.1,0l0.1,0c0,0-0.1,0,0-0.3
		c0.1-0.2,0.1-0.2,0.1-0.2c0,0,0.1-0.3,0.1-0.4c0-0.1,0.1-0.5,0.1-0.5l-0.1-0.8l-0.4-0.3l-0.4-0.3l-0.3,0.6L12.8,14L12.8,14.6
		L12.8,14.6L12.8,14.6z"/>
</g>
<g>
	<defs>
		<circle id="SVGID_31_" cx="16" cy="16" r="14.2"/>
	</defs>
	<clipPath id="SVGID_32_">
		<use xlink:href="#SVGID_31_"  style="overflow:visible;"/>
	</clipPath>
	<path class="st18" d="M13.9,13.9c0,0,0.1,0.2,0.1,0.4c0-0.1,0-0.1,0-0.1s0.1,0.3,0.1,0.5c0,0,0,0,0.1,0c0,0,0.1,0.3,0,0.4
		c0-0.1,0.2-0.3,0.4-0.4c0.1-0.1,0.2-0.1,0.3-0.1c0.2,0,0.3,0.1,0.5,0.1c0.5,0,1-0.4,1.4-0.5c0.3-0.1,0.5-0.2,0.7-0.3
		c0.1-0.1,0.2-0.2,0.3-0.4c0.2-0.3,0.3-0.5,0.5-0.6c-0.1,0-0.2,0-0.2,0s0.1-0.1,0.1-0.1c0.1-0.1,0.2-0.2,0.4-0.2c0.3,0,0.4,0,0.6,0
		c0.2,0,0.2,0,0.2,0s0.2,0.1,0.5,0.1c0.4,0,0.6,0,0.8,0.1c0.2,0,0.8-0.1,1,0c0.2,0,0.3,0.1,0.3,0.1l-0.6-1.7l-2.1-1.9l-1.3,0.9l-2,2
		l-1.9,0.7l-0.4,0.4L13.9,13.9L13.9,13.9z"/>
</g>
<g>
	<defs>
		<circle id="SVGID_33_" cx="16" cy="16" r="14.2"/>
	</defs>
	<clipPath id="SVGID_34_">
		<use xlink:href="#SVGID_33_"  style="overflow:visible;"/>
	</clipPath>
	<path class="st19" d="M18.1,12.9c0,0,0.1-0.1,0.1-0.1s0.2-0.2,0.4-0.2c0.3,0,0.4,0,0.6,0c0.2,0,0.2,0,0.2,0s0.2,0.1,0.5,0.1
		c0.4,0,0.6,0,0.8,0.1c0.2,0,0.8-0.1,1,0c0.2,0,0.3,0.1,0.3,0.1L21.9,12l-0.3-0.6l-0.9-1c0,0-1.1-0.6-1.1-0.6c0,0-0.4-0.1-0.4-0.1
		l-1,0.6l-0.9,2.3l0,0.5l0.6,0.3c0.1-0.2,0.3-0.4,0.4-0.5C18.3,12.9,18.1,12.9,18.1,12.9z"/>
</g>
<g>
	<defs>
		<circle id="SVGID_35_" cx="16" cy="16" r="14.2"/>
	</defs>
	<clipPath id="SVGID_36_">
		<use xlink:href="#SVGID_35_"  style="overflow:visible;"/>
	</clipPath>
	<path class="st20" d="M18.1,13.1c-0.1,0-0.2,0-0.2-0.1c-0.1-0.2-0.1-0.2-0.2-0.2c-0.1,0-0.1,0.1-0.2,0.1c0,0-0.1-0.2-0.1-0.2
		l-0.1,0c0,0-0.3,0.2-0.5,0.4c-0.2,0.2-0.6,0.6-0.7,0.7C16,14,15.4,14,15.2,14c-0.2,0-0.4,0.2-0.4,0.2c0,0,0.1,0.1,0.1,0.1
		c0,0-0.2,0-0.2,0c0,0,0,0.2,0.1,0.2c0.1,0,0.1,0,0.2,0c0.2,0,0.3,0.1,0.5,0.1c0.5,0,1-0.4,1.4-0.5c0.3-0.1,0.5-0.2,0.7-0.3
		c0.1-0.1,0.2-0.2,0.3-0.4C18,13.3,18,13.2,18.1,13.1L18.1,13.1z"/>
</g>
<g>
	<defs>
		<circle id="SVGID_37_" cx="16" cy="16" r="14.2"/>
	</defs>
	<clipPath id="SVGID_38_">
		<use xlink:href="#SVGID_37_"  style="overflow:visible;"/>
	</clipPath>
	<path class="st21" d="M10.4,25.1c0,0,0-0.2-0.5-0.6c-0.1-0.1-0.2-0.2-0.3-0.3c-0.2-0.2-0.3-0.3-0.5-0.4c-0.3-0.2-0.7-0.2-1-0.5
		c-0.3-0.3-0.6-0.9-0.8-1.5c-0.2-0.6-0.3-0.8-0.3-0.8s0.1-0.1,0.1-0.1c0.1,0,0.1,0.2,0.1,0.2c0,0,0.1,0.1,0.1,0.2
		c0.1,0.1,0.3,0.3,0.4,0.5c0-0.2-0.1-0.4-0.1-0.4s0.4,0.3,0.8,0.6c0.4,0.3,0.5,0.4,0.6,0.6c0.1,0.2,0.4,0.7,0.5,0.8
		c0.1,0.1,1.8,0.7,1.8,0.7l0.8,0.6l0.4,0.9l-0.3,0.5l-0.6,0.1l-1-0.4L10.4,25.1L10.4,25.1z"/>
</g>
<g>
	<defs>
		<circle id="SVGID_39_" cx="16" cy="16" r="14.2"/>
	</defs>
	<clipPath id="SVGID_40_">
		<use xlink:href="#SVGID_39_"  style="overflow:visible;"/>
	</clipPath>
	<path class="st22" d="M8.3,22.1c0,0,0.2,0.3,0.7,0.6c0.4,0.3,1.1,0.5,1.7,0.6c0.4,0.1,0.7,0.2,1,0.2c0.9,0,1.4-0.2,2.2-0.3
		c0.4,0,0.9-0.1,1.4-0.2c0.6-0.2,1-0.3,1.6-0.6c0.4-0.2,0.7-0.3,1-0.5c0.4-0.2,0.7-0.5,1-0.6c0,0.1-0.1,0.3-0.4,0.5
		c0.2,0,0.4,0,0.4,0s-0.2,0.1-0.6,0.4c-0.3,0.2-0.6,0.5-0.9,0.7c-0.2,0.1-0.5,0.2-0.6,0.3c-0.4,0.2-0.5,0.3-0.8,0.6
		c0.1,0,0.1,0,0.1,0s-0.3,0-0.5,0.2c0,0-0.1,0-0.3,0c-0.1,0-0.3,0.1-0.4,0.2c-0.2,0.1-0.3,0-0.3,0l0,0.1c0,0-0.3,0-0.4,0
		c0,0,0,0,0,0s0,0,0,0c0,0-0.1,0-0.2,0.1c0,0-0.1,0-0.1,0c0,0,0.1,0.2,0.2,0.3c0,0-0.6,0.4-0.6,0.4s0,0,0,0.1c0,0.1,0,0.1,0,0.2
		c0,0.1,0.1,0.1,0.1,0.1s-0.1,0-0.2,0c-0.1,0-0.2,0.1-0.4,0.1c0,0-0.1,0-0.2,0c0,0.1,0.1,0.3-0.1,0.5c-0.2,0.2-0.3,0.3-0.3,0.4
		c0,0,0,0-0.1-0.1c-0.1,0-0.2-0.1-0.2-0.1c0,0,0,0.1-0.1,0.2c-0.1,0.2-0.2,0.3-0.2,0.4c-0.1-0.1-0.2-0.2-0.4-0.2
		c-0.2,0-0.3,0.3-0.3,0.3c0,0,0-0.1,0,0c0,0.1-0.1,0.6-0.6,1.1c0-0.1,0-0.4,0-0.4c0,0-0.1,0.1-0.5,0.3c-0.3,0.2-0.3,0.3-0.3,0.3
		s0-0.2,0.2-0.5c0.2-0.3,0.3-0.4,0.3-0.4c0,0,0,0,0-0.1c0,0-0.1-0.1-0.1-0.1c0,0,0.3-0.2,0.3-0.4c0-0.3-0.1-0.4-0.2-0.5
		c0,0,0.1-0.1,0.1-0.1c0,0-0.2-0.1-0.2-0.2c0,0,0-0.1,0-0.1c0-0.1,0-0.1,0-0.1c0-0.1-0.1-0.2-0.1-0.2c0,0,0.1,0,0.1,0
		s-0.1-0.2-0.1-0.2c0-0.1-0.1-0.3-0.1-0.3c0,0,0.1,0,0.1,0c0,0-0.1-0.1,0-0.1c0,0,0.1,0,0.1,0.1c0-0.1-0.1-0.2-0.2-0.3
		c0,0,0.2-0.1,0.4,0c0.1,0.1,0.2,0.2,0.2,0.2s0.1,0.1,0.2,0.2c0.2,0.1,0.3,0.3,0.6,0.4c0.1,0,0.2,0,0.4,0c0.1,0,0.1,0,0.2-0.1
		c0,0,0.1,0,0.1,0s0-0.1-0.1-0.2c0,0,0.1,0,0.1,0s0-0.1-0.1-0.2c0,0,0.1,0,0.1-0.1c0,0-0.1-0.1-0.1-0.1c0,0,0.1-0.1,0.1-0.1
		c0,0-0.1-0.2-0.2-0.2c0,0,0.1-0.1,0.1-0.1s-0.2-0.1-0.3-0.1c-0.1,0-0.2-0.1-0.2-0.2c-0.1,0-0.2,0-0.2-0.1c0,0,0.1,0,0.2,0
		c0,0,0.1,0,0.1,0c0,0,0-0.1,0.1-0.1c0.1,0,0.1,0,0.1,0s-0.1,0-0.2-0.1s-0.2-0.2-0.2-0.2c-0.1,0-0.2,0-0.2,0c-0.1,0-0.1-0.1-0.1-0.1
		s-0.3,0-1-0.4C9.3,23.2,9,22.9,9,22.9s-0.1,0-0.2-0.1C8.6,22.7,8.3,22.5,8.3,22.1L8.3,22.1z"/>
</g>
<g>
	<defs>
		<circle id="SVGID_41_" cx="16" cy="16" r="14.2"/>
	</defs>
	<clipPath id="SVGID_42_">
		<use xlink:href="#SVGID_41_"  style="overflow:visible;"/>
	</clipPath>
	<path class="st23" d="M17.2,7.6c0,0,0.1,0,0.1,0.1c0.1,0.1,0.2,0.4-0.1,0.6c0.1,0,0.1,0,0.2,0c-0.1,0.1-0.3,0.3-0.3,0.5
		c0,0.2,0.1,0.2,0.1,0.2s-0.2,0.2-0.2,0.5c0,0,0.1-0.1,0.2-0.2C17.6,9.2,17.8,9,18,8.9c0,0.1,0,0.1,0,0.1s0.3-0.3,0.6-0.1
		c0.1,0.1,0.1,0.2,0.1,0.2s0.2-0.1,0.3,0.1c0.1,0.1,0.3,0.4,0.4,0.5c0,0.1,0.1,0.2,0.2,0.3c0.1,0.2,0.2,0.4,0.3,0.7
		c0-0.1,0-0.3,0.4-0.2c0.4,0.1,0.8,0.4,1.1,0.9c0.3,0.5,0.4,1.1,0.6,1.3c0.2,0.2,0.4,0.6,0.4,0.7s-0.1,0.6,0.3,1.9
		c0.1-0.4,0.3-1.3,0.3-1.3l0.1-0.8l0.1-2.5l-2.6-2.1l-2-1.5l-1.3,0.1L17.2,7.6L17.2,7.6z"/>
</g>
<g>
	<defs>
		<circle id="SVGID_43_" cx="16" cy="16" r="14.2"/>
	</defs>
	<clipPath id="SVGID_44_">
		<use xlink:href="#SVGID_43_"  style="overflow:visible;"/>
	</clipPath>
	<path class="st24" d="M22,11.2c0,0,0-0.2-0.6-0.6c-0.6-0.4-1.1-0.4-1.5-0.7c-0.3-0.3-0.7-0.9-0.9-1.1C18.7,8.5,18.7,8,18.7,8
		l0.7-0.6l1.1-1.6l0.9-1l0.4,0.6l0.6,0.7l0.3,1.5L23,9.7L22,11.2L22,11.2z"/>
</g>
<g>
	<defs>
		<circle id="SVGID_45_" cx="16" cy="16" r="14.2"/>
	</defs>
	<clipPath id="SVGID_46_">
		<use xlink:href="#SVGID_45_"  style="overflow:visible;"/>
	</clipPath>
	<path class="st25" d="M22.8,13.8c0,0,0-0.5-0.1-1c-0.2-0.5-0.5-1.4-0.7-1.7c-0.1-0.4,0-0.4,0.1-0.4c0.1,0,0.3-0.2,0.5-0.7
		c0.1-0.5,0.6-0.5,0.6-0.5l0.3-0.2l0.4,1.1l0.4,0.9l0.1,0.7l0.1,0.6l-0.2,1.3l-1,0.9L22.8,13.8L22.8,13.8z"/>
</g>
<g>
	<defs>
		<circle id="SVGID_47_" cx="16" cy="16" r="14.2"/>
	</defs>
	<clipPath id="SVGID_48_">
		<use xlink:href="#SVGID_47_"  style="overflow:visible;"/>
	</clipPath>
	<path class="st26" d="M8.8,30.2c0,0-0.2-0.4-0.2-0.6c0-0.2,0.1-0.3,0.1-0.3s-0.1-0.1-0.2-0.2c0-0.1,0-0.2,0.1-0.3
		c0.1-0.1,0.2-0.2,0.2-0.2s0-0.1,0.1-0.1c0.1,0,0.2,0,0.2-0.1v-0.2c0,0,0,0,0.1,0c0,0,0-0.1,0-0.1c0,0,0.1,0,0.2,0
		c0.1,0,0.2,0.1,0.3,0.1c0.2,0,0.4-0.1,0.7-0.1c0.5,0.1,0.6,0.4,0.9,0.6c0.2,0.1,0.4,0.1,0.4,0.1h0.1c0,0,0.1-0.1,0.2-0.1
		c0.1,0,0.1,0.1,0.2,0.1c0.1,0,0.4-0.1,0.6,0c0.1,0,0.2,0.1,0.2,0.2c0,0.1,0,0.2-0.1,0.3c-0.2,0.1-0.3,0.3-0.3,0.4
		c0,0,0.1,0.1,0.1,0.1s-0.1,0.1-0.2,0.1c-0.1,0-0.1,0.1-0.2,0.1c-0.2,0-0.4,0-0.5,0.2c-0.1,0.2-0.6,0.1-0.6,0.1L8.8,30.2L8.8,30.2z"
		/>
</g>
<g>
	<defs>
		<circle id="SVGID_49_" cx="16" cy="16" r="14.2"/>
	</defs>
	<clipPath id="SVGID_50_">
		<use xlink:href="#SVGID_49_"  style="overflow:visible;"/>
	</clipPath>
	<path class="st27" d="M22,23.5c0,0,0.4-0.5,0.5-0.8c0.1-0.3-0.4-3.5-0.4-3.5l1.1-3.6l0-1.2c0,0,0.1-1.1,0.2-1.5
		c0.2,0.3,0.6,0.6,0.7,0.8c0-0.3,0.2-1,0.2-1.8c0.1,0.1,0.3,1.5,0.3,1.5l0.2,0.9l0.3,1l0.3,1.1l0.2,0.7l0.1,0.2l0.1,0.3l0.1,0.3
		l0.2,0.8l0.1,0.6l0.1,1.2c0,0,0,0.1,0.1,0.3c0,0.1,0,0.2,0,0.2c0,0,0,0.3,0,0.5c0,0.2,0,0.3-0.2,0.5s-0.2,1-0.2,1l-0.3-0.2
		c0,0,0.1-0.2-0.1-0.5c-0.1-0.2-0.4-0.3-0.5-0.2c-0.1,0-0.4,0.1-0.5,0.2c-0.1,0.1-0.3,0.3-0.5,0.4c-0.2,0.1-0.6,0.2-0.8,0.2
		c-0.2,0-0.4,0.2-0.7,0.4C22.3,23.4,22.1,23.5,22,23.5L22,23.5z"/>
</g>
<g>
	<defs>
		<circle id="SVGID_51_" cx="16" cy="16" r="14.2"/>
	</defs>
	<clipPath id="SVGID_52_">
		<use xlink:href="#SVGID_51_"  style="overflow:visible;"/>
	</clipPath>
	<path class="st28" d="M22,28.9c0,0,0.2,0.1,0.6,0.2c0.4,0.1,1.4,0.7,1.4,0.7l0.8,0.5l1,0.1l0.9-0.1c0,0,0-0.4,0-1.8
		c-0.1-1.4-0.1-1.6-0.1-1.7s0-1.9-0.1-2.3c0-0.4,0-0.8,0-1c0-0.2-0.1-1.2-0.2-1.4c-0.1-0.2-0.2-0.4-0.2-0.4c0,0-0.1,0.5-0.1,0.6
		s0,0.4,0,0.5c0,0,0,0,0-0.1c0,0.1-0.1,0.2-0.1,0.2c0,0,0-0.1,0-0.1c0,0,0,0,0-0.1c0-0.1,0-0.1,0-0.1s-0.1,0.1-0.1,0.4
		C25.6,23,25.6,23,25.6,23c0,0-0.1,0.1-0.1,0.2c0,0.1,0.1,0.1,0.1,0.2c0,0.1-0.1,0.3-0.1,0.5s0,0.4,0,0.5c0,0.1,0,0.2-0.1,0.3
		c0.1,0,0.1,0,0.1,0s0.1,0.4-0.1,0.7c-0.1,0.1-0.1,0.2-0.2,0.3c-0.2,0.2-0.3,0.4-0.3,0.5c0,0,0-0.1,0-0.1s-0.3,0.3-0.4,0.5
		c-0.1,0.2-0.3,0.2-0.4,0.3c-0.1,0.1-0.1,0.2,0,0.2c0,0-0.1,0-0.2,0.2c0,0.1-0.1,0.2-0.2,0.3c-0.1,0.1-0.3,0.1-0.3,0.1
		c0.1,0,0.1,0,0.1,0c0,0.1-0.2,0.2-0.4,0.3c-0.2,0.1-0.3,0.3-0.3,0.4c0,0.1-0.1,0.2-0.2,0.2c0,0,0.1,0.1,0.2,0.1
		c-0.1,0-0.1,0-0.3,0.2C22.1,28.8,22,28.8,22,28.9L22,28.9z"/>
</g>
<g>
	<defs>
		<circle id="SVGID_53_" cx="16" cy="16" r="14.2"/>
	</defs>
	<clipPath id="SVGID_54_">
		<use xlink:href="#SVGID_53_"  style="overflow:visible;"/>
	</clipPath>
	<path class="st29" d="M18.4,30.2c0,0,0.2-0.2,0.5-0.4c0.4-0.2,0.8-0.2,0.9-0.2c0.2,0,0.3-0.1,0.5-0.2c0,0.1,0,0.3-0.1,0.4
		c0.1,0,0.5-0.2,0.7-0.3c0.2-0.1,0.6-0.2,0.6-0.2c0,0,0.1-0.2,0.1-0.2c0,0,0.1,0,0.1,0c0.1,0,0.6-0.5,1.1-0.5c0.4,0,0.9,0.4,0.8,0.7
		c0.1-0.1,0.2-0.1,0.3-0.1c0,0,0,0.1,0,0.1s0.2-0.1,0.3,0c0.1,0.1,0,0.2,0.2,0.3c0.1,0.2,0.1,0.2,0.1,0.2c0.1,0,0.4,0.1,0.6,0.4
		c0.3,0.3-2.2,0.1-2.2,0.1l-4.6,0L18.4,30.2L18.4,30.2z"/>
</g>
<g>
	<defs>
		<circle id="SVGID_55_" cx="16" cy="16" r="14.2"/>
	</defs>
	<clipPath id="SVGID_56_">
		<use xlink:href="#SVGID_55_"  style="overflow:visible;"/>
	</clipPath>
	<path class="st30" d="M25.6,20c0,0-0.1,0.4-0.2,0.7c-0.1,0.3-0.3,0.6-0.3,0.6s0-0.1,0-0.2c-0.2,0.1-0.6,0.3-0.7,0.5
		c-0.1,0.1-0.3,0.3-0.4,0.4c0.1-0.3,0.2-0.6,0.3-0.8c-0.2,0.1-1,0.8-1.4,1.2l-1.3,1.1c0,0-0.2,0.1-0.5,0.2c-0.2,0.1-0.5,0.2-0.7,0.3
		c0.1-0.1,0.1-0.3,0.3-0.4c0.1-0.1,0.5-0.5,0.6-0.7c0.1-0.2,0.1-0.3,0-0.5c-0.1,0-0.2,0-0.3,0.1c-0.1,0-0.2,0.1-0.2,0.1
		s0.1-0.4,0.2-0.9c-0.1,0-0.3,0-0.3,0s0.3-0.5,0.8-0.9c-0.1,0-0.3,0.1-0.5,0.1c-0.3,0.1-0.6,0.3-0.9,0.4c0.1-0.2,1.1-1.6,1.7-2.9
		c0.6-1.3,0.8-1.6,0.9-2.3c0.1-0.3,0-0.8,0.1-1.3c0-0.4,0.1-0.9,0-1.1c0.2,0.2,0.7,0.7,0.7,1.9c0,1.2-0.5,2.8-1.1,3.6
		c0.1,0,0.5,0.1,0.9-0.6c0.4-0.7,0.4-0.9,0.5-1.1c0,0.1,0,0.2,0,0.2s0.6-0.7,0.8-1.5c0.1,0.4,0.2,0.7,0,1.4
		c-0.2,0.6-0.5,0.8-0.5,0.8s0.1,0,0.4-0.2c0,0.1,0,0.2,0.1,0.2c0.1,0,0.1,0.1,0.2,0.2c0.1-0.1,0.2-0.2,0.2-0.3c0,0.2,0,1,0,1.5
		c0.2,0,0.4,0,0.5-0.4c-0.1,0.3-0.1,0.5,0,0.8C25.5,20.1,25.6,20,25.6,20L25.6,20z"/>
</g>
<g>
	<defs>
		<circle id="SVGID_57_" cx="16" cy="16" r="14.2"/>
	</defs>
	<clipPath id="SVGID_58_">
		<use xlink:href="#SVGID_57_"  style="overflow:visible;"/>
	</clipPath>
	<path class="st31" d="M19.3,6.6c0,0-0.2,0.1-0.5,0.1c-0.3,0-0.2-0.1-0.6-0.1c-0.7,0-3,0.4-3.4,0.4c-0.3,0,0.9,0.1,0.9,0.1l3,0
		l0.6,0l0.2-0.4L19.3,6.6z"/>
</g>
<g>
	<defs>
		<circle id="SVGID_59_" cx="16" cy="16" r="14.2"/>
	</defs>
	<clipPath id="SVGID_60_">
		<use xlink:href="#SVGID_59_"  style="overflow:visible;"/>
	</clipPath>
	<path class="st32" d="M11.6,12.4c0,0-0.4,0.3-0.5,0.5c-0.2,0.2-0.2,0.4-0.4,0.5c0.1,0,0.1,0,0.1,0s0,0,0,0.1c0.1,0,0.1,0,0.1,0
		c-0.1,0-0.2,0.2-0.1,0.3c0.1,0.1,0.3,0.1,0.3,0.1s0,0.1,0.1,0.1c0.4,0,0.8-0.2,1-0.1c0.2,0,0.3,0.1,0.4,0.3
		c0.1,0.2,0.3,0.3,0.3,0.3s0.1-0.2,0.1-0.5c0.1-0.3,0.1-0.5,0.1-0.5l-0.1-0.9l-0.6-0.7l-0.7,0.4L11.6,12.4L11.6,12.4z"/>
</g>
<g>
	<defs>
		<circle id="SVGID_61_" cx="16" cy="16" r="14.2"/>
	</defs>
	<clipPath id="SVGID_62_">
		<use xlink:href="#SVGID_61_"  style="overflow:visible;"/>
	</clipPath>
	<path class="st33" d="M12.3,12.3c0,0,0.1,0.1,0.3,0.1c0,0.1,0,0.1,0,0.1c0,0,0,0.1,0,0.1s0,0,0.1,0c0,0.1,0,0.1,0,0.2
		c0,0.1,0,0.1,0,0.1s0,0,0,0c0,0,0,0.1,0.2,0.2c0,0,0,0,0,0s0,0,0,0.1c0,0,0,0,0,0s0,0.4,0.1,0.6c0,0,0,0,0,0c0,0,0,0.1,0,0.2
		c0,0.1,0,0.2,0,0.2S13,14,13.1,14c0.1,0,0.2-0.1,0.3-0.3c0.1-0.2,0.1-0.3,0.1-0.3s0,0.1,0,0.1c0,0.1,0.1,0,0.1,0l0-0.3l0.1-0.6
		l0.1-0.4l0.6-1l1.1-0.9l1,0.2l0.8-1.1l-1.4-0.9l-1.4,0.1l-1.2,1.7l-1,1.6L12.3,12.3L12.3,12.3z"/>
</g>
<g>
	<defs>
		<circle id="SVGID_63_" cx="16" cy="16" r="14.2"/>
	</defs>
	<clipPath id="SVGID_64_">
		<use xlink:href="#SVGID_63_"  style="overflow:visible;"/>
	</clipPath>
	<path class="st34" d="M19.4,9.8c0,0-0.1,0-0.3,0.1c-0.2,0.1-0.4,0.2-0.5,0.4c-0.1,0.2-0.1,0.3-0.1,0.3s0.2-0.1,0.3-0.1
		c0.1,0,0.2,0,0.2,0c0,0,0,0.1,0,0.1s0.2,0,0.2,0.1c0,0.1,0,0.2-0.1,0.2c0,0-0.2,0.1-0.2,0.2c0,0.1,0,0.1,0,0.2
		c0,0.1-0.1,0.3-0.4,0.6c-0.3,0.3-0.4,0.5-0.4,0.5S18,12.2,17.9,12c0,0-0.3,0.2-0.3,0.2L17,10.1l0-0.1c0,0,0.1-0.1,0.1-0.2
		c-0.1,0-0.1-0.1-0.2-0.2c-0.1-0.1-0.2-0.3-0.4-0.3c0-0.1-0.1-0.1-0.2-0.2C16.1,9.1,16,9,16,9s0.1,0,0.1-0.1c-0.1,0-0.2,0-0.4,0
		c-0.2,0-0.2,0-0.3,0c-0.1,0-0.2,0.1-0.3-0.1c-0.1,0-0.2,0-0.3,0.1c-0.1,0.1-0.1,0.3-0.3,0.3c0,0,0,0.1-0.1,0.2
		c-0.1,0.1-0.1,0.2-0.3,0.3c-0.2,0.2-0.2,0.6-0.4,0.8c-0.3,0.3,0-0.7,0-0.7l0.5-1.1l1.3-1.3l2-0.1l0.2,1.1l1,0.3L19.4,9.8L19.4,9.8z
		"/>
</g>
<g>
	<defs>
		<circle id="SVGID_65_" cx="16" cy="16" r="14.2"/>
	</defs>
	<clipPath id="SVGID_66_">
		<use xlink:href="#SVGID_65_"  style="overflow:visible;"/>
	</clipPath>
	<path class="st35" d="M19.8,10l-0.9-1.2l-0.6-0.5c0,0-0.4-0.8-0.5-0.8c0,0-0.4-0.1-0.7-0.1l0,0.1c0,0,0.1,0,0.1,0.1
		c0.1,0.1,0.2,0.4-0.1,0.6c0.1,0,0.1,0,0.2,0c-0.1,0.1-0.3,0.3-0.3,0.5c0,0.2,0.1,0.2,0.1,0.2s-0.2,0.2-0.2,0.5c0,0,0.1-0.1,0.2-0.2
		C17.6,9.2,17.8,9,18,8.9c0,0.1,0,0.1,0,0.1s0.3-0.3,0.6-0.1c0.1,0.1,0.1,0.2,0.1,0.2s0.2-0.1,0.3,0.1c0.1,0.1,0.3,0.4,0.4,0.5
		c0,0.1,0.1,0.2,0.2,0.3c0.1,0.2,0.2,0.4,0.3,0.7c0-0.1,0-0.2,0.2-0.2L19.8,10z"/>
</g>
<g>
	<defs>
		<circle id="SVGID_67_" cx="16" cy="16" r="14.2"/>
	</defs>
	<clipPath id="SVGID_68_">
		<use xlink:href="#SVGID_67_"  style="overflow:visible;"/>
	</clipPath>
	<path class="st36" d="M6.9,13.5c0,0-0.1-0.2,0-0.4c0.1-0.3,0.2-0.4,0.2-0.9c0-0.4,0.3-1,0.3-1l0.8-0.4l0.6,0.2l0.2,0.7l-0.7,0.4
		c0,0,0,0.2-0.2,0.3c-0.2,0.1-0.5,0.2-0.5,0.4c-0.1,0.1-0.1,0.3-0.1,0.3s-0.2,0-0.3,0.1C6.9,13.3,6.9,13.4,6.9,13.5L6.9,13.5z"/>
</g>
<g>
	<defs>
		<circle id="SVGID_69_" cx="16" cy="16" r="14.2"/>
	</defs>
	<clipPath id="SVGID_70_">
		<use xlink:href="#SVGID_69_"  style="overflow:visible;"/>
	</clipPath>
	<path class="st37" d="M8.5,13.3c0,0-0.1,0-0.1,0.1c0-0.1-0.2-0.5-0.2-1c0-0.4,0-0.5,0.1-0.7c0.1-0.1,0.5-0.3,0.4-0.6
		C8.6,11.1,8.4,11,8.1,11c-0.2,0-0.3,0.5-0.5,0.7c-0.2,0.2-0.3,0.1-0.4,0.2c-0.1,0.1,0,0.2,0,0.3c0,0-0.1,0.2-0.2,0.3
		c-0.2,0.3-0.6,0.8-0.6,1.2c0-0.2,0-0.2,0.1-0.5l0-0.1l0.2-0.8l0.2-0.6l0.3-1.1l0.6-1.1l0.6-0.7l0.6,0l0.1,0.9l0.4,1.7l0.7,0.9
		L9,13.3L8.5,13.3L8.5,13.3z"/>
</g>
<g>
	<defs>
		<circle id="SVGID_71_" cx="16" cy="16" r="14.2"/>
	</defs>
	<clipPath id="SVGID_72_">
		<use xlink:href="#SVGID_71_"  style="overflow:visible;"/>
	</clipPath>
	<path class="st38" d="M8.9,13.7c0,0-0.1,0-0.1,0c0,0-0.1,0-0.1-0.1c0,0,0.1-0.1,0.1-0.1c0,0,0-0.1-0.1-0.1c-0.1,0-0.1,0-0.1,0
		s-0.1,0-0.1,0c0,0,0.1,0,0.1,0s-0.1,0-0.2-0.1c0.1,0,0.2-0.1,0.3-0.1s0.1,0,0.1-0.1c0,0-0.1-0.1-0.1-0.1c0,0,0-0.1,0-0.2
		c-0.1-0.1,0-0.2,0-0.2c0,0,0.1-0.1,0.1-0.1c0,0,0.1-0.1,0.1-0.1c0,0,0.1,0,0.2-0.1c0.1,0,0.2-0.1,0.2,0c0.1,0,0,0.1,0,0.1
		s0.2-0.1,0.3,0c0.2,0.1,0.5,0.1,0.5,0.1l0.1,0.3l-0.9,0.7L8.9,13.7L8.9,13.7z"/>
</g>
<g>
	<defs>
		<circle id="SVGID_73_" cx="16" cy="16" r="14.2"/>
	</defs>
	<clipPath id="SVGID_74_">
		<use xlink:href="#SVGID_73_"  style="overflow:visible;"/>
	</clipPath>
	<path class="st39" d="M10.1,12.5c0,0-0.3,0.2-0.3,0.2c0,0,0.1,0,0.1,0.1c0,0-0.2,0.2-0.3,0.3c-0.1,0.1-0.2,0.3-0.2,0.3
		c0,0.1-0.3,0.3-0.4,0.3c0.2,0,0.6-0.2,0.8-0.2c0,0.1,0,0.2,0.1,0.2c0.1,0,0.3,0.1,0.7-0.2c0.3-0.2,0.2-0.3,0.4-0.4
		c0.3-0.2,0.4-0.3,0.5-0.4c0.1-0.1,0.2-0.1,0.2-0.1s0-0.1,0-0.1c0,0,0.1,0,0.1,0s0.3-0.2,0.6-0.2c0,0,0,0,0,0s0,0,0,0c0,0,0,0,0,0
		c0,0,0,0.1,0.1,0.1c0.1,0,0.2-0.3,0.2-0.3l0.2-0.7v-0.6l-0.2,0L11,11.3l-0.9,0.9L10.1,12.5L10.1,12.5z"/>
</g>
<g>
	<defs>
		<circle id="SVGID_75_" cx="16" cy="16" r="14.2"/>
	</defs>
	<clipPath id="SVGID_76_">
		<use xlink:href="#SVGID_75_"  style="overflow:visible;"/>
	</clipPath>
	<path class="st40" d="M14.2,9.3c0,0,0.1,0,0.2-0.1c0,0.1,0,0.2-0.2,0.3c-0.1,0.2-0.1,0.2-0.2,0.4c-0.1,0.2-0.1,0.5-0.2,0.6
		c0.1,0,0.1,0,0.1,0s-0.1,0.1-0.1,0.2s-0.1,0.3-0.3,0.4c-0.2,0.1-0.4,0.2-0.7,0.5c-0.2,0.3-0.5,0.6-0.6,0.7c0.1-0.1,0.2-0.3,0.2-0.5
		c0-0.2,0-0.3,0-0.5s0-0.3,0.2-0.7c0.2-0.3,0.5-1.6,0.5-1.6L14,8.8L14.2,9.3L14.2,9.3z"/>
</g>
<g>
	<defs>
		<circle id="SVGID_77_" cx="16" cy="16" r="14.2"/>
	</defs>
	<clipPath id="SVGID_78_">
		<use xlink:href="#SVGID_77_"  style="overflow:visible;"/>
	</clipPath>
	<path class="st41" d="M13.7,8.9c0,0-0.2,0.3-0.3,0.6c-0.1,0.3,0,0.3,0,0.4s0,0.3,0,0.3s0.1-0.2,0.3-0.3s0.4-0.2,0.5-0.3
		c0.1-0.1,0.2-0.3,0.4-0.4c-0.1,0-0.2-0.1-0.2,0c0.1-0.1,0.4-0.3,0.6-0.4c0.3-0.2,0.3-0.3,0.7-0.5c-0.1,0-0.2,0-0.3,0
		c0-0.1,0.2-0.2,0.4-0.3c0.2-0.2-0.1-0.4-0.1-0.4l-1.3,0.8L13.7,8.9L13.7,8.9z"/>
</g>
<g>
	<defs>
		<circle id="SVGID_79_" cx="16" cy="16" r="14.2"/>
	</defs>
	<clipPath id="SVGID_80_">
		<use xlink:href="#SVGID_79_"  style="overflow:visible;"/>
	</clipPath>
	<path class="st42" d="M10.2,8.3l0-0.2l0.4-0.6l0.4-1V5l0-0.8L11,3.7l0-0.2l0-0.1l0.3,0.2l0.4,0.6l0,1.1l-0.4,1.8l-1.2,1.3L10.2,8.3
		z"/>
</g>
<g>
	<defs>
		<circle id="SVGID_81_" cx="16" cy="16" r="14.2"/>
	</defs>
	<clipPath id="SVGID_82_">
		<use xlink:href="#SVGID_81_"  style="overflow:visible;"/>
	</clipPath>
	<path class="st43" d="M11.2,3.4c0,0-0.2,0-0.2,0.8s-0.1,1.2-0.1,1.6c0,0.4-0.1,0.6-0.1,0.9c0,0.2-0.1,0.6-0.2,0.7
		c0,0.1-0.2,0.4-0.4,0.6C9.9,8.2,9.5,8.4,9.4,8.4c-0.1,0-0.6,0.1-0.9,0.2c-0.1,0-0.2,0.1-0.4,0.2c-0.3,0.3-0.7,0.7-1,1.3
		c-0.4,0.9-0.9,3.3-0.9,3.3l0.1-0.2c0,0,0-0.2,0.2-0.6c0.2-0.4,0.2-0.8,0.4-1.5c0.1-0.3,0.3-0.6,0.4-0.9C7.8,9.7,8.2,9.2,8.5,9
		c0.6-0.4,1.2-0.5,1.2-0.5l0.7-0.4c0,0,0.1-0.2,0.3-0.5c0.2-0.4,0.5-0.8,0.5-1.3C11.2,5.5,11,4.9,11,4.4C11,3.9,11,3.5,11.2,3.4
		C11.2,3.3,11.2,3.4,11.2,3.4L11.2,3.4z"/>
</g>
<g>
	<defs>
		<circle id="SVGID_83_" cx="16" cy="16" r="14.2"/>
	</defs>
	<clipPath id="SVGID_84_">
		<use xlink:href="#SVGID_83_"  style="overflow:visible;"/>
	</clipPath>
	<path class="st44" d="M11.2,7.2c0,0,0.3-0.7,0.4-1.3c0-0.1,0.1-0.3,0.1-0.4c0.1-0.6,0.1-0.8,0-1.2c-0.1-0.2-0.3-0.5-0.4-0.6
		c-0.1-0.2-0.2-0.2-0.2-0.3s0.1-0.1,0.2-0.1c0.1,0,0.3,0,0.5,0.2c0.2,0.2,0.3,0.9,0.3,0.9l0.2,1l0.4,1.2L11.2,7.2L11.2,7.2z"/>
</g>
<g>
	<defs>
		<circle id="SVGID_85_" cx="16" cy="16" r="14.2"/>
	</defs>
	<clipPath id="SVGID_86_">
		<use xlink:href="#SVGID_85_"  style="overflow:visible;"/>
	</clipPath>
	<path class="st45" d="M13.9,6.4c0,0-0.1,0-0.2,0c0,0,0,0.1-0.1,0.2c-0.1,0-1.1,0-1.1,0S12.1,6.6,12,6c-0.1-0.4,0.1-0.9,0-1.3
		c-0.1-0.5-0.2-0.6-0.2-0.8c0-0.2,0-0.2,0-0.3c-0.1,0-0.1,0-0.1,0c0,0,0-0.1,0-0.2c0,0,0.2,0,0.5,0.3C12.2,3.9,12.2,4,12.3,4
		c0,0,0.3,0.3,0.5,0.5s0.4,1.1,0.4,1.2c0,0.1,0.1,0.1,0.1,0.2C13.4,6.1,13.6,6.4,13.9,6.4L13.9,6.4z"/>
</g>
<g>
	<defs>
		<circle id="SVGID_87_" cx="16" cy="16" r="14.2"/>
	</defs>
	<clipPath id="SVGID_88_">
		<use xlink:href="#SVGID_87_"  style="overflow:visible;"/>
	</clipPath>
	<path class="st46" d="M12.3,4c0.1,0.1,0.3,0.4,0.4,0.7c0.1,0.3,0.2,0.6,0.4,0.8c-0.1-0.3-0.3-0.8-0.4-1C12.6,4.3,12.4,4.1,12.3,4
		L12.3,4z"/>
</g>
<g>
	<defs>
		<circle id="SVGID_89_" cx="16" cy="16" r="14.2"/>
	</defs>
	<clipPath id="SVGID_90_">
		<use xlink:href="#SVGID_89_"  style="overflow:visible;"/>
	</clipPath>
	<path class="st47" d="M10.7,8c0,0-0.2,0.1-0.7,0.3C9.8,8.4,9.7,8.4,9.5,8.5C9.2,8.7,8.8,8.8,8.5,8.9c0,0,0,0,0,0s0,0.1,0.1,0.2
		c0,0-0.5,0.4-0.4,1.5c0.1,0,0.2-0.1,0.2-0.1c0,0,0,0.1,0.1,0.1c0,0,0.2,0,0.3-0.2c0,0.1-0.1,0.7,0.3,1.2c0.1-0.1,0.3-0.4,0.3-0.4
		l0-0.1c0,0,0-0.3,0.1-0.6C9.6,10.2,9.8,10,9.8,10l1-1.5L10.7,8L10.7,8z"/>
</g>
<g>
	<defs>
		<circle id="SVGID_91_" cx="16" cy="16" r="14.2"/>
	</defs>
	<clipPath id="SVGID_92_">
		<use xlink:href="#SVGID_91_"  style="overflow:visible;"/>
	</clipPath>
	<path class="st48" d="M9.7,10.2c0,0-0.1,0.1-0.2,0.1c0-0.1,0-0.3,0.1-0.5c0.2-0.2,0.5-0.6,0.6-0.8c0.1-0.2,0-0.6,0.6-1.1
		s0.8-0.7,0.8-0.7l0.9-0.5l1.2,0.5l-0.6,2.3l-0.4,1.1L11,10.1L9.7,10.2L9.7,10.2z"/>
</g>
<g>
	<defs>
		<circle id="SVGID_93_" cx="16" cy="16" r="14.2"/>
	</defs>
	<clipPath id="SVGID_94_">
		<use xlink:href="#SVGID_93_"  style="overflow:visible;"/>
	</clipPath>
	<path class="st49" d="M10.4,9.6l0.2-0.3V9.1c0,0,0.2-0.1,0.5-0.3C11.4,8.5,11.7,8,12,8c0.3,0,0.4,0.7,0.4,0.9
		c0,0.2,0.1,0.6,0.1,0.8c0.1,0.2-0.8,1.1-0.8,1.1l-0.6,0.4L10.4,9.6z"/>
</g>
<g>
	<defs>
		<circle id="SVGID_95_" cx="16" cy="16" r="14.2"/>
	</defs>
	<clipPath id="SVGID_96_">
		<use xlink:href="#SVGID_95_"  style="overflow:visible;"/>
	</clipPath>
	<path class="st50" d="M11,11.9c0,0,0.2-0.3,0-0.3c0.1-0.2,0.2-0.4,0.2-0.4s0.1-0.3,0.4-0.6c0.3-0.3,0.5-0.5,0.6-0.7
		c0.1-0.2,0.1-0.4,0.1-0.4s0.1,0.1,0.1,0.1c0.1,0,0.3,0.2,0.3,0.7s-0.2,0.6-0.2,0.6s-0.2,0.2-0.3,0.2c-0.1,0.1-0.2,0.2-0.3,0.2
		c0,0,0.1,0,0.1,0s-0.2,0-0.3,0.1c-0.1,0.1-0.3,0.4-0.4,0.5C11.2,11.8,11,11.9,11,11.9L11,11.9z"/>
</g>
<g>
	<defs>
		<circle id="SVGID_97_" cx="16" cy="16" r="14.2"/>
	</defs>
	<clipPath id="SVGID_98_">
		<use xlink:href="#SVGID_97_"  style="overflow:visible;"/>
	</clipPath>
	<path class="st51" d="M19.1,7.1c0,0-0.4-0.2-0.9-0.2c-0.5,0-1.3,0-2,0c-0.8,0-1.5-0.3-2.5-0.3c-0.2-0.1-0.6-0.5-1.9,0.4
		c0.1,0,0.9-0.2,1.2,0.2c0.3,0.4,0.2,1,0.2,1.2c-0.1,0.3-0.3,0.8-0.4,1.2c-0.1,0.3-0.1,0.5-0.2,0.8c-0.1,0.2-0.2,0.4-0.1,0.6
		c0.1-0.1,0.2-0.1,0.4-0.6c0.2-0.5,0.2-0.8,0.5-1.2c0.3-0.4,0.9-1,1.1-1.1c0.2-0.1,1.9-1,3.7-0.2C18.8,7.9,19.1,7.1,19.1,7.1
		L19.1,7.1z"/>
</g>
<g>
	<defs>
		<circle id="SVGID_99_" cx="16" cy="16" r="14.2"/>
	</defs>
	<clipPath id="SVGID_100_">
		<use xlink:href="#SVGID_99_"  style="overflow:visible;"/>
	</clipPath>
	<path class="st52" d="M12.6,6.8C12.6,6.8,12.6,6.8,12.6,6.8c0-0.1-0.1-0.2-0.1-0.2s-0.4-0.1-0.6-0.1c-0.4,0-0.7,0.5-0.9,0.8
		c-0.2,0.2-0.4,0.6-0.6,0.8c0,0,0-0.1,0-0.1s0,0,0,0s0,0,0,0l0,0c0,0,0.3-0.2,0.8-0.6c0.5-0.4,0.9-0.7,1.1-0.8
		C12.4,6.8,12.6,6.8,12.6,6.8L12.6,6.8z"/>
</g>
<g>
	<defs>
		<circle id="SVGID_101_" cx="16" cy="16" r="14.2"/>
	</defs>
	<clipPath id="SVGID_102_">
		<use xlink:href="#SVGID_101_"  style="overflow:visible;"/>
	</clipPath>
	<path class="st53" d="M20.9,5c0,0-0.1,0.1-0.2,0.2c-0.2,0.2-0.5,0.5-0.7,0.8c-0.2,0.3-0.5,0.4-0.8,0.8c-0.3,0.3-0.6,0.7-0.7,0.8
		c-0.1,0.1-0.1,0.3-0.1,0.4c0,0-0.1-0.1-0.1-0.1s0,0,0.1,0.1c0.1,0.1,0.2,0.2,0.2,0.3c0.1,0.1,0.1,0.2,0.1,0.3c0,0,0.2,0,0.4-0.3
		s0.5-0.8,0.5-0.8l0.5-0.7L20.4,6l0.4-0.7L20.9,5L20.9,5z"/>
</g>
<g>
	<defs>
		<circle id="SVGID_103_" cx="16" cy="16" r="14.2"/>
	</defs>
	<clipPath id="SVGID_104_">
		<use xlink:href="#SVGID_103_"  style="overflow:visible;"/>
	</clipPath>
	<path class="st54" d="M21.4,4.5c0,0-0.3,0.2-0.4,0.4c-0.1,0.1-0.4,0.5-0.4,0.5l0.1,0l0.5-0.4l0.2-0.3L21.4,4.5L21.4,4.5z"/>
</g>
<g>
	<defs>
		<circle id="SVGID_105_" cx="16" cy="16" r="14.2"/>
	</defs>
	<clipPath id="SVGID_106_">
		<use xlink:href="#SVGID_105_"  style="overflow:visible;"/>
	</clipPath>
	<path class="st55" d="M21.3,23.8c0,0,0-0.2,0.1-0.3c0.1-0.1,0.4-0.3,0.7-0.9c0.3-0.7,0.3-0.8,0.3-0.8s-0.5,0.4-0.8,0.5
		c0.1-0.2,0.1-0.3,0.2-0.3c0,0-0.2-0.1-0.2-0.1c0.1-0.1,0.2-0.3,0.3-0.5c0.3-0.2,0.7-0.5,1.1-0.8c0.4-0.3,1.1-1,1.2-1.2
		c0.1,0.1,0.1,0.1,0.1,0.1s-0.4,0.5-0.5,0.8c-0.2,0.3-0.2,0.4-0.2,0.4l0.3-0.1c0,0,0.1,0.4-0.3,0.9c0.2-0.1,0.3,0,0.4-0.1
		c-0.2,0.1-0.4,0.3-0.7,0.7c-0.2,0.4-0.5,0.9-1.1,1.2C21.6,23.5,21.3,23.8,21.3,23.8L21.3,23.8z"/>
</g>
<g>
	<defs>
		<circle id="SVGID_107_" cx="16" cy="16" r="14.2"/>
	</defs>
	<clipPath id="SVGID_108_">
		<use xlink:href="#SVGID_107_"  style="overflow:visible;"/>
	</clipPath>
	<path class="st56" d="M20,7.4c0,0-0.2,0.4-0.2,0.7c0,0.1,0,0.1,0,0.2c0,0.3,0,0.6,0,0.8c0-0.1,0-0.1-0.1-0.1c0,0.1-0.1,0.4-0.2,0.5
		c0-0.1-0.1-0.3-0.1-0.7c0-0.3,0-0.4,0-0.4c0,0.1-0.1,0.2-0.1,0.3c0-0.1-0.1-0.2-0.1-0.2c0,0-0.1,0.1-0.1,0.2c0,0,0-0.1,0-0.2
		c0-0.1,0-0.3,0-0.3c0-0.1,0.1-0.3,0.3-0.6c0.3-0.3,0.5-0.8,0.6-1c0.1-0.2,0.4-0.9,0.4-0.9h0.3l-0.4,0.8c0,0-0.2,0.5-0.3,0.6
		c-0.1,0.2-0.4,0.6-0.5,0.8c0.1-0.1,0.1-0.2,0.2-0.3C19.8,7.7,20,7.4,20,7.4L20,7.4z"/>
</g>
<g>
	<defs>
		<circle id="SVGID_109_" cx="16" cy="16" r="14.2"/>
	</defs>
	<clipPath id="SVGID_110_">
		<use xlink:href="#SVGID_109_"  style="overflow:visible;"/>
	</clipPath>
	<path class="st57" d="M21.4,4.5c0,0,0,0.2-0.2,0.3c-0.2,0.2-0.5,0.4-0.6,0.6c-0.1,0.2-0.4,0.7-0.3,1.3c0-0.1,0.1-0.4,0.4-0.7
		c0.2-0.3,0.5-0.6,0.6-0.9c0.1-0.3,0.1-0.5,0.1-0.5l0-0.1L21.4,4.5L21.4,4.5L21.4,4.5z"/>
</g>
<g>
	<defs>
		<circle id="SVGID_111_" cx="16" cy="16" r="14.2"/>
	</defs>
	<clipPath id="SVGID_112_">
		<use xlink:href="#SVGID_111_"  style="overflow:visible;"/>
	</clipPath>
	<path class="st58" d="M26.3,20.6c0,0-0.1-0.3-0.1-0.5s0-0.3,0-0.6c-0.1-0.2-0.2-0.1-0.2-0.2c0,0,0-0.3,0-0.4c0-0.1,0-0.3,0-0.4
		c0,0-0.1-0.1-0.1-0.2c-0.1-0.2-0.1-0.3-0.1-0.3s-0.1-0.1-0.1-0.2c0-0.1,0.1-0.2,0.1-0.2c0-0.1-0.1,0-0.1,0c0,0,0.1-0.2,0-0.2
		c0,0-0.1,0.1-0.1,0.1c0,0-0.1-0.3-0.1-0.5c0-0.2-0.1-0.3-0.1-0.4c0-0.1-0.3-1-0.4-1.2c-0.1-0.2-0.1-0.5-0.2-0.6
		c0-0.1,0-0.3-0.1-0.3s0,0.1,0,0.1c0,0-0.1-0.4-0.1-0.5c0-0.1-0.1-0.3-0.1-0.4c0-0.2-0.1-0.6-0.1-0.9c0-0.3-0.1-0.4-0.1-0.5
		c0,0,0-0.2,0-0.5c0-0.3-0.1-0.7-0.2-0.9c-0.2-0.4-0.6-1.5-0.7-1.7c0-0.1,0.1,0,0.1,0s0.2,0.5,0.4,0.9c0.2,0.4,0.3,0.8,0.3,0.8
		c0,0,0.3,0.4,0.4,1.1s0.1,1.3,0.2,1.7c0,0.2,0.1,0.4,0.1,0.6c0.1,0.2,0.2,0.4,0.3,0.8c0.1,0.3,0.2,0.5,0.2,0.8
		c0.1,0.3,0.1,0.5,0.1,0.6c0,0.1,0.1,0.3,0.2,0.7c0.1,0.3,0.3,0.8,0.4,1c0.2,0.5,0.3,1,0.3,1.2C26.2,19.5,26.3,20.3,26.3,20.6
		L26.3,20.6z"/>
</g>
<g>
	<defs>
		<circle id="SVGID_113_" cx="16" cy="16" r="14.2"/>
	</defs>
	<clipPath id="SVGID_114_">
		<use xlink:href="#SVGID_113_"  style="overflow:visible;"/>
	</clipPath>
	<path class="st59" d="M21.4,4.4L21.4,4.4C21.4,4.5,21.4,4.5,21.4,4.4c0,0.1,0,0.2,0,0.3c0,0.1,0,0.2,0,0.2c0,0.1,0,0.2-0.1,0.6
		c0,0.1-0.1,0.2-0.1,0.2c-0.1,0.1-0.1,0.2-0.1,0.2c0.1,0,0.4-0.2,0.5-0.2c-0.1,0.1-0.3,0.2-0.4,0.3c0,0,0.1,0,0.3,0
		c0.3,0,0.6-0.1,0.8-0.1c0.3,0,0.2-0.3,0.2-0.3l-0.3-0.7L21.4,4.4L21.4,4.4L21.4,4.4z"/>
</g>
<g>
	<defs>
		<circle id="SVGID_115_" cx="16" cy="16" r="14.2"/>
	</defs>
	<clipPath id="SVGID_116_">
		<use xlink:href="#SVGID_115_"  style="overflow:visible;"/>
	</clipPath>
	<path class="st60" d="M23.1,9.9c0,0-0.3-0.3-0.4-1.2c-0.1-1-0.1-2.4-0.1-2.4l-0.2-0.6c0,0,0-0.4-0.2-0.5s-0.4-0.4-0.5-0.5
		c-0.1-0.1-0.2-0.3-0.3-0.3c0-0.1,0.2-0.4,0.8-0.4s0.8,0.3,0.9,0.5c0.1,0.1,0.4,0.7,0.5,1.7c0.1,1,0.1,1.1,0.1,1.5
		c0,0.2-0.1,0.7-0.2,1.2C23.4,9.2,23.3,9.7,23.1,9.9L23.1,9.9z"/>
</g>
<g>
	<defs>
		<circle id="SVGID_117_" cx="16" cy="16" r="14.2"/>
	</defs>
	<clipPath id="SVGID_118_">
		<use xlink:href="#SVGID_117_"  style="overflow:visible;"/>
	</clipPath>
	<path class="st61" d="M22.2,10.8c0,0,0.1,0,0.3-0.1c0.1,0,0.4,0,0.7-0.3c0,0.1,0.1,0.3-0.1,0.4c0.1-0.1,0.2-0.1,0.2-0.1
		c0,0.1,0.1,0.4-0.3,1c0.1-0.1,0.2-0.1,0.3-0.1c0,0.1,0.1,0.6-0.1,0.8c-0.1,0.2-0.3,0.1-0.3,0.1s0-0.1,0-0.1c0-0.1,0-0.1,0-0.2
		c0,0-0.1-0.1-0.3-0.2c-0.2-0.2-0.5-0.5-0.5-0.8c0-0.3,0.2-0.3,0.2-0.3s0,0-0.1-0.1C22.2,10.9,22.2,10.8,22.2,10.8L22.2,10.8z"/>
</g>
<g>
	<defs>
		<circle id="SVGID_119_" cx="16" cy="16" r="14.2"/>
	</defs>
	<clipPath id="SVGID_120_">
		<use xlink:href="#SVGID_119_"  style="overflow:visible;"/>
	</clipPath>
	<path class="st62" d="M20.3,7.7C20.3,7.7,20.3,7.7,20.3,7.7c-0.1,0-0.1-0.1,0-0.2c0-0.1,0.1-0.1,0.1-0.2c0,0.1-0.1,0.1-0.1,0.1
		s0.1-0.2,0.2-0.3c0.1-0.1,0.2-0.1,0.3-0.2C20.8,7,20.8,7,20.8,7c0,0,0.1-0.1,0.3-0.3c0,0,0.1-0.1,0.1-0.1c0,0,0.1-0.1,0.3-0.1
		c0.1-0.1,0.3-0.2,0.3-0.2c0.2-0.1,0.3-0.1,0.4-0.2c0.1,0,0.1-0.2,0.1-0.4c0.1,0,0.6,0.3,0.7,0.9c0.1,0.4-0.1,1.1-0.2,1.5
		c-0.1,0.3-0.1,0.6-0.2,0.7C22.5,9,22,9.3,21.9,9.5c-0.1,0.1-0.4,0.4-0.4,0.6c0,0.2,0.2,0.2,0.2,0.3c0,0,0,0.1,0.1,0
		c0.1,0,0.1-0.1,0.1-0.1c0,0,0,0,0.1,0s0,0,0,0s0,0.2-0.5,0.3c0,0-0.1,0-0.1,0c0.1,0,0.1,0,0.2-0.1c-0.1,0-0.3,0-0.3,0
		c0,0,0.1-0.1,0.1-0.1c0,0,0,0,0,0c0,0-0.1,0.1-0.2,0.1c-0.1,0.1-0.1,0.1-0.2,0.2c0-0.1,0-0.3,0.1-0.4c0,0-0.1,0.1-0.1,0.1
		c0,0,0-0.2,0-0.3c0-0.1,0.2-0.3,0.2-0.3l0.8-1.4l0.2-1L20.3,7.7L20.3,7.7z"/>
</g>
<g>
	<defs>
		<circle id="SVGID_121_" cx="16" cy="16" r="14.2"/>
	</defs>
	<clipPath id="SVGID_122_">
		<use xlink:href="#SVGID_121_"  style="overflow:visible;"/>
	</clipPath>
	<path class="st63" d="M20.3,7.8C20.3,7.8,20.2,7.8,20.3,7.8c0,0.1,0,0.2,0,0.2c0,0-0.1,0.1-0.1,0.1c0,0.1-0.1,0.1-0.1,0.2
		s0,0.3-0.1,0.4c0,0.1-0.1,0.1-0.1,0.2c-0.1,0.1-0.1,0.2-0.1,0.2c0,0.1,0,0.3,0,0.3s0.1-0.1,0.1-0.1c0,0.1-0.1,0.1-0.1,0.2
		c0,0,0.1-0.1,0.3-0.2c0.2-0.2,0.5-0.4,0.9-0.7c-0.1,0-0.2,0-0.3,0.1c0.1-0.1,0.6-0.7,0.9-0.8c0,0,0-0.1,0-0.1l-0.2,0l-0.5,0.1
		l-0.1-0.4L20.3,7.8L20.3,7.8z"/>
</g>
<g>
	<defs>
		<circle id="SVGID_123_" cx="16" cy="16" r="14.2"/>
	</defs>
	<clipPath id="SVGID_124_">
		<use xlink:href="#SVGID_123_"  style="overflow:visible;"/>
	</clipPath>
	<path class="st64" d="M21,9.9c0,0-0.1,0.1-0.1,0.2c0,0-0.1-0.1-0.1-0.2c-0.1-0.2-0.2-0.3-0.6-0.2c0-0.1,0-0.2,0-0.2
		c0.1,0,0.2-0.1,0.4-0.3c0.1-0.1,0.2-0.3,0.3-0.5c0,0,0.1-0.1,0.2-0.2c0.2-0.1,0.3-0.3,0.4-0.4c-0.1,0-0.2,0.1-0.5,0.1
		c0.1,0,0.2-0.1,0.2-0.3c0,0,0.1,0,0.1,0s0,0-0.1,0c0,0,0,0-0.1,0s0,0-0.1,0c0,0-0.1,0-0.1,0c0,0-0.2,0.1-0.2,0.1c0,0,0-0.1,0-0.1
		s-0.1,0-0.2,0c-0.2,0.1-0.3,0.2-0.5,0.2c0,0,0,0,0-0.1c0,0,0,0,0,0c0,0,0,0,0-0.1c0,0,0.1-0.2,0.2-0.3s0.1-0.3,0.1-0.3l0.4-0.2
		l1-0.2l0.7,0l-0.1,0.5l-0.4,0.8l-0.3,0.7l-0.4,0.5L21,9.9L21,9.9z"/>
</g>
<g>
	<defs>
		<circle id="SVGID_125_" cx="16" cy="16" r="14.2"/>
	</defs>
	<clipPath id="SVGID_126_">
		<use xlink:href="#SVGID_125_"  style="overflow:visible;"/>
	</clipPath>
	<path class="st65" d="M22.7,7.9c0,0-0.4,0.5-0.5,0.6c0.1-0.2,0.5-1.1,0.7-1.3c0,0-0.1,0,0-0.5c-0.1,0.2-0.1,0.3-0.2,0.4
		c-0.1,0.1-0.1,0-0.1,0c0,0,0-0.1,0-0.1S22.2,7,22,7c-0.2,0-0.7,0.1-1,0.2c-0.2,0.1-0.3,0.1-0.4,0.1c-0.1,0.1-0.1,0.1-0.2,0.1
		c0,0-0.2,0.1-0.2,0.1c0,0-0.1,0.1-0.1,0.1s0,0,0,0c0,0,0.1-0.1,0.2-0.1c0.1-0.1,0.3-0.2,0.4-0.2c0.3-0.1,0.5-0.1,0.6-0.1
		c0.2,0,0.4-0.1,0.6-0.1c0.2,0,0.4,0,0.5,0c0,0-0.1,0.1,0,0.2c0,0,0,0.1,0,0.1c-0.1,0.2-0.2,0.5-0.3,0.7c-0.1,0.2-0.2,0.4-0.3,0.5
		c-0.1,0.1-0.2,0.4-0.3,0.6c-0.1,0.2-0.2,0.3-0.2,0.3S21,9.9,21,10c0.1,0,0.4-0.1,0.6-0.4S22,9.1,22.2,9c0.2-0.2,0.3-0.4,0.4-0.6
		C22.7,8.1,22.6,8.1,22.7,7.9L22.7,7.9z"/>
</g>
<g>
	<defs>
		<circle id="SVGID_127_" cx="16" cy="16" r="14.2"/>
	</defs>
	<clipPath id="SVGID_128_">
		<use xlink:href="#SVGID_127_"  style="overflow:visible;"/>
	</clipPath>
	<path class="st66" d="M13.9,11.7c0,0-0.1,0.2-0.2,0.3c-0.1,0.1-0.3,0.2-0.4,0.4c0,0.2,0.2,0.3,0.2,0.3s-0.1,0.2-0.1,0.4
		c0,0.2,0,0.2,0,0.4c0,0,0,0,0,0s0,0.2,0.1,0.3c0.1,0.1,0.2,0.2,0.3,0.1c0,0,0,0.1,0,0.1s0.1-0.2,0.2-0.4c0.1-0.2,0.1-0.2,0.1-0.4
		c0-0.3,0.3-0.7,0.3-0.7l0.2-0.4l-0.3-0.2L13.9,11.7L13.9,11.7z"/>
</g>
<g>
	<defs>
		<circle id="SVGID_129_" cx="16" cy="16" r="14.2"/>
	</defs>
	<clipPath id="SVGID_130_">
		<use xlink:href="#SVGID_129_"  style="overflow:visible;"/>
	</clipPath>
	<path class="st67" d="M14.5,12.1c0,0-0.1,0.1-0.2,0.2c-0.1,0.1-0.1,0.2-0.3,0.2c-0.1,0-0.2,0-0.2,0.2c0,0.1,0.1,0.2,0.2,0.2
		c0.1,0.1,0.1,0.2,0.1,0.3c0,0,0.1,0,0.2-0.2c0.1-0.1,0.5-0.9,0.5-0.9L14.5,12.1L14.5,12.1z"/>
</g>
<g>
	<defs>
		<circle id="SVGID_131_" cx="16" cy="16" r="14.2"/>
	</defs>
	<clipPath id="SVGID_132_">
		<use xlink:href="#SVGID_131_"  style="overflow:visible;"/>
	</clipPath>
	<path class="st68" d="M16.2,10.2c0,0,0-0.1,0-0.2c0-0.1-0.3-0.1-0.4-0.2c-0.1-0.1-0.3-0.1-0.4-0.1c0,0,0.1-0.1,0-0.2
		c-0.1,0-0.3,0.1-0.3,0.1c-0.1,0-0.2,0.1-0.2,0.1c0,0-0.1,0.1-0.1,0.1c0,0,0-0.1-0.1,0c0,0-0.2,0.2-0.3,0.3c0,0.1-0.1,0.3-0.4,0.5
		c-0.2,0.2-0.4,0.4-0.3,0.5c0.1,0.1,0.1,0,0.1,0.1c0,0,0,0.1,0,0.2c0,0.1-0.1,0.2,0,0.3c0.2,0.1,0.3,0,0.4,0c0.1,0.1,0,0.3,0.1,0.3
		c0.2,0,0.3,0,0.3,0l0.6-0.3l0.6-0.3l0.3-0.6L16.2,10.2L16.2,10.2L16.2,10.2z"/>
</g>
<g>
	<defs>
		<circle id="SVGID_133_" cx="16" cy="16" r="14.2"/>
	</defs>
	<clipPath id="SVGID_134_">
		<use xlink:href="#SVGID_133_"  style="overflow:visible;"/>
	</clipPath>
	<path class="st69" d="M15.6,11.7c0,0-0.1-0.2,0-0.3s0.3-0.2,0.4-0.3c0,0-0.1,0-0.1,0s0.1-0.1,0.2-0.2c0,0-0.1-0.1-0.1-0.1
		c-0.1,0-0.2,0.1-0.3,0.1c-0.1,0-0.1-0.1-0.1-0.1s0.2,0,0.2-0.1c0-0.1,0-0.1,0-0.1s0.3-0.1,0.4-0.2c0.1-0.1,0.1-0.2,0.1-0.2
		c0,0,0.3-0.1,0.4-0.1c0.1,0.1,0,0.2,0,0.2s0.3-0.2,0.4-0.4c0.1,0,0.2-0.1,0.3-0.1c0.1,0,0.3,0.2,0.3,0.5c0,0.2,0.1,0.3,0,0.7
		c0,0.2,0,0.6,0,0.8c0,0.2,0.1,0.2,0.1,0.2s0,0.1-0.1,0.1c-0.1,0.1-0.1,0.2-0.1,0.3c0,0.1,0,0.1,0,0.1s-0.1,0.1-0.1,0.2
		c0,0.1-0.1,0.1-0.2,0.1c-0.1,0,0,0-0.1,0c-0.1,0-0.1,0-0.2,0c0,0-0.1,0-0.1-0.2c0-0.2-0.6-0.5-0.6-0.5L15.6,11.7L15.6,11.7z"/>
</g>
<g>
	<defs>
		<circle id="SVGID_135_" cx="16" cy="16" r="14.2"/>
	</defs>
	<clipPath id="SVGID_136_">
		<use xlink:href="#SVGID_135_"  style="overflow:visible;"/>
	</clipPath>
	<path class="st70" d="M14.4,13.2c0,0,0.2,0.3,1.1,0.3c0.4,0,0.6,0,0.7-0.1c0.1,0,0.5-0.2,0.8-0.6c0.3-0.4,0.3-0.6,0.3-0.6l-0.2,0
		l-0.6,0.1l-1.8,0.8L14.4,13.2L14.4,13.2z"/>
</g>
<g>
	<defs>
		<circle id="SVGID_137_" cx="16" cy="16" r="14.2"/>
	</defs>
	<clipPath id="SVGID_138_">
		<use xlink:href="#SVGID_137_"  style="overflow:visible;"/>
	</clipPath>
	<path class="st71" d="M15.1,13.3c0,0-0.8,0.2-0.8-0.3c0-0.5,0.5-1,0.6-1.1c0.1-0.1,0.4-0.2,0.4-0.2h0.7l0.1,0.4l-0.1,0.8L15.1,13.3
		L15.1,13.3z"/>
</g>
<g>
	<defs>
		<circle id="SVGID_139_" cx="16" cy="16" r="14.2"/>
	</defs>
	<clipPath id="SVGID_140_">
		<use xlink:href="#SVGID_139_"  style="overflow:visible;"/>
	</clipPath>
	<path class="st72" d="M15.8,11.9c0,0-0.2-0.1-0.5,0s-0.6,0.6-0.6,0.9c0,0.3,0.3,0.5,0.7,0.6c0.3,0,0.5,0,0.6,0c0,0-0.2-0.2-0.2-0.2
		L15.8,11.9L15.8,11.9z"/>
</g>
<g>
	<defs>
		<circle id="SVGID_141_" cx="16" cy="16" r="14.2"/>
	</defs>
	<clipPath id="SVGID_142_">
		<use xlink:href="#SVGID_141_"  style="overflow:visible;"/>
	</clipPath>
	<path class="st73" d="M15.7,11.9c0,0,0,0-0.1,0c-0.1,0-0.2,0.2-0.3,0.3c-0.1,0.1-0.1,0.1-0.1,0.1c-0.2,0.2-0.3,0.5-0.2,0.6
		c0.1,0.1,0.3,0.3,0.9,0.2L15.7,11.9L15.7,11.9z"/>
</g>
<g>
	<defs>
		<circle id="SVGID_143_" cx="16" cy="16" r="14.2"/>
	</defs>
	<clipPath id="SVGID_144_">
		<use xlink:href="#SVGID_143_"  style="overflow:visible;"/>
	</clipPath>
	<path class="st74" d="M15.5,12.2c0,0-0.1,0.2-0.1,0.4c0,0.2,0.1,0.6,0.6,0.7c0.4,0,0.7-0.6,0.9-0.8c0.2-0.2,0.3-0.2,0.3-0.2
		s-0.2-0.2-0.8-0.6c-0.6-0.3-1.2-0.4-1.6,0.1c0.2,0,0.7-0.2,0.7-0.2l0.3,0.1L15.5,12.2z"/>
</g>
<g>
	<defs>
		<circle id="SVGID_145_" cx="16" cy="16" r="14.2"/>
	</defs>
	<clipPath id="SVGID_146_">
		<use xlink:href="#SVGID_145_"  style="overflow:visible;"/>
	</clipPath>
	<path class="st75" d="M16.2,12.6C16.2,12.5,16.2,12.5,16.2,12.6c0.1-0.1,0.1-0.1,0.2,0c0,0.1,0,0.1,0,0.1
		C16.4,12.7,16.3,12.6,16.2,12.6z M16.1,12.2C16.1,12.2,16.1,12.2,16.1,12.2c0-0.1,0-0.1,0.1-0.1s0.1,0.1,0,0.1
		C16.3,12.3,16.2,12.3,16.1,12.2C16.1,12.3,16.1,12.2,16.1,12.2z"/>
</g>
<g>
	<defs>
		<circle id="SVGID_147_" cx="16" cy="16" r="14.2"/>
	</defs>
	<clipPath id="SVGID_148_">
		<use xlink:href="#SVGID_147_"  style="overflow:visible;"/>
	</clipPath>
	<path class="st76" d="M9.5,12.4c0,0,0.2,0.1,0.4,0.1c0.2,0,0.5-0.2,0.6-0.4c0.1-0.1,0.1-0.2,0.2-0.2c0.1-0.1,0.1-0.1,0.1-0.1
		c0,0,0.1-0.1,0.1-0.2c-0.1,0-0.1,0.1-0.2,0.2c-0.1,0-0.2,0.1-0.3,0.2c-0.1,0-0.7,0.4-0.7,0.4L9.5,12.4L9.5,12.4z"/>
</g>
<g>
	<defs>
		<circle id="SVGID_149_" cx="16" cy="16" r="14.2"/>
	</defs>
	<clipPath id="SVGID_150_">
		<use xlink:href="#SVGID_149_"  style="overflow:visible;"/>
	</clipPath>
	<path class="st77" d="M9.8,10.6c0,0,0.1-0.1,0.3-0.1c0.2,0,0.6-0.1,0.6-0.1l0.3,0.1l0.1,0.5L11,11.5l-0.3,0.2l-0.3-0.6L9.8,10.6
		L9.8,10.6z"/>
</g>
<g>
	<defs>
		<circle id="SVGID_151_" cx="16" cy="16" r="14.2"/>
	</defs>
	<clipPath id="SVGID_152_">
		<use xlink:href="#SVGID_151_"  style="overflow:visible;"/>
	</clipPath>
	<path class="st78" d="M9.4,11l-0.1,0.1c0,0,0-0.1,0.1-0.2c0-0.2,0.2-0.6,0.3-0.8s0.2-0.2,0.2-0.2s-0.1,0-0.1,0
		c0-0.1,0.2-0.2,0.3-0.3c0.2-0.1,0.2-0.1,0.4,0s0.2,0.1,0.3,0.1c0.1,0,0.2-0.1,0.2-0.1s0,0.1-0.1,0.3c-0.1,0.2-0.4,0.5-0.4,0.5
		l-0.7,0.5L9.4,11L9.4,11z"/>
</g>
<g>
	<defs>
		<circle id="SVGID_153_" cx="16" cy="16" r="14.2"/>
	</defs>
	<clipPath id="SVGID_154_">
		<use xlink:href="#SVGID_153_"  style="overflow:visible;"/>
	</clipPath>
	<path class="st79" d="M10,10.5c0,0,0.5,0.1,0.7-0.1c0,0,0,0,0,0c0,0,0,0,0,0s0,0,0.1,0c0,0,0,0,0.1,0s0.1,0,0.1,0s0,0,0,0.1
		c0,0,0,0,0,0c0,0,0,0.1,0,0.1c0,0-0.1,0-0.1,0s0,0.1,0,0.1c0,0.1,0.2,0.2,0.3,0.2c0,0,0.1,0.2-0.2,0.6c0,0.1-0.1,0.1-0.1,0.2
		c0,0.1,0,0.1,0,0.1s0.5-0.2,0.7-0.7c0.2-0.5,0.2-0.9,0.2-1.3c0-0.1,0-0.2-0.1-0.3c-0.1-0.2-0.3-0.1-0.4,0c-0.1,0.1-0.3,0.4-0.6,0.6
		C10.2,10.4,10.2,10.4,10,10.5L10,10.5z"/>
</g>
<g>
	<defs>
		<circle id="SVGID_155_" cx="16" cy="16" r="14.2"/>
	</defs>
	<clipPath id="SVGID_156_">
		<use xlink:href="#SVGID_155_"  style="overflow:visible;"/>
	</clipPath>
	<path class="st80" d="M9.3,11.2c0,0-0.1,0.1-0.2,0.3c-0.1,0.2,0,0.5,0.1,0.6c0.1,0.1,0.2,0.3,0.5,0.3c0.1,0,0.1,0,0.2,0
		c0.1,0,0.2-0.1,0.3-0.2c0.1-0.1,0.2-0.2,0.2-0.2c0,0-0.7-0.6-0.7-0.6L9.3,11.2L9.3,11.2z"/>
</g>
<g>
	<defs>
		<circle id="SVGID_157_" cx="16" cy="16" r="14.2"/>
	</defs>
	<clipPath id="SVGID_158_">
		<use xlink:href="#SVGID_157_"  style="overflow:visible;"/>
	</clipPath>
	<path class="st81" d="M10,12.1c0,0,0.1,0,0.2-0.1s-0.5-0.6-0.5-0.6l0,0.6L10,12.1z"/>
</g>
<g>
	<defs>
		<circle id="SVGID_159_" cx="16" cy="16" r="14.2"/>
	</defs>
	<clipPath id="SVGID_160_">
		<use xlink:href="#SVGID_159_"  style="overflow:visible;"/>
	</clipPath>
	<path class="st82" d="M9.4,11.1c0,0-0.1,0.1-0.1,0.2c0,0.1,0,0.5,0.1,0.6c0,0.1,0.2,0.3,0.4,0.3c0.1,0,0.3-0.1,0.3-0.1
		c0,0-0.2,0-0.2-0.1c0,0,0-0.2,0-0.3c0-0.1,0-0.2,0-0.2c0.1-0.1,0.1-0.3,0.1-0.3l0.2-0.4H9.8L9.4,11.1L9.4,11.1L9.4,11.1z"/>
</g>
<g>
	<defs>
		<circle id="SVGID_161_" cx="16" cy="16" r="14.2"/>
	</defs>
	<clipPath id="SVGID_162_">
		<use xlink:href="#SVGID_161_"  style="overflow:visible;"/>
	</clipPath>
	<path class="st83" d="M9.3,11.3c0,0,0.2-0.3,0.5-0.4c0.2-0.1,0.3,0,0.3,0l-0.1,0.3l-0.2,0.2l0,0.1c0,0,0,0.3,0.2,0.5
		c0.2,0.2,0.3,0.2,0.4,0.2s0.3-0.1,0.4-0.3c0.1-0.3,0.2-0.6,0-0.9c-0.2-0.3-0.6-0.3-0.6-0.3C10,10.5,9.5,10.6,9.3,11.3z"/>
</g>
<g>
	<defs>
		<circle id="SVGID_163_" cx="16" cy="16" r="14.2"/>
	</defs>
	<clipPath id="SVGID_164_">
		<use xlink:href="#SVGID_163_"  style="overflow:visible;"/>
	</clipPath>
	<path class="st84" d="M15.4,12.3c-0.1,0,0-0.3,0.1-0.4c0.1-0.1,0.2-0.2,0.4-0.2c0.1,0,0.1,0,0.1,0.1c0,0.1-0.1,0.2-0.3,0.3
		C15.6,12.3,15.5,12.4,15.4,12.3L15.4,12.3z"/>
</g>
<g>
	<defs>
		<circle id="SVGID_165_" cx="16" cy="16" r="14.2"/>
	</defs>
	<clipPath id="SVGID_166_">
		<use xlink:href="#SVGID_165_"  style="overflow:visible;"/>
	</clipPath>
	<path class="st85" d="M10.6,11c0.1,0,0.2,0,0.2,0.1c0,0.1,0,0.2-0.2,0.2c-0.1,0-0.2-0.1-0.2-0.2c0,0,0-0.1,0-0.1
		C10.4,11.1,10.5,11,10.6,11z"/>
</g>
<g>
	<defs>
		<circle id="SVGID_167_" cx="16" cy="16" r="14.2"/>
	</defs>
	<clipPath id="SVGID_168_">
		<use xlink:href="#SVGID_167_"  style="overflow:visible;"/>
	</clipPath>
	<path class="st86" d="M9.6,11c0,0-0.2,0.1-0.2,0.2c-0.1,0.2-0.1,0.3,0,0.4c0,0.1,0.1,0.2,0.1,0.3C9.5,12,9.5,12,9.6,12
		c0,0,0.1-0.1,0.1-0.2s0-0.3,0.1-0.5C9.9,11.2,9.6,11,9.6,11L9.6,11z"/>
</g>
<g>
	<defs>
		<circle id="SVGID_169_" cx="16" cy="16" r="14.2"/>
	</defs>
	<clipPath id="SVGID_170_">
		<use xlink:href="#SVGID_169_"  style="overflow:visible;"/>
	</clipPath>
	<path class="st87" d="M9.7,11C9.6,11,9.6,11.1,9.7,11c-0.1,0.1,0,0.1,0.1,0.2c0,0.1,0,0.2,0,0.2c0,0,0,0,0.1-0.1
		c0.1-0.1,0.1-0.1,0.2-0.1c0,0,0.1,0,0.1,0c0.1,0,0.1,0,0.1-0.1c0-0.1-0.1-0.1-0.2-0.1c0,0,0-0.1,0-0.2c-0.1,0-0.2,0-0.3,0.1
		C9.8,10.9,9.7,11,9.7,11L9.7,11z"/>
</g>
<g>
	<defs>
		<circle id="SVGID_171_" cx="16" cy="16" r="14.2"/>
	</defs>
	<clipPath id="SVGID_172_">
		<use xlink:href="#SVGID_171_"  style="overflow:visible;"/>
	</clipPath>
	<path class="st88" d="M13.5,16.1l0.4-0.1l0.1,0.1c0,0,0.1,0.2,0.2,0.2c0,0.1-0.1,0.1-0.1,0.2c0,0.1,0.1,0.1,0.1,0.1
		s-0.3,0.5,0.3,1.1c-0.2,0.1-0.3,0.1-0.4,0.2c0.1,0,0.2,0,0.3,0.1c0.1,0.1,0.1,0.1,0.1,0.1c0.1,0,0.1,0.1,0.1,0.1c0,0-0.2-0.1-0.2,0
		c0,0.1-0.6,0-0.6,0l-1,0.2c0,0,0-0.1-0.1-0.2c-0.1-0.1-0.3,0-0.4-0.1c-0.2-0.2-0.2-0.3-0.3-0.4c0.1,0,0.2-0.1,0.5-0.1
		c0,0-0.1-0.1,0-0.2c0-0.1,0.2-0.1,0.1-0.2c0.1,0,0.1,0,0.2-0.2c0.1-0.2,0.2-0.2,0.3-0.2c0.1,0,0.2,0,0.3-0.2
		c0.1-0.1,0.1-0.2,0.1-0.2S13.5,16.3,13.5,16.1z"/>
</g>
<g>
	<defs>
		<circle id="SVGID_173_" cx="16" cy="16" r="14.2"/>
	</defs>
	<clipPath id="SVGID_174_">
		<use xlink:href="#SVGID_173_"  style="overflow:visible;"/>
	</clipPath>
	<path class="st89" d="M12.4,16.2c0,0,0,0,0.2,0c0.1,0,1-0.1,1.2-0.1c0.2,0,1,0,1.4,0.1c0.4,0.1,0.8,0.2,1,0.2
		c0.2,0.1,0.3,0.1,0.2,0.1c0,0,0,0-0.1,0c0,0-0.7-0.2-0.9-0.2c-0.2,0-0.9-0.2-1.2-0.1c-0.3,0-0.5,0-0.8,0c-0.3,0-0.8,0.1-0.9,0.1
		C12.4,16.2,12.4,16.2,12.4,16.2L12.4,16.2z"/>
</g>
<g>
	<defs>
		<circle id="SVGID_175_" cx="16" cy="16" r="14.2"/>
	</defs>
	<clipPath id="SVGID_176_">
		<use xlink:href="#SVGID_175_"  style="overflow:visible;"/>
	</clipPath>
	<path class="st90" d="M14.4,18.1c0,0,0.5,0.3,0.7,0.6C15.2,18.9,15,19,15,19s0.3,0,0.2,0.2c0,0.1-0.5,0.4-0.8,0.5
		c-0.3,0.1-0.3,0.1-0.5,0.2c-0.2,0-0.6,0-0.6,0.1c-0.1,0.1,0,0.2,0,0.3c0,0,0.2,0,0.2,0s0,0.1-0.4,0.1c-0.4,0-0.5,0-0.5,0.1
		c0,0,0.1,0,0.3,0c0.2,0,0.4,0,0.4,0s-0.1,0.1-0.3,0.1c-0.3,0.1-0.6,0.1-0.8,0.2c0.1,0,0.2,0.1,0.2,0.1c-0.1,0-0.2,0.1-0.3,0.1
		c0,0,0.1,0.1,0.1,0.1s-0.2,0.2-0.3,0.3s-0.8,0.4-1,0.3c-0.6-0.2-0.7-0.8-0.8-0.8c-0.2-0.1-0.3,0.1-0.5,0c0.1-0.1,0.1-0.1,0.2-0.1
		c-0.1,0-0.6-0.4-0.6-0.4S9.1,20.2,9,20c-0.1-0.2-0.2-0.4-0.3-0.6c-0.2-0.4-0.2-0.6-0.5-0.9c0,0,0.2,0,0.2,0l1.8,0.6l3.1,0.1
		l0.8-1.2L14.4,18.1L14.4,18.1z"/>
</g>
<g>
	<defs>
		<circle id="SVGID_177_" cx="16" cy="16" r="14.2"/>
	</defs>
	<clipPath id="SVGID_178_">
		<use xlink:href="#SVGID_177_"  style="overflow:visible;"/>
	</clipPath>
	<path class="st91" d="M9.8,19.8C9.8,19.8,9.8,19.9,9.8,19.8C9.9,19.9,10,20,10,20.1c0,0,0.1-0.1,0.2,0c0.1,0.1,0.2,0,0.3,0.1
		c0.1,0,0.1,0,0.1,0s0,0,0.2-0.1c0.1,0,0.1,0,0.2-0.1c0.1,0,0.2,0,0.2,0c0.1,0,0.2,0.2,1-0.1c0.7-0.3,0.9-0.3,1-0.3
		c0,0,0-0.1,0.2-0.1c0-0.1-0.2-0.3-0.2-0.3l-0.9-0.3H12l-1.4,0.3l-0.8,0.4L9.8,19.8L9.8,19.8z"/>
</g>
<g>
	<defs>
		<circle id="SVGID_179_" cx="16" cy="16" r="14.2"/>
	</defs>
	<clipPath id="SVGID_180_">
		<use xlink:href="#SVGID_179_"  style="overflow:visible;"/>
	</clipPath>
	<path class="st92" d="M9.3,19.4c0,0,0,0.1,0.2,0.3c0.2,0.1,0.3,0.2,0.3,0.2s0,0,0.1-0.1c0-0.1,0.1-0.1,0.1-0.1c0.1,0,0.3,0,0.4,0
		c0,0,0-0.1,0.1-0.1c0.1,0,0.2,0.1,0.2,0.1c0,0,0.1,0,0.1,0c0,0,0-0.2,0.2-0.3c0.2-0.1,0.3-0.1,0.4,0c0,0,0,0.1,0.1,0.1
		c0.1,0,0.1,0,0.2,0c0.1,0,0.2,0,0.2,0.1c0,0,0.1,0,0.1-0.2c0,0,0.1-0.1,0.2-0.2c0,0,0.1-0.1,0.1-0.1c0.1,0,0.2,0,0.3,0.1
		c0,0-0.1,0-0.1,0.1c0,0,0.1,0.1,0.1,0.1c0,0,0.1,0.1,0.1,0.1c0.1,0,0.3,0,0.5,0c0.2,0,0.3,0.1,0.4,0.1c0,0,0,0,0.1,0s0.1,0,0-0.1
		c0,0,0.1,0.1,0.1,0c0,0,0.1-0.1,0.2-0.1c0.1,0,0.1,0,0.2-0.1c0.1-0.1-0.1-0.1-0.1-0.1s0.1-0.1,0.2-0.2c0.1-0.1,0.2-0.2,0.3-0.4
		c0.1-0.3-0.3-0.4-0.3-0.4l-1.5,0.5l-1.8-0.1L9.3,19.4L9.3,19.4z"/>
</g>
<g>
	<defs>
		<circle id="SVGID_181_" cx="16" cy="16" r="14.2"/>
	</defs>
	<clipPath id="SVGID_182_">
		<use xlink:href="#SVGID_181_"  style="overflow:visible;"/>
	</clipPath>
	<path class="st93" d="M8,15.1c0,0,0,0.1-0.1,0.2c0,0.1,0,0.1,0,0.2S7.5,16.6,7.6,17s0.3,0.5,0.4,0.7c0,0.1,0,0.1,0.1,0.2
		c0,0.2,0,0.3,0.1,0.5c0,0.1,0.1,0.1,0.1,0.2c0.1,0.2,0.4,0.3,0.5,0.4c0.1,0.2,0.3,0.5,0.6,0.5c0.1,0,0.3,0,0.5-0.1
		c0.1-0.1,0.2-0.2,0.4-0.3c0.1-0.1,0.2-0.1,0.3-0.1c0.2,0,0.4,0,0.5,0c0.2,0,0.6,0.2,0.8,0.2c0.1,0,0.3,0,0.5-0.1
		c0.3-0.1,0.8-0.3,1-0.4c0.2,0,0.3-0.1,0.4-0.1c0.2-0.1,0.4-0.1,0.5-0.3c-0.1-0.1-0.2-0.2-0.6-0.2c-0.6,0-1.2,0.3-1.5,0.4
		s-0.4,0.1-0.8,0c-0.3-0.1-0.4-0.2-0.4-0.2s-0.4-0.3-0.5-0.9c-0.2-0.6,0-1.1,0.4-1.6c0.1-0.1,0.1-0.2,0.1-0.2s0.3-0.3,0.2-0.7
		c-0.1-0.3-0.6-0.3-0.6-0.3L8,15.1L8,15.1z"/>
</g>
<g>
	<defs>
		<circle id="SVGID_183_" cx="16" cy="16" r="14.2"/>
	</defs>
	<clipPath id="SVGID_184_">
		<use xlink:href="#SVGID_183_"  style="overflow:visible;"/>
	</clipPath>
	<path class="st94" d="M8.4,16.2c0,0,0,0.1,0,0.1c0,0.1,0,0.2,0.2,0.3C8.7,16.8,8.7,17,8.7,17s0.1,0,0.3-0.1C9.2,16.8,9.2,17,9.2,17
		s0.1,0,0.2-0.1c0.1,0,0.2,0,0.2,0s0.2,0.2,0.4,0.3c0.2,0.1,0.3,0.2,0.3,0.1c0.1-0.1,0.1-0.2,0.1-0.2c0,0,0-0.1-0.1-0.1
		c-0.1-0.1-0.1-0.2-0.1-0.2c0-0.2,0.1-0.4,0.1-0.4s-0.1-0.1-0.4,0C9.6,16.4,8.4,16.2,8.4,16.2L8.4,16.2z"/>
</g>
<g>
	<defs>
		<circle id="SVGID_185_" cx="16" cy="16" r="14.2"/>
	</defs>
	<clipPath id="SVGID_186_">
		<use xlink:href="#SVGID_185_"  style="overflow:visible;"/>
	</clipPath>
	<path class="st95" d="M9,17.2c0,0-0.1-0.1-0.1-0.8c0.1,0,0.2,0,0.2,0S9.2,17,9,17.2L9,17.2z"/>
</g>
<g>
	<defs>
		<circle id="SVGID_187_" cx="16" cy="16" r="14.2"/>
	</defs>
	<clipPath id="SVGID_188_">
		<use xlink:href="#SVGID_187_"  style="overflow:visible;"/>
	</clipPath>
	<path class="st96" d="M8,14.6C8,14.6,8,14.6,8,14.6c0,0-0.2,0.4,0,1c0.2,0.6,0.6,1,1.2,1s0.8-0.3,1.2-0.7c0.1-0.2,0.3-0.4,0.4-0.5
		c0.2-0.2,0.4-0.3,0.4-0.5c0-0.4-0.4-0.6-1.1-0.8c-0.6-0.2-1.2-0.2-1.5,0C8.2,14.2,8.1,14.3,8,14.6L8,14.6z"/>
</g>
<g>
	<defs>
		<circle id="SVGID_189_" cx="16" cy="16" r="14.2"/>
	</defs>
	<clipPath id="SVGID_190_">
		<use xlink:href="#SVGID_189_"  style="overflow:visible;"/>
	</clipPath>
	<path class="st97" d="M10.1,17.4L10.1,17.4c0,0,0.1-0.2,0.1-0.2c0.1,0,0.1,0.1,0.1,0.2c0,0,0,0.1-0.1,0.1
		C10.1,17.5,10.1,17.4,10.1,17.4z"/>
</g>
<g>
	<defs>
		<circle id="SVGID_191_" cx="16" cy="16" r="14.2"/>
	</defs>
	<clipPath id="SVGID_192_">
		<use xlink:href="#SVGID_191_"  style="overflow:visible;"/>
	</clipPath>
	<path class="st98" d="M9.9,16.6c0,0,0,0,0.1,0c0,0,0.3,0,0.3,0c0.1,0,0.1,0.1,0.1,0.1s-0.2,0.1-0.4,0C9.9,16.7,9.9,16.6,9.9,16.6
		L9.9,16.6z"/>
</g>
<g>
	<defs>
		<circle id="SVGID_193_" cx="16" cy="16" r="14.2"/>
	</defs>
	<clipPath id="SVGID_194_">
		<use xlink:href="#SVGID_193_"  style="overflow:visible;"/>
	</clipPath>
	<path class="st99" d="M10.9,16.6c0,0-0.1-0.1-0.3-0.1c0,0,0,0,0,0c0,0,0,0,0,0l-0.1,0c0,0,0,0,0,0c0,0,0.1,0.1,0.1,0.1
		c0,0,0,0.1,0,0.1c0,0,0.1,0,0.1,0C10.9,16.7,11,16.7,10.9,16.6z"/>
</g>
<g>
	<defs>
		<circle id="SVGID_195_" cx="16" cy="16" r="14.2"/>
	</defs>
	<clipPath id="SVGID_196_">
		<use xlink:href="#SVGID_195_"  style="overflow:visible;"/>
	</clipPath>
	<path class="st100" d="M9.7,17.1c0,0,0-0.2,0.2-0.2c0.2,0,0.2,0.2,0.2,0.2L10,17.2C10,17.2,9.9,17.1,9.7,17.1L9.7,17.1z"/>
</g>
<g>
	<defs>
		<circle id="SVGID_197_" cx="16" cy="16" r="14.2"/>
	</defs>
	<clipPath id="SVGID_198_">
		<use xlink:href="#SVGID_197_"  style="overflow:visible;"/>
	</clipPath>
	<path class="st101" d="M10.8,16.4c0,0-0.1,0.1-0.3,0.1c0,0-0.1-0.1,0-0.2c0.1-0.1,0.1-0.1,0.2-0.1C10.7,16.3,10.8,16.4,10.8,16.4
		L10.8,16.4z"/>
</g>
<g>
	<defs>
		<circle id="SVGID_199_" cx="16" cy="16" r="14.2"/>
	</defs>
	<clipPath id="SVGID_200_">
		<use xlink:href="#SVGID_199_"  style="overflow:visible;"/>
	</clipPath>
	<path class="st102" d="M11.1,16.5C11.2,16.5,11.1,16.5,11.1,16.5C11.2,16.5,11.2,16.5,11.1,16.5C11.2,16.5,11.2,16.5,11.1,16.5
		C11.2,16.5,11.2,16.6,11.1,16.5C11.2,16.6,11.2,16.6,11.1,16.5C11.1,16.6,11.1,16.6,11.1,16.5C11.1,16.6,11.1,16.6,11.1,16.5z
		 M11.6,16.3C11.6,16.3,11.6,16.2,11.6,16.3c0.1,0,0.1,0,0.1,0c0,0,0,0,0,0c0,0,0,0.1,0,0.1c0,0-0.1,0-0.1,0
		C11.6,16.4,11.6,16.3,11.6,16.3L11.6,16.3z"/>
</g>
<g>
	<defs>
		<circle id="SVGID_201_" cx="16" cy="16" r="14.2"/>
	</defs>
	<clipPath id="SVGID_202_">
		<use xlink:href="#SVGID_201_"  style="overflow:visible;"/>
	</clipPath>
	<path class="st103" d="M10.7,16.6c0,0,0.1,0,0.1,0.1c0,0-0.1,0-0.1,0S10.8,16.6,10.7,16.6z"/>
</g>
<g>
	<defs>
		<circle id="SVGID_203_" cx="16" cy="16" r="14.2"/>
	</defs>
	<clipPath id="SVGID_204_">
		<use xlink:href="#SVGID_203_"  style="overflow:visible;"/>
	</clipPath>
	<path class="st104" d="M10.6,16.1C10.6,16,10.6,16,10.6,16.1c0.1,0,0.1,0,0.1,0c0,0,0,0,0,0c0,0,0.1,0,0.1,0c0,0,0,0,0,0s0,0,0,0
		c0,0,0,0,0.1,0c0,0,0,0.1,0,0.1c0,0-0.1,0-0.1,0c0,0,0.1,0.1,0.1,0.1c0,0-0.1,0-0.1,0C10.9,16.2,10.6,16.1,10.6,16.1L10.6,16.1z
		 M10.9,15.7C10.9,15.7,10.9,15.6,10.9,15.7C10.9,15.6,10.8,15.6,10.9,15.7c-0.1,0,0,0.2,0,0.3c0.1,0.1,0.1,0.2,0.1,0.2
		c0,0,0.1,0,0.1,0c0,0,0-0.1,0-0.3c0-0.2,0-0.4,0-0.4c0,0-0.1,0-0.1,0S10.9,15.6,10.9,15.7L10.9,15.7z"/>
</g>
<g>
	<defs>
		<circle id="SVGID_205_" cx="16" cy="16" r="14.2"/>
	</defs>
	<clipPath id="SVGID_206_">
		<use xlink:href="#SVGID_205_"  style="overflow:visible;"/>
	</clipPath>
	<path class="st105" d="M10.7,16.9c0,0-0.1-0.1-0.2,0c-0.1,0-0.1,0.2-0.1,0.2s0.1,0,0.1,0C10.6,17,10.7,17,10.7,16.9z"/>
</g>
<g>
	<defs>
		<circle id="SVGID_207_" cx="16" cy="16" r="14.2"/>
	</defs>
	<clipPath id="SVGID_208_">
		<use xlink:href="#SVGID_207_"  style="overflow:visible;"/>
	</clipPath>
	<path class="st106" d="M10.9,17.1C10.9,17,10.8,17,10.9,17.1c0-0.1,0-0.1,0-0.1C10.9,17,10.9,17,10.9,17.1c0.1,0,0.2,0,0.2,0
		c0,0,0,0.1-0.1,0.1C10.9,17.2,10.9,17.1,10.9,17.1L10.9,17.1z M11.3,17C11.3,17,11.2,17.1,11.3,17C11.3,17,11.3,17,11.3,17
		C11.3,17,11.3,17,11.3,17C11.4,17,11.4,17,11.3,17c0.1-0.1,0.1-0.1,0.2-0.1c0,0,0,0,0,0c0,0,0,0.1,0,0.1S11.5,17.1,11.3,17
		C11.3,17.1,11.3,17,11.3,17L11.3,17z M11.9,16.9C11.9,16.9,11.9,16.9,11.9,16.9c0,0.1-0.1,0.1-0.2,0.1c-0.1,0-0.1,0-0.1,0
		c0,0,0.1-0.1,0.1-0.1c0,0,0,0,0.1,0C11.8,16.9,11.9,16.9,11.9,16.9C12,16.9,12,16.9,11.9,16.9C12,16.9,11.9,16.9,11.9,16.9z
		 M12.1,16.2C12.1,16.2,12,16.2,12.1,16.2c-0.1,0.1-0.1,0.1-0.1,0C12,16.2,12,16.2,12.1,16.2c-0.1,0-0.1,0-0.1-0.1c0,0,0-0.1,0.1,0
		c0,0,0.1,0,0.1,0c0,0,0.1,0,0.1,0C12.2,16.1,12.2,16.1,12.1,16.2C12.1,16.2,12.1,16.2,12.1,16.2z M11.5,17.6
		C11.5,17.6,11.5,17.6,11.5,17.6C11.5,17.6,11.5,17.6,11.5,17.6C11.5,17.6,11.5,17.6,11.5,17.6C11.5,17.6,11.5,17.7,11.5,17.6
		c0.1,0.1,0.1,0,0.1,0c0,0,0.1,0,0.1,0c0,0,0-0.1-0.1-0.1C11.6,17.5,11.6,17.5,11.5,17.6C11.6,17.5,11.6,17.5,11.5,17.6
		C11.5,17.6,11.5,17.6,11.5,17.6C11.5,17.6,11.5,17.6,11.5,17.6L11.5,17.6z M11.2,17.9C11.2,17.8,11.3,17.8,11.2,17.9
		c0.1,0,0.1,0.1,0.1,0.1c0,0-0.1,0-0.1,0S11.2,17.9,11.2,17.9C11.2,17.9,11.3,17.9,11.2,17.9C11.3,17.9,11.2,17.9,11.2,17.9
		L11.2,17.9z M11.1,17.5C11.1,17.5,11.1,17.5,11.1,17.5C11.1,17.5,11.1,17.5,11.1,17.5c0.1,0,0.1-0.1,0.1-0.1c0,0,0.1,0,0,0
		c0,0,0,0.1,0,0.1c0,0,0,0.1-0.1,0.1c-0.1,0-0.1,0-0.2,0C11,17.6,11,17.6,11.1,17.5C11,17.5,11,17.5,11.1,17.5L11.1,17.5z"/>
</g>
<g>
	<defs>
		<circle id="SVGID_209_" cx="16" cy="16" r="14.2"/>
	</defs>
	<clipPath id="SVGID_210_">
		<use xlink:href="#SVGID_209_"  style="overflow:visible;"/>
	</clipPath>
	<path class="st107" d="M11.1,17.5C11.1,17.5,11.1,17.5,11.1,17.5C11.1,17.6,11.1,17.6,11.1,17.5C11.1,17.6,11.1,17.6,11.1,17.5
		C11.1,17.6,11.1,17.5,11.1,17.5L11.1,17.5z"/>
</g>
<g>
	<defs>
		<circle id="SVGID_211_" cx="16" cy="16" r="14.2"/>
	</defs>
	<clipPath id="SVGID_212_">
		<use xlink:href="#SVGID_211_"  style="overflow:visible;"/>
	</clipPath>
	<path class="st108" d="M10.8,17.4C10.8,17.4,10.8,17.4,10.8,17.4c0.1,0,0.1,0,0.1,0.1s0,0.1-0.1,0.1c-0.1,0-0.1,0-0.1-0.1
		C10.7,17.5,10.7,17.4,10.8,17.4C10.7,17.4,10.7,17.4,10.8,17.4L10.8,17.4z"/>
</g>
<g>
	<defs>
		<circle id="SVGID_213_" cx="16" cy="16" r="14.2"/>
	</defs>
	<clipPath id="SVGID_214_">
		<use xlink:href="#SVGID_213_"  style="overflow:visible;"/>
	</clipPath>
	<path class="st109" d="M10.7,17.4C10.7,17.4,10.7,17.5,10.7,17.4c-0.1,0.1-0.2,0.3-0.3,0.3c0,0,0-0.1,0-0.1s-0.1,0-0.1,0.1
		c0,0.1,0.2,0.1,0.3,0.2s0.2,0,0.2,0s-0.1-0.1-0.1-0.2c0-0.1-0.1-0.1,0-0.2C10.7,17.6,10.8,17.5,10.7,17.4
		C10.8,17.5,10.7,17.4,10.7,17.4L10.7,17.4z"/>
</g>
<g>
	<defs>
		<circle id="SVGID_215_" cx="16" cy="16" r="14.2"/>
	</defs>
	<clipPath id="SVGID_216_">
		<use xlink:href="#SVGID_215_"  style="overflow:visible;"/>
	</clipPath>
	<path class="st110" d="M8,17.6C8,17.6,8,17.6,8,17.6c0.1,0,0.5-0.1,0.9-0.1c0.2,0,0.5,0,0.9,0.1c0.5,0.1,1.1,0.4,1.5,0.5
		c0.1,0,0.2,0.1,0.3,0.1c0.3,0.1,0.3,0.1,0.5,0.2c0.2,0,0.4,0,0.7-0.1c0.3-0.1,0.8-0.1,1.2-0.2c0.2,0,0.4-0.1,0.4-0.1
		s-0.3,0.3-1.1,0.4c-0.4,0.1-0.7,0-1,0c-0.3,0-0.4-0.1-0.5-0.1c-0.1,0-0.4-0.2-0.8-0.2c-0.3-0.1-0.5-0.1-0.9-0.2
		C9.1,17.9,8.3,17.8,8,17.6z"/>
</g>
<g>
	<defs>
		<circle id="SVGID_217_" cx="16" cy="16" r="14.2"/>
	</defs>
	<clipPath id="SVGID_218_">
		<use xlink:href="#SVGID_217_"  style="overflow:visible;"/>
	</clipPath>
	<path class="st111" d="M7.6,14.5l-2-1.9"/>
</g>
<g>
	<defs>
		<circle id="SVGID_219_" cx="16" cy="16" r="14.2"/>
	</defs>
	<clipPath id="SVGID_220_">
		<use xlink:href="#SVGID_219_"  style="overflow:visible;"/>
	</clipPath>
	<path class="st112" d="M7.6,14.4c-0.1-0.1-0.2-0.2-0.3-0.2C7.2,14.1,7.1,14,7,13.9l-0.3-0.2c0,0-0.1-0.1-0.1-0.1
		c0,0-0.1-0.1-0.1-0.1c-0.3-0.3-0.7-0.6-1-1c0.3,0.3,0.7,0.6,1,0.9l0.1,0.1c0,0,0.1,0.1,0.1,0.1l0.3,0.2c0.1,0.1,0.2,0.2,0.3,0.2
		S7.5,14.3,7.6,14.4L7.6,14.4z M3.1,14.3c0,0,1.2,0.1,1.8,0.2c0.6,0.1,2.3,0.3,2.3,0.3 M3.1,14.3c0.3,0,0.7,0.1,1,0.1
		c0.2,0,0.3,0,0.5,0.1l0.3,0c0.1,0,0.2,0,0.3,0l1,0.2l0.5,0.1c0.2,0,0.3,0.1,0.5,0.1c-0.2,0-0.3,0-0.5-0.1l-0.5-0.1l-1-0.2
		c-0.1,0-0.2,0-0.3,0l-0.3,0c-0.2,0-0.3,0-0.5-0.1C3.8,14.4,3.5,14.4,3.1,14.3z M7.1,15.2c0,0-1.3,0.3-1.7,0.5
		c-0.4,0.1-1.7,0.5-1.7,0.5"/>
</g>
<g>
	<defs>
		<circle id="SVGID_221_" cx="16" cy="16" r="14.2"/>
	</defs>
	<clipPath id="SVGID_222_">
		<use xlink:href="#SVGID_221_"  style="overflow:visible;"/>
	</clipPath>
	<path class="st113" d="M7.1,15.2c-0.3,0.1-0.6,0.2-0.9,0.2l-0.9,0.2c-0.3,0.1-0.6,0.2-0.9,0.3L4,16.1c-0.1,0-0.3,0.1-0.4,0.1
		c0.1,0,0.3-0.1,0.4-0.1l0.4-0.1c0.3-0.1,0.6-0.2,0.9-0.3c0.3-0.1,0.6-0.2,0.9-0.2C6.5,15.4,6.8,15.3,7.1,15.2L7.1,15.2z M3.8,17
		c0.1-0.1,1.8-0.8,2.2-1c0.2-0.1,0.7-0.3,0.7-0.3"/>
</g>
<g>
	<defs>
		<circle id="SVGID_223_" cx="16" cy="16" r="14.2"/>
	</defs>
	<clipPath id="SVGID_224_">
		<use xlink:href="#SVGID_223_"  style="overflow:visible;"/>
	</clipPath>
	<path class="st114" d="M3.8,17c0.1,0,0.2-0.1,0.4-0.2l0.4-0.2l0.7-0.3c0.2-0.1,0.5-0.2,0.7-0.3c0.1-0.1,0.3-0.1,0.4-0.1l0.2-0.1
		c0.1,0,0.1,0,0.2-0.1C6.5,15.8,6.2,15.9,6,16c-0.2,0.1-0.5,0.2-0.7,0.3l-0.7,0.3C4.3,16.8,4,16.9,3.8,17L3.8,17z M3.9,17.7
		c0,0,1.5-0.9,2-1.2c0.3-0.2,1.1-0.6,1.1-0.6"/>
</g>
<g>
	<defs>
		<circle id="SVGID_225_" cx="16" cy="16" r="14.2"/>
	</defs>
	<clipPath id="SVGID_226_">
		<use xlink:href="#SVGID_225_"  style="overflow:visible;"/>
	</clipPath>
	<path class="st115" d="M3.9,17.7c0.3-0.2,0.5-0.3,0.8-0.5L5.1,17c0.1-0.1,0.3-0.2,0.4-0.2c0.1-0.1,0.3-0.2,0.4-0.2
		c0.1,0,0.1-0.1,0.2-0.1l0.2-0.1c0.3-0.1,0.5-0.3,0.8-0.4c-0.3,0.2-0.5,0.3-0.8,0.4c-0.1,0.1-0.3,0.1-0.4,0.2
		c-0.1,0.1-0.3,0.2-0.4,0.2c-0.1,0.1-0.3,0.2-0.4,0.2l-0.4,0.2C4.5,17.4,4.2,17.5,3.9,17.7L3.9,17.7z M7.1,16.1c0,0-0.9,0.7-1.2,0.9
		c-0.3,0.2-1.2,0.9-1.2,0.9"/>
</g>
<g>
	<defs>
		<circle id="SVGID_227_" cx="16" cy="16" r="14.2"/>
	</defs>
	<clipPath id="SVGID_228_">
		<use xlink:href="#SVGID_227_"  style="overflow:visible;"/>
	</clipPath>
	<path class="st116" d="M7.1,16.1c-0.2,0.2-0.4,0.3-0.6,0.5L5.9,17c-0.2,0.2-0.4,0.3-0.6,0.5c-0.2,0.2-0.4,0.3-0.6,0.4
		c0.2-0.2,0.4-0.3,0.6-0.5s0.4-0.3,0.6-0.4l0.6-0.5C6.7,16.4,6.9,16.3,7.1,16.1z M6,17.8c0,0,0.2-0.2,0.5-0.4
		c0.3-0.3,0.7-0.7,0.9-0.8"/>
</g>
<g>
	<defs>
		<circle id="SVGID_229_" cx="16" cy="16" r="14.2"/>
	</defs>
	<clipPath id="SVGID_230_">
		<use xlink:href="#SVGID_229_"  style="overflow:visible;"/>
	</clipPath>
	<path class="st117" d="M6,17.8c0.1-0.1,0.2-0.2,0.3-0.3l0.2-0.2c0.1,0,0.1-0.1,0.2-0.2C6.8,17.1,6.9,17,7,16.9
		c0.1-0.1,0.1-0.1,0.2-0.2c0,0,0.1,0,0.1-0.1c0,0,0.1,0,0.1-0.1c0,0-0.1,0.1-0.1,0.1c0,0-0.1,0.1-0.1,0.1c-0.1,0.1-0.1,0.1-0.2,0.2
		c-0.1,0.1-0.2,0.2-0.3,0.3s-0.2,0.2-0.3,0.3C6.3,17.6,6.1,17.7,6,17.8L6,17.8z M7.5,16.8c0,0-0.8,0.8-1,0.9"/>
</g>
<g>
	<defs>
		<circle id="SVGID_231_" cx="16" cy="16" r="14.2"/>
	</defs>
	<clipPath id="SVGID_232_">
		<use xlink:href="#SVGID_231_"  style="overflow:visible;"/>
	</clipPath>
	<path class="st118" d="M7.5,16.8c-0.1,0.1-0.2,0.2-0.2,0.2L7,17.3c-0.1,0.1-0.2,0.2-0.2,0.2c-0.1,0.1-0.2,0.1-0.3,0.2l0.2-0.2
		c0.1-0.1,0.2-0.1,0.2-0.2l0.2-0.2C7.3,17,7.4,16.9,7.5,16.8L7.5,16.8z M7.5,17.3c0,0-0.1,0.3-0.3,0.6C7,18.3,6.7,18.8,6.6,19"/>
</g>
<g>
	<defs>
		<circle id="SVGID_233_" cx="16" cy="16" r="14.2"/>
	</defs>
	<clipPath id="SVGID_234_">
		<use xlink:href="#SVGID_233_"  style="overflow:visible;"/>
	</clipPath>
	<path class="st119" d="M7.5,17.3c0,0.1,0,0.2-0.1,0.2s-0.1,0.2-0.1,0.2c0,0.1-0.1,0.2-0.1,0.2c0,0.1-0.1,0.1-0.1,0.2l-0.2,0.4
		c-0.1,0.1-0.2,0.3-0.3,0.4c0.1-0.2,0.1-0.3,0.2-0.4c0.1-0.1,0.2-0.3,0.2-0.4c0-0.1,0.1-0.2,0.1-0.2c0-0.1,0.1-0.2,0.1-0.2
		c0-0.1,0.1-0.2,0.1-0.2C7.4,17.4,7.4,17.3,7.5,17.3z"/>
</g>
<g>
	<defs>
		<circle id="SVGID_235_" cx="16" cy="16" r="14.2"/>
	</defs>
	<clipPath id="SVGID_236_">
		<use xlink:href="#SVGID_235_"  style="overflow:visible;"/>
	</clipPath>
	<path class="st120" d="M8.4,19.3c0,0-0.2,0.3-0.2,0.7C8.2,19.8,8.3,19.4,8.4,19.3z M8.6,19.6c0,0-0.1,0.9-0.2,1.3
		C8.5,20.4,8.6,20.4,8.6,19.6z M10.2,20.9c0,0-0.4,1.1-0.4,1.3C9.9,22,10,21.3,10.2,20.9z"/>
</g>
<g>
	<defs>
		<circle id="SVGID_237_" cx="16" cy="16" r="14.2"/>
	</defs>
	<clipPath id="SVGID_238_">
		<use xlink:href="#SVGID_237_"  style="overflow:visible;"/>
	</clipPath>
	<path class="st121" d="M11,19.2c0,0,0.6,1,1,1.8C11.9,20.6,11.7,19.8,11,19.2z"/>
</g>
<g>
	<defs>
		<circle id="SVGID_239_" cx="16" cy="16" r="14.2"/>
	</defs>
	<clipPath id="SVGID_240_">
		<use xlink:href="#SVGID_239_"  style="overflow:visible;"/>
	</clipPath>
	<path class="st122" d="M12.6,20.6c0,0,0.5,0.8,0.9,1.7C13.4,21.9,13.3,21.2,12.6,20.6z"/>
</g>
<g>
	<defs>
		<circle id="SVGID_241_" cx="16" cy="16" r="14.2"/>
	</defs>
	<clipPath id="SVGID_242_">
		<use xlink:href="#SVGID_241_"  style="overflow:visible;"/>
	</clipPath>
	<path class="st123" d="M17.2,22c0.1-0.1,0.3-0.4,0.5-0.5c0.2-0.1,0.3-0.1,0.4-0.3c0.2-0.2,0.2-0.3,0.5-0.4c0.5-0.2,0.1-0.5,0.1-0.5
		s0.1-0.1,0.2-0.1c0.1-0.1,0.3-0.2,0.2-0.4c0-0.3-0.1-0.8-0.3-1.1c0.3-0.1,0.8-0.1,1.1-0.2c0.4-0.1,0.5-0.2,0.5-0.2
		s-0.2-0.3,0.1-0.7c0.3-0.3,0.6-0.6,0.8-0.9c-0.2,0-0.6-0.2-1.5,0.2C19.9,17,20,17,20,17s-0.5,0.2-0.7,0.3c-0.3,0.3-0.4,0.5-0.8,0.7
		c-0.4,0.2-0.8,0.1-1.1,0.3c-0.3,0.1-0.4,0.3-0.5,0.3c0,0,0,0.1,0,0.1c0,0-0.2,0.3-0.4,0.3c0,0.1,0.2,0.1,0.2,0.1s-0.1,0.1-0.4,0.1
		c0.1,0.1,0.3,0.3,0.6,0.5c0,0.1-0.2,0.2-0.1,0.3c0.1,0.1,0.2,0.3,0.7,0.4c-0.3,0-0.6,0.1-1.1,0c-0.4-0.1-0.5-0.1-0.8,0
		c0,0,0.1,0,0.2,0.1c-0.1,0-0.5-0.1-0.7,0.2c-0.2,0.2-0.2,0.6-0.2,0.8c-0.1,0-0.2,0.1-0.1,0.3s0.3,0.2,0.4,0.3
		c0.1,0.1,0.2,0.1,0.3,0.1c0.1,0,0.3-0.2,0.5-0.2s0.2,0.1,0.2,0.1s0.3-0.2,0.4-0.1c0,0,0,0.2,0,0.2C16.7,22.3,17.1,22.1,17.2,22
		L17.2,22z"/>
</g>
<path class="st124" d="M24.3,12.3C22.7,8.4,19,7.7,19,7.7H8.3l0,4h2.1v8.9H8.3v4h10.4c2.5,0,4.5-2.5,4.5-2.5
	C26.4,17.5,24.3,12.3,24.3,12.3z M18.7,19.3c0,0-0.8,1.2-1.7,1.2h-1.8l0-8.9h2.3c0,0,1.1,0.2,1.8,2.3C19.3,14,20.3,17,18.7,19.3z"/>
</svg>
