<?xml version="1.0" encoding="utf-8"?>
<!-- Generator: Adobe Illustrator 21.0.2, SVG Export Plug-In . SVG Version: 6.00 Build 0)  -->
<svg version="1.1" xmlns="http://www.w3.org/2000/svg" xmlns:xlink="http://www.w3.org/1999/xlink" x="0px" y="0px"
	width="32px" height="32px" viewBox="0 0 32 32" style="enable-background:new 0 0 32 32;" xml:space="preserve">
<style type="text/css">
	.st0{fill:none;stroke:#000000;stroke-miterlimit:10;}
</style>
<g id="Layer_1">
	<g id="Layer_3">
		<circle class="st0" cx="16" cy="16" r="14.4"/>
	</g>
</g>
<g id="Layer_2">
	<g>
		<circle cx="17.6" cy="18" r="0.5"/>
		<circle cx="18.7" cy="16.9" r="0.6"/>
		<circle cx="19.8" cy="15.3" r="0.7"/>
		<circle cx="20.4" cy="13.2" r="0.9"/>
		<circle cx="20.8" cy="10.6" r="1"/>
		<circle cx="20.5" cy="7.7" r="1.3"/>
		<ellipse transform="matrix(0.2318 -0.9728 0.9728 0.2318 -4.0658 32.9625)" cx="18.8" cy="19.1" rx="0.5" ry="0.5"/>
		<ellipse transform="matrix(0.2318 -0.9728 0.9728 0.2318 -2.4817 33.6073)" cx="20" cy="18.4" rx="0.5" ry="0.5"/>
		<ellipse transform="matrix(0.2318 -0.9728 0.9728 0.2318 -0.5359 33.8809)" cx="21.2" cy="17.3" rx="0.6" ry="0.6"/>
		<ellipse transform="matrix(0.2318 -0.9728 0.9728 0.2318 1.7854 33.5664)" cx="22.1" cy="15.7" rx="0.8" ry="0.8"/>
		<ellipse transform="matrix(0.2318 -0.9728 0.9728 0.2318 4.4133 32.7691)" cx="23" cy="13.6" rx="0.9" ry="0.9"/>
		<ellipse transform="matrix(0.2318 -0.9728 0.9728 0.2318 7.1507 31.1671)" cx="23.3" cy="11.1" rx="1.1" ry="1.1"/>
		<ellipse transform="matrix(0.4309 -0.9024 0.9024 0.4309 -6.8779 29.4609)" cx="19.9" cy="20.2" rx="0.4" ry="0.4"/>
		<ellipse transform="matrix(0.4309 -0.9024 0.9024 0.4309 -5.9299 30.2659)" cx="21" cy="19.8" rx="0.4" ry="0.4"/>
		<ellipse transform="matrix(0.4309 -0.9024 0.9024 0.4309 -4.6478 30.8967)" cx="22.2" cy="19.1" rx="0.5" ry="0.5"/>
		<ellipse transform="matrix(0.4309 -0.9024 0.9024 0.4309 -2.9729 31.2062)" cx="23.3" cy="18" rx="0.7" ry="0.7"/>
		<ellipse transform="matrix(0.4309 -0.9024 0.9024 0.4309 -0.9764 31.2514)" cx="24.3" cy="16.4" rx="0.7" ry="0.7"/>
		<ellipse transform="matrix(0.4309 -0.9024 0.9024 0.4309 1.2782 30.7657)" cx="25" cy="14.4" rx="0.9" ry="0.9"/>
		<ellipse transform="matrix(0.866 -0.5 0.5 0.866 -4.7079 10.737)" cx="17.7" cy="14.2" rx="0.5" ry="0.5"/>
		<ellipse transform="matrix(0.866 -0.5 0.5 0.866 -4.6782 9.9041)" cx="16.1" cy="13.7" rx="0.6" ry="0.6"/>
		<ellipse transform="matrix(0.866 -0.5 0.5 0.866 -4.879 8.9678)" cx="14.3" cy="13.6" rx="0.7" ry="0.7"/>
		<ellipse transform="matrix(0.866 -0.5 0.5 0.866 -5.4116 7.9581)" cx="12.1" cy="14.1" rx="0.9" ry="0.9"/>
		<ellipse transform="matrix(0.866 -0.5 0.5 0.866 -6.2167 6.8891)" cx="9.7" cy="15" rx="1" ry="1"/>
		<ellipse transform="matrix(0.866 -0.5 0.5 0.866 -7.4084 5.9047)" cx="7.3" cy="16.8" rx="1.3" ry="1.3"/>
		<ellipse transform="matrix(0.9583 -0.2856 0.2856 0.9583 -2.8227 5.6606)" cx="18" cy="12.5" rx="0.5" ry="0.5"/>
		<ellipse transform="matrix(0.9583 -0.2856 0.2856 0.9583 -2.6726 5.2917)" cx="16.8" cy="11.8" rx="0.5" ry="0.5"/>
		<ellipse transform="matrix(0.9583 -0.2856 0.2856 0.9583 -2.6088 4.8385)" cx="15.3" cy="11.4" rx="0.6" ry="0.6"/>
		<ellipse transform="matrix(0.9583 -0.2856 0.2856 0.9583 -2.682 4.298)" cx="13.4" cy="11.3" rx="0.8" ry="0.8"/>
		<ellipse transform="matrix(0.9583 -0.2856 0.2856 0.9583 -2.8677 3.686)" cx="11.2" cy="11.7" rx="0.9" ry="0.9"/>
		<ellipse transform="matrix(0.9583 -0.2856 0.2856 0.9583 -3.2407 3.0485)" cx="8.8" cy="12.6" rx="1.1" ry="1.1"/>
		<ellipse transform="matrix(0.997 -7.741509e-02 7.741509e-02 0.997 -0.7969 1.4598)" cx="18.4" cy="11" rx="0.4" ry="0.4"/>
		<ellipse transform="matrix(0.997 -7.741509e-02 7.741509e-02 0.997 -0.7384 1.391)" cx="17.6" cy="10.2" rx="0.4" ry="0.4"/>
		<ellipse transform="matrix(0.997 -7.800670e-02 7.800670e-02 0.997 -0.6975 1.308)" cx="16.4" cy="9.6" rx="0.5" ry="0.5"/>
		<ellipse transform="matrix(0.997 -7.800670e-02 7.800670e-02 0.997 -0.6748 1.1854)" cx="14.8" cy="9.2" rx="0.7" ry="0.7"/>
		<ellipse transform="matrix(0.997 -7.800670e-02 7.800670e-02 0.997 -0.6715 1.0393)" cx="13" cy="9.1" rx="0.7" ry="0.7"/>
		<ellipse transform="matrix(0.997 -7.800670e-02 7.800670e-02 0.997 -0.707 0.8743)" cx="10.8" cy="9.5" rx="0.9" ry="0.9"/>
		<ellipse transform="matrix(0.5 -0.866 0.866 0.5 -6.7541 20.4635)" cx="14.3" cy="16.1" rx="0.5" ry="0.5"/>
		<ellipse transform="matrix(0.5 -0.866 0.866 0.5 -7.9324 21.5607)" cx="14.7" cy="17.7" rx="0.6" ry="0.6"/>
		<ellipse transform="matrix(0.5 -0.866 0.866 0.5 -8.9374 23.114)" cx="15.5" cy="19.3" rx="0.7" ry="0.7"/>
		<ellipse transform="matrix(0.5 -0.866 0.866 0.5 -9.5891 25.2208)" cx="17" cy="20.9" rx="0.9" ry="0.9"/>
		<ellipse transform="matrix(0.5 -0.866 0.866 0.5 -9.9497 27.7809)" cx="19.1" cy="22.5" rx="1" ry="1"/>
		<ellipse transform="matrix(0.5 -0.866 0.866 0.5 -9.6665 30.7535)" cx="21.8" cy="23.7" rx="1.3" ry="1.3"/>
		<ellipse transform="matrix(0.6871 -0.7265 0.7265 0.6871 -8.0921 14.4766)" cx="12.8" cy="16.6" rx="0.5" ry="0.5"/>
		<ellipse transform="matrix(0.6871 -0.7265 0.7265 0.6871 -9.098 14.9004)" cx="12.8" cy="18" rx="0.5" ry="0.5"/>
		<ellipse transform="matrix(0.6871 -0.7265 0.7265 0.6871 -10.0996 15.6551)" cx="13.1" cy="19.6" rx="0.6" ry="0.6"/>
		<ellipse transform="matrix(0.6871 -0.7265 0.7265 0.6871 -11.0055 16.8445)" cx="14.1" cy="21.2" rx="0.8" ry="0.8"/>
		<ellipse transform="matrix(0.6871 -0.7265 0.7265 0.6871 -11.8316 18.3902)" cx="15.4" cy="22.9" rx="0.9" ry="0.9"/>
		<ellipse transform="matrix(0.6871 -0.7265 0.7265 0.6871 -12.3441 20.3486)" cx="17.5" cy="24.5" rx="1.1" ry="1.1"/>
		<ellipse transform="matrix(0.8244 -0.5661 0.5661 0.8244 -7.6516 9.3534)" cx="11.2" cy="17" rx="0.4" ry="0.4"/>
		<ellipse transform="matrix(0.8244 -0.5661 0.5661 0.8244 -8.3402 9.4097)" cx="11" cy="18.1" rx="0.4" ry="0.4"/>
		<ellipse transform="matrix(0.8244 -0.5661 0.5661 0.8244 -9.0915 9.6657)" cx="11" cy="19.5" rx="0.5" ry="0.5"/>
		<ellipse transform="matrix(0.8244 -0.5661 0.5661 0.8244 -9.8711 10.2021)" cx="11.5" cy="21" rx="0.7" ry="0.7"/>
		<ellipse transform="matrix(0.8244 -0.5661 0.5661 0.8244 -10.673 10.9686)" cx="12.3" cy="22.7" rx="0.7" ry="0.7"/>
		<ellipse transform="matrix(0.8244 -0.5661 0.5661 0.8244 -11.3679 12.0451)" cx="13.7" cy="24.3" rx="0.9" ry="0.9"/>
	</g>
</g>
</svg>
