<?xml version="1.0" encoding="utf-8"?>
<!-- Generator: Adobe Illustrator 21.0.2, SVG Export Plug-In . SVG Version: 6.00 Build 0)  -->
<svg version="1.1" xmlns="http://www.w3.org/2000/svg" xmlns:xlink="http://www.w3.org/1999/xlink" x="0px" y="0px"
	width="32px" height="32px" viewBox="0 0 32 32" style="enable-background:new 0 0 32 32;" xml:space="preserve">
<style type="text/css">
	.st0{fill:none;stroke:#36769D;stroke-miterlimit:10;}
	.st1{fill:#113F61;}
	.st2{fill:#242323;}
</style>
<g id="Layer_1">
	<g id="Layer_3">
		<circle class="st0" cx="16" cy="16" r="14.4"/>
	</g>
</g>
<g id="Layer_2">
	<polygon class="st1" points="16.8,18.9 17.7,17.2 20.2,17.4 20,20 19.2,20.2 19.2,20.4 18.3,20.4 18,20.9 17,21.1 16.7,21.4 
		16.3,21.2 16,21.8 15.9,21.3 	"/>
	<polygon class="st1" points="15.6,21 15.6,21 15,21.3 14.8,20.7 14.1,20.4 13.9,20.5 13.8,20.7 13.5,20.6 13,20.9 12.8,20.5 
		11.8,20 11.7,18.5 14.1,17.4 15.1,15.4 16.5,18.8 15.6,21 	"/>
	<polygon class="st1" points="17.7,16.9 17.5,16.6 18.2,14.9 18.2,14.1 19.6,12.1 21.1,11.6 20.8,14.8 20.8,16.6 20.6,16.9 
		20.4,17.1 	"/>
	<polygon class="st1" points="19.6,9.6 20,10.5 21,11.3 19.6,11.8 18.8,11.2 18.9,10.1 17.7,8.9 17,7.2 	"/>
	<polygon class="st1" points="16.4,6.6 17.4,9.1 18.6,10.2 18.4,11.3 19.3,12 17.9,14 17.9,14.9 17.2,16.7 17.4,17 16.6,18.4 
		15.3,15 15.1,12.9 16.9,11.6 17.1,10.6 16.4,8.9 16.4,6.6 	"/>
	<polygon class="st1" points="15.6,6.4 15.9,6.3 16.1,6.3 16.1,8.9 16.7,10.7 16.6,11.4 14.9,12.6 10.5,11.2 	"/>
	<polygon class="st1" points="14.8,12.9 15,15 13.9,17.2 11.5,18.2 11.3,17.6 11.4,16.8 10.4,11.5 	"/>
	<polygon class="st2" points="22,22.8 20,24 17.2,25.3 16.3,25.8 15.6,25.7 14.3,25 14.1,25 11.4,23.7 11.2,23.5 9.9,22.9 9.8,20.8 
		10.4,19.6 11.3,19.3 11.3,20 11.1,20.1 12.1,20.9 14.6,22.3 15.9,22.8 17,22.2 18.3,21.9 19.6,20.9 20.7,20.1 20.5,19.9 20.5,19.3 
		21.4,19.7 22.2,21 22,22.8 	"/>
</g>
</svg>
