<?xml version="1.0" encoding="utf-8"?>
<!-- Generator: Adobe Illustrator 21.0.2, SVG Export Plug-In . SVG Version: 6.00 Build 0)  -->
<svg version="1.1" id="Layer_1" xmlns="http://www.w3.org/2000/svg" xmlns:xlink="http://www.w3.org/1999/xlink" x="0px" y="0px"
	width="32px" height="32px" viewBox="0 0 32 32" style="enable-background:new 0 0 32 32;" xml:space="preserve">
<style type="text/css">
	.st0{fill:#16A0C3;stroke:#16A0C3;stroke-miterlimit:10;}
	.st1{fill:#FFFFFF;}
</style>
<g id="Layer_3">
	<circle class="st0" cx="16" cy="16" r="14.4"/>
</g>
<path class="st1" d="M15.2,18.4h-1.7l-4.8-3.2H7.3c-0.4,0-0.8-0.4-0.8-0.8c0-0.4,0.4-0.8,0.8-0.8h1.8l4.8,3.2h1.3
	c0.4,0,0.8,0.4,0.8,0.8C16,18.1,15.6,18.4,15.2,18.4z M22.3,18.4h-2.6l-4.8-3.2h-1.3c-0.4,0-0.8-0.4-0.8-0.8c0-0.4,0.4-0.8,0.8-0.8
	h1.8l4.8,3.2h2.1c0.4,0,0.8,0.4,0.8,0.8C23.1,18.1,22.8,18.4,22.3,18.4L22.3,18.4z M24.7,16.8c-0.4,0-0.8-0.4-0.8-0.8c0,0,0,0,0,0
	v-0.8h-3.9c-0.4,0-0.8-0.4-0.8-0.8c0-0.4,0.4-0.8,0.8-0.8h5.6V16C25.5,16.4,25.1,16.8,24.7,16.8L24.7,16.8z M8.9,18.4H7.3
	c-0.4,0-0.8-0.4-0.8-0.8c0-0.4,0.4-0.8,0.8-0.8h1.6c0.4,0,0.8,0.4,0.8,0.8C9.7,18.1,9.3,18.4,8.9,18.4z"/>
</svg>
