<?xml version="1.0" encoding="utf-8"?>
<!-- Generator: Adobe Illustrator 22.1.0, SVG Export Plug-In . SVG Version: 6.00 Build 0)  -->
<svg version="1.1" id="Layer_1" xmlns="http://www.w3.org/2000/svg" xmlns:xlink="http://www.w3.org/1999/xlink" x="0px" y="0px"
	 width="32px" height="32px" viewBox="0 0 32 32" style="enable-background:new 0 0 32 32;" xml:space="preserve">
<style type="text/css">
	.st0{fill:none;stroke:#5E4778;stroke-miterlimit:10;}
	.st1{fill:#5E4778;}
	.st2{fill:#3D3144;}
</style>
<g id="Layer_1_1_">
	<g id="Layer_3">
		<circle class="st0" cx="16" cy="16" r="14.4"/>
	</g>
</g>
<g>
	<g>
		<path class="st1" d="M16,7.5L8.2,9.1v10.7c0,1.6,1.6,3.1,3.4,4.2c1.4,0.9,2.8,1.7,4.3,2.4l0.1,0l0.1,0c0.3-0.1,7.6-3.2,7.6-6.6
			V9.1L16,7.5z M23.1,19.9c0,2.3-5,4.8-7.1,5.6l-0.1,0l0,0l-0.1,0l0,0l-0.1,0l0,0l-0.1,0l0,0l-0.1,0l0,0l-0.1,0h0l-0.1,0h0
			c-1-0.5-2.4-1.1-3.6-2l-0.1-0.1l-0.1-0.1L11.2,23l0,0L11,22.9l0,0l-0.1-0.1l0,0l-0.1-0.1l0,0l-0.1-0.1l0,0l-0.1-0.1l0,0l-0.1-0.1
			l0,0l-0.1-0.1l0,0l-0.1-0.1l0,0l-0.1-0.1l0,0L9.9,22l0,0l-0.1-0.1l0,0l-0.1-0.1l0,0l-0.1-0.1l0,0l-0.1-0.1l0,0l-0.1-0.1l0,0
			l-0.1-0.1l0,0l0-0.1l0,0l0-0.1l0,0c0,0,0,0,0-0.1l0,0c0,0,0,0,0-0.1l0,0c0,0,0,0,0-0.1c0,0,0,0,0,0c0,0,0,0,0-0.1c0,0,0,0,0-0.1
			c0,0,0,0,0-0.1c0,0,0,0,0-0.1c0,0,0,0,0-0.1c0,0,0,0,0-0.1c0,0,0,0,0-0.1s0,0,0-0.1c0,0,0,0,0,0c0,0,0,0,0-0.1s0,0,0,0
			c0,0,0,0,0-0.1c0,0,0,0,0,0V9.7L16,8.6H16l7.1,1.1L23.1,19.9L23.1,19.9z"/>
		<path class="st1" d="M16,9.4l-5.4,0.9l-1.1,0.2v9.2c0,2.1,4.6,4.4,6.5,5.1c1.1-0.4,3.1-1.4,4.6-2.5c0.1-0.1,0.2-0.2,0.3-0.3
			c0.5-0.4,0.9-0.9,1.2-1.3c0.2-0.3,0.3-0.7,0.3-1.1v-9.2L16,9.4z M12.9,14.2h3.8V15h-3.8V14.2z M20.2,14.6c0,1.9-1.3,3.1-3.1,3.1
			h-2.5v3.9h-1v-4.8H17c1.3,0,2.2-0.8,2.2-2.2c0-1.4-0.9-2.1-2.2-2.1h-1l-2.5,0v-0.9h3.6C18.9,11.6,20.2,12.8,20.2,14.6"/>
		<path class="st1" d="M16,7.5v1.1h0l7.1,1.1v10.2c0,2.3-5,4.8-7.1,5.6v1l0.1,0c0.3-0.1,7.6-3.2,7.6-6.6V9.1L16,7.5z"/>
		<path class="st1" d="M17.1,17.7h-2.5v0.5c0.4,0.3,0.9,0.6,1.3,0.9c1.6,0.9,3.6,1.5,6.1,1.6c0.2-0.3,0.3-0.7,0.3-1.1v-9.2l-6.5-1
			l-5.4,0.9c0.3,2,1,4.8,3.1,7v-0.4H17c1.3,0,2.2-0.8,2.2-2.2c0-1.4-0.9-2.1-2.2-2.1h-1l-2.5,0v-0.9h3.6c1.8,0,3.1,1.2,3.1,3
			C20.2,16.5,18.9,17.7,17.1,17.7 M16,14.2h0.6V15h-3.8v-0.8H16L16,14.2z"/>
	</g>
	<g>
		<path class="st2" d="M15.9,25.5L15.9,25.5l-0.1,0l0,0l-0.1,0l0,0l-0.1,0l0,0l-0.1,0l0,0l-0.1,0h0l-0.1,0h0c-1-0.5-2.4-1.1-3.6-2
			l-0.1-0.1L11.3,23L11.2,23l0,0L11,22.9l0,0l-0.1-0.1l0,0l-0.1-0.1l0,0l-0.1-0.1l0,0l-0.1-0.1l0,0l-0.1-0.1l0,0l-0.1-0.1l0,0
			l-0.1-0.1l0,0L10.1,22l0,0L10,21.9l0,0l-0.1-0.1l0,0l-0.1-0.1l0,0l-0.1-0.1l0,0l-0.1-0.1l0,0l-0.1-0.1l0,0l-0.1-0.1l0,0l0-0.1l0,0
			l0-0.1l0,0c0,0,0,0,0-0.1l0,0l0-0.1l0,0c0,0,0,0,0-0.1c0,0,0,0,0,0c0,0,0,0,0-0.1c0,0,0,0,0-0.1c0,0,0,0,0-0.1c0,0,0,0,0-0.1
			c0,0,0,0,0-0.1c0,0,0,0,0-0.1c0,0,0,0,0-0.1c0,0,0,0,0-0.1c0,0,0,0,0,0c0,0,0,0,0-0.1s0,0,0,0c0,0,0,0,0-0.1c0,0,0,0,0,0V9.7
			L16,8.6h0V7.5L8.2,9.1v10.7c0,1.6,1.6,3.1,3.4,4.2c1.4,0.9,2.8,1.7,4.3,2.4l0.1,0v-1L15.9,25.5"/>
		<path class="st2" d="M16,19c-0.5-0.3-0.9-0.6-1.3-0.9v3.5h-1v-4.4c-2.1-2.2-2.8-5-3.1-7l-1.1,0.2v9.2c0,2.1,4.6,4.4,6.5,5.1
			c1.1-0.4,3.1-1.4,4.6-2.5c0.1-0.1,0.2-0.2,0.3-0.3c0.5-0.4,0.9-0.9,1.2-1.3C19.6,20.5,17.6,19.9,16,19"/>
	</g>
</g>
</svg>
