<?xml version="1.0" encoding="utf-8"?>
<!-- Generator: Adobe Illustrator 22.1.0, SVG Export Plug-In . SVG Version: 6.00 Build 0)  -->
<svg version="1.1" id="Layer_1" xmlns="http://www.w3.org/2000/svg" xmlns:xlink="http://www.w3.org/1999/xlink" x="0px" y="0px"
	 width="32px" height="32px" viewBox="0 0 32 32" style="enable-background:new 0 0 32 32;" xml:space="preserve">
<style type="text/css">
	.st0{fill:#FFFFFF;}
	.st1{fill:#7F8C8D;}
	.st2{fill:#20EE82;}
</style>
<g id="hero-logo_Sia_Token_LP_Visual_Design_Metropolis" transform="translate(-935.000000, -260.000000)">
	<g id="hero-logo_x5F_Nav-_x2F_-Hero">
		<g id="hero-logo_x5F_Hero-_x2F_-Header" transform="translate(135.000000, 260.000000)">
			<g id="hero-logo_Sia-Logo" transform="translate(800.000000, 0.000000)">
				<path id="hero-logo_Fill-4" class="st0" d="M30.2,16c0,7.8-6.4,14.2-14.2,14.2S1.8,23.8,1.8,16S8.1,1.8,16,1.8S30.2,8.1,30.2,16
					"/>
				<path id="hero-logo_Fill-1" class="st1" d="M15.8,1.6C12.9,1.6,10.3,2.5,8,4l0.5,0.7c2.2-1.4,4.8-2.3,7.6-2.2
					c7.2,0.1,13.2,5.9,13.4,13.1c0.3,7.8-6.2,14.2-14,14c-7.2-0.2-13-6.2-13.1-13.4c0-2.8,0.8-5.4,2.2-7.6L4,8
					c-1.5,2.2-2.4,4.9-2.4,7.8c-0.1,7.9,6.2,14.4,14.1,14.6c8.2,0.2,14.9-6.5,14.7-14.7C30.2,7.8,23.7,1.5,15.8,1.6"/>
				<path id="hero-logo_Fill-4_1_" class="st2" d="M7.5,6.1c0,0.8-0.6,1.4-1.4,1.4S4.7,6.9,4.7,6.1s0.6-1.4,1.4-1.4S7.5,5.3,7.5,6.1
					"/>
				<path id="hero-logo_Fill-6" class="st2" d="M20.2,16v4.2H16c-2.3,0-4.2-1.9-4.2-4.2c0-2.3,1.9-4.2,4.2-4.2
					C18.3,11.8,20.2,13.7,20.2,16 M16,8.9c-3.9,0-7.1,3.1-7.1,7.1c0,3.9,3.2,7.1,7.1,7.1H23v-7C23,12.2,19.9,9,16,8.9"/>
			</g>
		</g>
	</g>
</g>
</svg>
