<?xml version="1.0" encoding="utf-8"?>
<!-- Generator: Adobe Illustrator 21.0.2, SVG Export Plug-In . SVG Version: 6.00 Build 0)  -->
<svg version="1.1" xmlns="http://www.w3.org/2000/svg" xmlns:xlink="http://www.w3.org/1999/xlink" x="0px" y="0px"
	width="32px" height="32px" viewBox="0 0 32 32" style="enable-background:new 0 0 32 32;" xml:space="preserve">
<style type="text/css">
	.st0{fill:none;stroke:#165098;stroke-miterlimit:10;}
	.st1{fill:#165098;}
	.st2{fill:#5C9DD5;}
</style>
<g id="Layer_1">
	<g id="Layer_3">
		<circle class="st0" cx="16" cy="16" r="14.4"/>
	</g>
</g>
<g id="Layer_2">
	<path class="st1" d="M9.2,8.6c-0.8,0.7-1.7,1.6-2,2.6c-0.4,1.2,0.2,2.5,0.7,3.6C8.4,15.9,9,17,9.5,18.1c0.4,0.9,1,2,0.8,3
		c-0.1,0.7-0.3,1.4-0.5,2.1c-0.1,0.5,0.3,0,0.5-0.1c0.9-0.8,2-1.7,2.3-2.9c0.2-0.6,0.1-1.2-0.1-1.8c-0.2-0.6-0.5-1.1-0.7-1.7
		c-0.5-1.1-1-2.2-1.6-3.4C10,13,9.8,12.6,9.6,12.1c-0.2-0.5-0.3-0.9-0.3-1.4c0-0.4,0-0.8,0-1.2c0-0.3,0.1-0.6,0.1-0.9
		C9.5,8.5,9.4,8.5,9.2,8.6L9.2,8.6z M21.4,8.6c-0.8,0.7-1.7,1.6-2,2.6c-0.4,1.2,0.2,2.5,0.7,3.6c0.5,1.1,1.1,2.2,1.6,3.4
		c0.4,0.9,1,2,0.8,3c-0.1,0.7-0.3,1.4-0.5,2.1c-0.1,0.5,0.3,0,0.5-0.1c0.9-0.8,2-1.7,2.3-2.9c0.2-0.6,0.1-1.2-0.1-1.8
		c-0.2-0.6-0.5-1.1-0.7-1.7c-0.5-1.1-1-2.2-1.6-3.4c-0.2-0.4-0.4-0.8-0.6-1.3c-0.2-0.5-0.3-0.9-0.3-1.4c0-0.4,0-0.8,0-1.2
		c0-0.3,0.1-0.6,0.1-0.9C21.7,8.5,21.6,8.5,21.4,8.6L21.4,8.6z"/>
	<path class="st2" d="M15.1,6.6c-0.9,0.8-2,1.7-2.5,2.8c-0.4,0.8-0.5,1.6-0.2,2.4c0.3,1,0.6,1.9,1,2.9c0.8,1.8,1.8,3.5,2.5,5.3
		c0.3,0.6,0.6,1.4,0.6,2.1c0.1,0.9-0.2,1.8-0.5,2.7c-0.1,0.2-0.2,0.6-0.2,0.8c0,0.2,0.1,0.1,0.2,0c0.5-0.3,0.9-0.7,1.3-1.2
		c1.1-1,2.4-2.4,2.2-4.1c-0.1-0.7-0.4-1.3-0.6-1.9c-0.3-0.7-0.6-1.4-0.9-2.1c-0.6-1.3-1.2-2.6-1.8-3.9c-0.2-0.5-0.5-0.9-0.6-1.3
		c-0.2-0.6-0.3-1.3-0.4-1.9c0-0.5,0-1,0.1-1.5c0-0.3,0.1-0.6,0.1-0.9C15.6,6.4,15.4,6.4,15.1,6.6L15.1,6.6z"/>
</g>
</svg>
