<?xml version="1.0" encoding="utf-8"?>
<!-- Generator: Adobe Illustrator 22.1.0, SVG Export Plug-In . SVG Version: 6.00 Build 0)  -->
<svg version="1.1" id="Layer_1" xmlns="http://www.w3.org/2000/svg" xmlns:xlink="http://www.w3.org/1999/xlink" x="0px" y="0px"
	 width="32px" height="32px" viewBox="0 0 32 32" style="enable-background:new 0 0 32 32;" xml:space="preserve">
<style type="text/css">
	.st0{fill:#0F8BB6;}
	.st1{fill:#87C0D3;}
	.st2{fill:none;stroke:#046B87;stroke-miterlimit:10;}
</style>
<g>
	<path class="st0" d="M1.6,16L1.6,16C1.6,24,8,30.4,16,30.4h0c8,0,14.4-6.4,14.4-14.4v0C30.4,8,24,1.6,16,1.6h0C8,1.6,1.6,8,1.6,16
		L1.6,16z M7.2,13.3v0.9H5.3v-1.8h1.8V13.3z M9.9,13.3v0.9H8.1v-1.8h1.8V13.3z M12.5,13.3v0.9h-1.7v-1.8h1.7V13.3z M17.5,12.6
		c1.4,0.5,2.2,2,2.1,3.7c-0.1,1.3-0.7,2.3-1.7,2.8c-0.7,0.4-1.3,0.5-3.1,0.5h-1.5v-7.2l1.9,0C16.8,12.4,17,12.4,17.5,12.6z
		 M23.5,15.5l2.5,3.1l0-3.1l0-3.1h0.5l0,3.6l0,3.6h-0.2c-0.2,0-0.6-0.5-2.7-3.1l-2.5-3.1v6.2h-0.5v-7.2h0.2
		C20.9,12.4,21.5,13,23.5,15.5z M9,15h0.8v1.8H8.1V15 M12.5,15v1.8h-1.7V15 M12.5,17.7v1.9l-0.9,0h-0.8v-1.9"/>
	<path class="st0" d="M15.1,16v1.8l0.7,0c0.7,0,0.8-0.1,1.1-0.3c0.5-0.3,0.7-0.8,0.7-1.5c0-1.3-0.6-1.8-1.9-1.8h-0.6V16z"/>
	<rect x="10.8" y="17.7" class="st1" width="1.7" height="1.9"/>
	<rect x="5.3" y="12.4" class="st1" width="1.8" height="1.8"/>
	<rect x="8.1" y="15" class="st1" width="1.8" height="1.8"/>
</g>
<g id="Layer_1_1_">
	<g id="Layer_3">
		<circle class="st2" cx="16" cy="16" r="14.4"/>
	</g>
</g>
</svg>
