<?xml version="1.0" encoding="utf-8"?>
<!-- Generator: Adobe Illustrator 21.0.2, SVG Export Plug-In . SVG Version: 6.00 Build 0)  -->
<svg version="1.1" id="Layer_1" xmlns="http://www.w3.org/2000/svg" xmlns:xlink="http://www.w3.org/1999/xlink" x="0px" y="0px"
	width="32px" height="32px" viewBox="0 0 32 32" style="enable-background:new 0 0 32 32;" xml:space="preserve">
<style type="text/css">
	.st0{fill:none;stroke:#000000;stroke-miterlimit:10;}
	.st1{fill:#F5A52E;}
	.st2{fill:#1EC3B2;}
	.st3{fill:#68B2E6;}
</style>
<g id="Layer_3">
	<circle class="st0" cx="16" cy="16" r="14.4"/>
</g>
<g>
	<path class="st1" d="M7,14.3c-0.1-0.2-0.1-0.5-0.2-0.8c-0.2-1.1-0.4-2.3-0.4-3.4c0-0.1,0-0.1,0-0.1c0,0,0,0,0.2-0.1
		c2.9-1.5,6.1-2.3,9.4-2.3c0.7,0,1.4,0,2.1,0.1c-1.8,1-2.8,2.9-2.8,5l0,0c0,1.5-0.8,2.9-2.1,3.7c-0.7,0.4-1.4,0.6-2.2,0.6
		C9.3,16.9,7.7,15.9,7,14.3z"/>
	<path class="st2" d="M19.4,23.9c-0.2,0.2-0.4,0.4-0.6,0.5c-0.8,0.7-1.6,1.3-2.5,1.9c-0.1,0.1-0.1,0.1-0.3,0.1c-0.2,0-0.2,0-0.3-0.1
		c-3.3-2.1-5.9-5.2-7.5-8.7C9,18.1,10,18.4,11,18.4c1,0,1.9-0.2,2.8-0.7c0.1,0,0.1-0.1,0.2-0.1c0.6-0.4,1.3-0.5,2.1-0.5
		c0.7,0,1.4,0.2,2.1,0.5l0,0c0,0,0.1,0,0.1,0.1c1.3,0.8,2.1,2.2,2.1,3.7C20.3,22.3,20,23.2,19.4,23.9L19.4,23.9z"/>
	<path class="st3" d="M21.7,21.3c0-2-1.1-3.8-2.8-4.9c0,0-0.1-0.1-0.1-0.1l0,0c-1.3-0.8-2.1-2.2-2.1-3.7v-0.1c0-2.3,1.9-4.2,4.3-4.2
		c0.2,0,0.4,0,0.7,0.1c0.2,0.1,0.5,0.1,0.7,0.2c1,0.3,2,0.8,3,1.3c0.1,0.1,0.1,0.1,0.2,0.1c0,0,0,0.1,0,0.1
		C25.4,14.1,24.1,18,21.7,21.3z"/>
</g>
</svg>
