<?xml version="1.0" encoding="utf-8"?>
<!-- Generator: Adobe Illustrator 22.1.0, SVG Export Plug-In . SVG Version: 6.00 Build 0)  -->
<svg version="1.1" id="Layer_1" xmlns="http://www.w3.org/2000/svg" xmlns:xlink="http://www.w3.org/1999/xlink" x="0px" y="0px"
	 width="32px" height="32px" viewBox="0 0 32 32" style="enable-background:new 0 0 32 32;" xml:space="preserve">
<style type="text/css">
	.st0{fill:none;stroke:#5B6A72;stroke-miterlimit:10;}
	.st1{fill:#ED8117;}
	.st2{fill:#EEBB18;}
	.st3{fill:#5B6A72;}
	.st4{fill:#DCF2F9;}
	.st5{fill:#FEFEFE;}
</style>
<g id="Layer_1_1_">
	<g id="Layer_3">
		<circle class="st0" cx="16" cy="16" r="14.4"/>
	</g>
</g>
<g transform="translate(-112.64-3.69)">
	<path class="st1" d="M123.1,27.6c1,0.7,2.8-0.2,4.1-2c0,0,0,0,0.1-0.1c0.7-1,0.5-2.4-0.6-3.2s-2.4-0.5-3.1,0.5c0,0,0,0.1,0,0.1
		C122.3,24.9,122.1,26.9,123.1,27.6"/>
	<path class="st2" d="M124.2,26.2c0.7,0.5,2-0.1,2.9-1.4c0,0,0,0,0,0c0.5-0.7,0.3-1.7-0.3-2.1c0,0,0,0,0,0c-0.7-0.5-1.7-0.3-2.2,0.4
		c0,0,0,0,0,0.1C123.6,24.4,123.5,25.8,124.2,26.2"/>
	<g>
		<path class="st3" d="M119.8,20.4c-0.1,0.1-0.2,0.3,0.1,0.3c0.8-0.3,2.7-0.6,4.8,0.9c2.9,2,2.7-3.2,2.7-3.2
			C126.7,17.9,123.3,16,119.8,20.4"/>
		<path class="st3" d="M130.8,28.2c0,0.3,0.2,0.2,0.3,0c3-4.7,0-7.2-0.7-7.7c0,0-5,1.5-2.1,3.5C130.5,25.6,130.8,27.4,130.8,28.2"/>
	</g>
	<path class="st4" d="M127.8,24.9c0.6,0.4,0.9,0.5,1.3,0c0.4-0.5,2.6-3,4.7-5.8s0.8-7.6,0.6-7.8l0,0l0,0c-0.3-0.2-5,0.1-6.8,3.2
		s-3.3,6.1-3.7,6.6c-0.3,0.6-0.1,0.9,0.4,1.3c0.3,0.2,1,0.7,1.7,1.3C126.8,24.2,127.6,24.7,127.8,24.9"/>
	<path class="st3" d="M128.5,25.5L128.5,25.5c-0.3,0-0.6-0.1-0.9-0.4c-0.3-0.2-1-0.7-1.7-1.2l0,0l-1.1-0.8l-0.6-0.4
		c-0.4-0.3-0.6-0.5-0.7-0.7c-0.1-0.4,0-0.7,0.1-1c0.1-0.1,0.2-0.3,0.4-0.7c0.6-1.1,2-3.5,3.4-6c0.5-0.9,1.3-1.6,2.4-2.2
		c0.6-0.3,1.5-0.7,2.8-1c0.5-0.1,1-0.2,1.5-0.2c0.7,0,0.8,0,0.8,0.1l0,0c0.1,0,0.2,0.1,0.4,0.8c0.1,0.4,0.2,0.9,0.3,1.5
		c0.2,1.4,0.3,4.1-1.2,5.9c-1.8,2.2-3.6,4.3-4.4,5.3c-0.2,0.3-0.4,0.5-0.5,0.6c-0.1,0.2-0.3,0.3-0.4,0.3
		C128.8,25.5,128.6,25.5,128.5,25.5 M134.2,11.5c-0.5,0-1.5,0.1-2.6,0.4c-1.2,0.4-2.9,1.2-3.8,2.6c-1.5,2.4-2.8,4.8-3.4,5.9
		c-0.2,0.3-0.3,0.5-0.4,0.7c-0.2,0.3-0.1,0.4-0.1,0.5c0,0.1,0.2,0.3,0.5,0.5l0.6,0.4l1.1,0.8l0,0c0.7,0.5,1.5,1,1.7,1.2
		c0.6,0.4,0.7,0.4,1,0c0.1-0.1,0.3-0.3,0.5-0.6c0.9-1,2.6-3,4.4-5.2c1.1-1.4,1.3-3.2,1.2-4.5c-0.1-1.4-0.4-2.5-0.5-2.8
		C134.4,11.5,134.3,11.5,134.2,11.5"/>
	<path class="st5" d="M129.6,18c0.9,0.6,2.2,0.4,2.8-0.5c0.6-0.9,0.4-2.2-0.5-2.8c-0.9-0.6-2.2-0.4-2.8,0.5
		C128.5,16.1,128.7,17.3,129.6,18"/>
	<path class="st3" d="M130.7,18.6c-1.3,0-2.3-1-2.3-2.3c0-0.5,0.1-0.9,0.4-1.3c0.7-1,2.1-1.3,3.2-0.6c0,0,0,0,0,0
		c1,0.7,1.3,2.2,0.6,3.2c-0.3,0.5-0.9,0.8-1.5,0.9C131,18.6,130.9,18.6,130.7,18.6 M130.7,14.6c-0.1,0-0.2,0-0.3,0
		c-0.4,0.1-0.8,0.3-1.1,0.7c-0.5,0.8-0.4,1.9,0.4,2.4c0.8,0.5,1.8,0.4,2.4-0.4c0,0,0,0,0,0c0.5-0.8,0.4-1.9-0.4-2.4
		C131.4,14.7,131.1,14.6,130.7,14.6"/>
</g>
</svg>
