<?xml version="1.0" encoding="utf-8"?>
<!-- Generator: Adobe Illustrator 22.1.0, SVG Export Plug-In . SVG Version: 6.00 Build 0)  -->
<svg version="1.1" id="Layer_1" xmlns="http://www.w3.org/2000/svg" xmlns:xlink="http://www.w3.org/1999/xlink" x="0px" y="0px"
	 width="32px" height="32px" viewBox="0 0 32 32" style="enable-background:new 0 0 32 32;" xml:space="preserve">
<style type="text/css">
	.st0{fill:none;stroke:#000000;stroke-miterlimit:10;}
</style>
<g id="Layer_1_1_">
	<g id="Layer_3">
		<circle class="st0" cx="16" cy="16" r="14.4"/>
	</g>
</g>
<g>
	<path d="M7,8.6h2.7l4.1,4.1c0.3,0.3,0.6,0.5,0.9,0.6c0.6,0.3,1.7,0.5,2.9-0.1c0.2-0.1,0.4-0.2,0.5-0.4l4.3-4.2h2.6L19.5,14
		c0,0-3.3,3.2-7,0L7,8.6z"/>
	<path d="M25,23.4h-2.7l-4.1-4.1c-0.3-0.3-0.6-0.5-0.9-0.6c-0.6-0.3-1.7-0.5-2.9,0.1c-0.2,0.1-0.4,0.2-0.5,0.4l-4.3,4.2H7.1l5.5-5.4
		c0,0,3.3-3.2,7,0L25,23.4z"/>
</g>
</svg>
